<svg id="Capa_1" data-name="Capa 1" xmlns="http://www.w3.org/2000/svg" viewBox="0 0 41 33.09"><defs><style>.cls-1{fill:#025bc4;}</style></defs><path class="cls-1" d="M32.8,22.89a4.34,4.34,0,0,1-.49.35,1,1,0,0,1-.37.1c-.5.06-.74.31-.65.82v0c-.13.67-.14,1.3.75,1.52-.17.33-.3.61-.45.87s-.13.35.08.53a.56.56,0,0,1,.17.46c-.17,1.14-.37,2.28-.55,3.42-.05.32-.15.47-.55.4-.83-.14-1.68-.22-2.52-.31a1.35,1.35,0,0,0-1.38.8,7.84,7.84,0,0,0-.41.82c-.12.28-.26.32-.54.18q-2-.93-3.93-1.83a1.42,1.42,0,0,0-.67-.14c-1.39,0-2.78,0-4.17.06a1.11,1.11,0,0,1-.63-.21c-1-.76-2-1.53-3-2.32a1.19,1.19,0,0,1-.32-.63c-.07-.33-.06-.67-.1-1,0-.1-.06-.24-.12-.26-.42-.14-.48-.52-.61-.85-.31-.79-.63-1.58-.91-2.38a.64.64,0,0,0-.59-.48c-.22,0-.56,0-.64-.15a3.35,3.35,0,0,1-.45-1.21,15.5,15.5,0,0,1,0-1.8c0-.54-.19-.74-.73-.74a3.58,3.58,0,0,1-.57,0,.58.58,0,0,1-.23-.8,1,1,0,0,0,.26-.91c-.1-.43.64-1,1.07-.9l1,.24a1.38,1.38,0,0,0,0-.29,1.54,1.54,0,0,1,.7-1.89,1.78,1.78,0,0,0,.35-.32,3.62,3.62,0,0,0,.28-.48c.43.49.7.14,1-.14.11-.11.32-.1.51-.09s.23-.77.87-.42l-.13-.72c1.07-.15,1.56-1.1,2.33-1.68.27-.2.26-.37,0-.58a.62.62,0,0,1,.2-1.08c.23-.1.8-1,.72-1.22A.66.66,0,0,0,17,7.33c-.29-.14-.38-.3-.26-.62.19-.5.33-1,.49-1.56.38.09.71.18,1,.25s.6.22,1,.06c.2-.08.54.13.86.23a1.32,1.32,0,0,0-.84-1.13c.08-.31.22-.45.53-.28s.43,0,.54-.21l0-.08c.37-.72.37-.72-.33-1.07.09-.38.06-.81.56-1,.09,0,.16-.22.19-.35.11-.69.69-1,1.12-1.44.08-.08.32,0,.59,0-.53.49-.13.82.06,1.16.45.85.43.53-.14,1.25a5.87,5.87,0,0,1-.41.46,1.36,1.36,0,0,0,.27,2,2.6,2.6,0,0,0,1,.13,3,3,0,0,1,.75.12c.51.19,1,.43,1.33.58a11.24,11.24,0,0,0,.26,1.25c.21.67.5,1.31.71,2a1.67,1.67,0,0,1,0,.83,14.91,14.91,0,0,1-.51,1.73c-.11.31,0,.44.26.57,1.16.53,2.3,1.1,3.45,1.63.3.13.39.27.26.6a.51.51,0,0,0,.12.47c.43.33,1,.56,1,1.23,0,.14.32.23.44.38a1,1,0,0,1,.26.53c-.11,1-.25,1.94-.4,2.91a.41.41,0,0,0,.4.54c.46.05.62.3.55.74,0,.19,0,.38,0,.57C32.07,22.59,32.07,22.59,32.8,22.89Z"/></svg>