<svg id="Capa_1" data-name="Capa 1" xmlns="http://www.w3.org/2000/svg" viewBox="0 0 41 33.09"><defs><style>.cls-1{fill:#b4252d;}</style></defs><path class="cls-1" d="M27.34,4.3H22.22a1.82,1.82,0,0,0-1.29.54l-5.87,5.73v0a2.66,2.66,0,0,0-.13,3.57,2.38,2.38,0,0,0,3.35.17h0l4.77-4.67a.92.92,0,0,1,1.35.06,1.08,1.08,0,0,1-.06,1.45l-1.56,1.52,8.69,7.53a5.38,5.38,0,0,1,.47.49V8.38L28.69,4.9a1.84,1.84,0,0,0-1.35-.6Zm6.52,4.09V22.66a2,2,0,0,0,1.91,2h3.82V8.39Zm2.87,14.27a1,1,0,1,1,1-1A1,1,0,0,1,36.73,22.66Zm-35.32,2H5.23a2,2,0,0,0,1.91-2V8.39H1.41Zm2.86-4.08a1,1,0,0,1,0,2,1,1,0,0,1,0-2Zm26,1.19-8.91-7.73-1.79,1.76a4.12,4.12,0,0,1-6.07-.28,4.82,4.82,0,0,1,.27-6.49L18.66,4.3h-5a1.86,1.86,0,0,0-1.35.6L9.05,8.38V22.65h1.09l5.4,5.22a3.65,3.65,0,0,0,5.37-.59h0l1.07,1a2.12,2.12,0,0,0,3.12-.34L27,25.45l.32.28a1.83,1.83,0,0,0,2.69-.3l.56-.75a2.13,2.13,0,0,0-.27-2.87Z"/></svg>