<svg id="Capa_1" data-name="Capa 1" xmlns="http://www.w3.org/2000/svg" viewBox="0 0 41 33.09"><defs><style>.cls-1{fill:#b4252d;}</style></defs><path class="cls-1" d="M6.48,14.54a4,4,0,1,0-4-4A4,4,0,0,0,6.48,14.54Zm28,0a4,4,0,1,0-4-4A4,4,0,0,0,34.52,14.54Zm2,2h-4a4,4,0,0,0-2.82,1.17,9.16,9.16,0,0,1,4.7,6.85h4.13a2,2,0,0,0,2-2v-2A4,4,0,0,0,36.53,16.54Zm-16,0a7,7,0,1,0-7-7A7,7,0,0,0,20.5,16.54Zm4.81,2h-.52a9.7,9.7,0,0,1-8.58,0h-.52a7.21,7.21,0,0,0-7.21,7.21v1.8a3,3,0,0,0,3,3h18a3,3,0,0,0,3-3v-1.8A7.21,7.21,0,0,0,25.31,18.55Zm-14-.84a4,4,0,0,0-2.82-1.17h-4a4,4,0,0,0-4,4v2a2,2,0,0,0,2,2H6.6a9.16,9.16,0,0,1,4.7-6.85Z"/></svg>