<svg id="Capa_1" data-name="Capa 1" xmlns="http://www.w3.org/2000/svg" viewBox="0 0 41 33.09"><defs><style>.cls-1{fill:#025bc4;}</style></defs><path class="cls-1" d="M15.22.17h0l.64.22c.32.1.38.07.59-.22h.05l.52.54c.1.11.27.19.16.4,0,0,.05.09.08.12.27.27.54.54.83.78a.89.89,0,0,0,.52.24,3,3,0,0,0,.8-.24l.49.52a1.92,1.92,0,0,1,.23-.2c.06-.05.16-.15.2-.13.26.13.53,0,.79,0s.37,0,.46-.23c.11.08.26.14.27.21s-.08.2-.15.35l.05.07c.19.3.5.54.53.93,0,0,.06.07.08.1a1.59,1.59,0,0,1,.27.37c.11.25.19.52.28.79a.63.63,0,0,1-.4.79c-.15,0-.2.11-.19.25s0,.46,0,.68a.35.35,0,0,0,.14.22c.22.16.38,0,.58-.14-.14.45.23.61.42.88a.39.39,0,0,1,.54,0c.07.07,0,.3,0,.46s-.06.32-.09.49l.07,0-.17.12c.19.36.26.37.73.16,0,0,0-.08,0-.12a1.52,1.52,0,0,1,0-.19,1.67,1.67,0,0,1,.34,0c.16,0,.33,0,.28-.17s0-.27.13-.38a1.45,1.45,0,0,0,.29-.32.41.41,0,0,1,.51-.28s0,0,.06,0c-.06-.34.29-.26.45-.4-.26-.33.16-.47.18-.73l-.21-.07a.55.55,0,0,1,.13-.56c.23-.29.44-.61.69-.9a.73.73,0,0,1,.35-.21c.23,0,.48,0,.71-.11s.37.14.54.23,0,.22,0,.33a.31.31,0,0,0,.19.4,2.44,2.44,0,0,1,0-.39.26.26,0,0,1,.11-.16.31.31,0,0,1,.21,0,.84.84,0,0,1,0,.35c0,.13-.09.28.07.35a1,1,0,0,0,.38,0l0-.07c-.37-.2-.25-.46-.14-.73a.52.52,0,0,0,0-.3c-.08-.31-.05-.39.22-.59l.65.53s.09.08.09.12c0,.27,0,.54,0,.8-.1,0-.2,0-.24,0s-.33.38-.51.58l.39.17c.11,0,.25.06.22.24s.07.45-.22.56-.52.23-.8.35l.1.13c.12.16.36.25.24.53,0,0,0,.08.08.09.24.13.49.25.76.37.08-.16.15-.29.21-.43s.15-.31.36-.33c0,0,.1-.1.11-.16a1.09,1.09,0,0,0,0-.31c0-.23.3-.54.53-.49a.5.5,0,0,0,.27,0c.13,0,.21,0,.27.09.16.33.5.41.81.58l0-.33.66,0a.44.44,0,0,1,.21.07,1,1,0,0,0,.73.26.68.68,0,0,1,.15,0l-.3.41.36.21c.2-.44.24-.44.56-.07s.46.53.69.8v.09a2.6,2.6,0,0,1-.1.25,1.51,1.51,0,0,1-.15.37c-.14.15-.29.27-.14.49,0,0,0,.1,0,.15v.67c-.16.22-.42-.06-.67,0,0,.24.07.47.12.69s.11.33-.17.35c0,0-.08.08-.12.13l-.29.46a.21.21,0,0,0,0,.3c.22.28.44.57.64.86a.45.45,0,0,1,.06.28.36.36,0,0,0,.1.35c.12.12.23.25.36.4l-.44.07c.1.41,0,.85.38,1.18a4.11,4.11,0,0,1-.31.29c-.13.1-.13.19,0,.32s.26.48.41.71a.5.5,0,0,1,0,.54A1.59,1.59,0,0,0,36,18.85a2.84,2.84,0,0,1,.09.42c0,.14.06.28.23.33s.08.09.08.14,0,.3,0,.45.07.44.1.66V21a4.7,4.7,0,0,0-1.25,1.48c0,.08-.13.17-.21.18a4.58,4.58,0,0,1-1.88.07.66.66,0,0,1-.51-.39,3.17,3.17,0,0,0-1.16-1.52c-.2-.11-.35-.23-.49,0-.26-.14-.28-.15-.17-.39a1,1,0,0,0,0-1s0,0,0,0l.17-.09L31,19.11l.13-.21c-.22-.15-.24-.31-.1-.64h.07l.22-.09c-.06-.06-.11-.16-.18-.19s-.26-.15-.24-.34,0-.2,0-.3c0-.32-.17-.66.14-.9a2.67,2.67,0,0,1-.33-.37,1.41,1.41,0,0,0-.74-.66,1.55,1.55,0,0,1-.38-.21A.31.31,0,0,1,29.4,15a3.52,3.52,0,0,0-.09-1.21.66.66,0,0,0-.58-.52,1,1,0,0,0-.24,0,.23.23,0,0,1-.26-.25.53.53,0,0,1,.08-.31.71.71,0,0,0,0-.8l-.57.64a.08.08,0,0,0,0,.08c.09.22,0,.32-.21.37l.17.44-.6-.12c-.06,0-.17,0-.18,0a1.44,1.44,0,0,0-.17.45s.09.1.12.17a.41.41,0,0,1,0,.19c0,.14-.11.28-.15.43a.77.77,0,0,1-.36.47c-.39.25-.77.53-1.16.79a.34.34,0,0,0-.2.37.62.62,0,0,1-.18.46,3.55,3.55,0,0,0-.32.61c.16.12.43.07.33.34s0,.3.2.35a.49.49,0,0,1,.37.4c.12.39.26.78.4,1.16a.29.29,0,0,1-.08.36,2.52,2.52,0,0,0-.4.4.36.36,0,0,0-.09.26c0,.15.05.31.06.47.06.59.11,1.17.15,1.76a.35.35,0,0,1-.1.26c-.21.2-.42.39-.65.57a1.08,1.08,0,0,1-.37.19c-.18.06-.4,0-.45.29,0,0-.05,0-.07,0-.25,0-.24.18-.22.35A1.83,1.83,0,0,1,23,26a.15.15,0,0,0-.06.11,1,1,0,0,1-.68.8c-.16.07-.28.14-.25.34a.91.91,0,0,1-1-.61.26.26,0,0,0-.17-.13c-.27-.07-.44.09-.58.3-.22-.18-.45-.31-.48-.6a.44.44,0,0,0-.34-.38c-.14-.05-.24-.07-.36.06s0,.21,0,.32.25.45.37.67a1.2,1.2,0,0,1-.36-.17c-.42-.26-.65-.21-.86.22s-.64.78-.44,1.39l-.38,0s-.13,0-.16,0-.35.3-.53.45-.13.08-.16.06a.54.54,0,0,0-.8.15.12.12,0,0,1-.08,0,1,1,0,0,0-.82.78s0,0,0,.05c-.19-.17-.38-.34-.65-.19a1.46,1.46,0,0,1-.09-.16c-.28-.58-.27-.57-.87-.32a.18.18,0,0,0-.13.24.93.93,0,0,1-.56,1.07,2.66,2.66,0,0,0-1.15.89.7.7,0,0,1-.26.19c-.27.16-.64.23-.66.67L10.12,32l-.19.88c-.13,0-.29-.09-.37,0-.26.16-.43,0-.59-.14s-.21-.3-.33-.45a.38.38,0,0,0-.24-.14.28.28,0,0,1-.25-.18.51.51,0,0,1,0-.6,2.53,2.53,0,0,0,.2-.36.24.24,0,0,0,0-.14c-.08-.23-.18-.45-.29-.7-.34-.19-.53.1-.7.39a.71.71,0,0,1-.26-.63c0-.2,0-.39.08-.58s0-.53-.21-.53a.73.73,0,0,1-.57-.36.38.38,0,0,1,0-.24,5.94,5.94,0,0,1,.14-.62c.1,0,.31,0,.37-.28s.11-.8.61-.93c-.18-.19-.24-.46-.56-.41,0,0-.09-.05-.11-.08a.19.19,0,0,0-.29-.12.28.28,0,0,1-.41-.17l.16-.15a.55.55,0,0,0-.51-.34c-.61-.08-1.18-.23-1.41-.91.12-.12.26-.23.37-.36a2.32,2.32,0,0,0,.77-1.32.51.51,0,0,1,0-.25c0-.06.12-.15.18-.14a.73.73,0,0,0,.54-.24,1.13,1.13,0,0,1,.27-.13,1.4,1.4,0,0,0,.3-.15c.14-.12.24-.34.38-.37.29-.06.33-.25.38-.46s.08-.29.11-.44c.07-.33.16-.63.53-.74,0,0,0,0,0-.05a.46.46,0,0,0-.08-.13.25.25,0,0,1,0-.4c.19-.21.38-.41.56-.62s.17-.13.17-.2a4.51,4.51,0,0,0,.05-1,.57.57,0,0,1,.09-.41.61.61,0,0,0,.13-.39,1.26,1.26,0,0,1,.14-.69c.1-.31.35-.28.58-.33a2.57,2.57,0,0,0,.4-.08.39.39,0,0,0,.21-.08c.16-.17.31-.35.47-.54-.25-.19-.19-.48-.1-.77H11l.19-.06a1.66,1.66,0,0,1-.14-.13.82.82,0,0,1-.2-.26,1,1,0,0,0-.46-.72.49.49,0,0,1-.18-.14.29.29,0,0,1-.07-.12,3.58,3.58,0,0,1-.08-.43c0-.22-.23-.43,0-.65a1.69,1.69,0,0,0-.23-.55c-.08-.08-.14-.12-.12-.23s0-.29.18-.29.26-.11.24-.28l.27-.06-.07.22c.52.17.61.15.75-.15l.17,0,.18,0,0-.23c.27-.1.32-.16.31-.45a1.1,1.1,0,0,0,0-.18,2.52,2.52,0,0,1,.1-1.41.23.23,0,0,1,.26-.18c.22,0,.45,0,.68,0A.78.78,0,0,0,13,7.62c-.06,0-.12-.14-.2-.16a.94.94,0,0,1-.67-.52C12.1,6.79,12,6.65,12,6.5c0-.5-.18-1,.1-1.49L12,5l-.36.16c-.24-.13-.26-.41,0-.82.24.14.47.29.72.42a.5.5,0,0,0,.36,0,2.33,2.33,0,0,0,1.22-.85l.2-.26.43.48a.22.22,0,0,0,.19,0c.16-.11.31-.23.44-.34a1.56,1.56,0,0,1-.2-.45A5.21,5.21,0,0,1,15,2.48.48.48,0,0,0,14.89,2a2,2,0,0,1-.57-1c0-.13,0-.26-.06-.41.39.2.46.29.45.52s0,.36.35.38h.26C15,1.08,15.1.65,15.22.22Z"/></svg>