<svg id="Capa_1" data-name="Capa 1" xmlns="http://www.w3.org/2000/svg" viewBox="0 0 41 33.09"><defs><style>.cls-1{fill:#efe7b2;}.cls-2{fill:#025bc4;}</style></defs><path class="cls-1" d="M11.15,2.61A7,7,0,0,1,11.82.42s0,0,.06-.06a1.78,1.78,0,0,1-.23.67,7.11,7.11,0,0,0-.37,1.35A.36.36,0,0,1,11.15,2.61Z"/><path class="cls-2" d="M-12.18-15.81a1.9,1.9,0,0,1,1.72.69,9.45,9.45,0,0,0,2.69,2.73c.17.1.51.21.59.13,1-1,2.47-1.07,3.67-1.67.65-.32,1.32-.61,2-.92-.3-.87-1.06-1-1.7-1.25a1,1,0,0,1-.77-1,1.5,1.5,0,0,0-1.12-1.31c-.64-.25-1.33-.37-2-.59a.77.77,0,0,1-.48-.41,10.48,10.48,0,0,1-.32-2.07,1.9,1.9,0,0,1,.44-1.08,2.5,2.5,0,0,0,.32-2.61c-.1-.28-.24-.68-.12-.89a5.41,5.41,0,0,1,1.19-1.66A1.93,1.93,0,0,0-5.23-29c.1-.65.33-1.27.43-1.92a.68.68,0,0,1,.7-.59c.21,0,.59.27.6.43.08,1.19,1.1,1.39,1.81,1.91l.33.2c-.09.66-.35,1-1.06,1.1-1,.1-1,.15-1,1.14a2.5,2.5,0,0,0,1.7,2.35.6.6,0,0,0,.35,0A1.06,1.06,0,0,0-1-24.59c1.18-1,2.3-.54,3.42.12.42.25.52.51.18.91-.16.19-.27.43-.43.62a2.46,2.46,0,0,0-.68,2,2.29,2.29,0,0,1-.92,2.4c-.41.3-.39.58-.12,1.05a7.06,7.06,0,0,0,3.11,3,1.74,1.74,0,0,1,.36.24c.05,0,.06.11.12.25-.46.25-.9.51-1.37.73a.54.54,0,0,0-.31.77c.25.8.47,1.62.7,2.43a1.57,1.57,0,0,1-.23.1c-1.13.16-1.29.38-1.07,1.53A.72.72,0,0,0,2.08-8a7.81,7.81,0,0,0,1,.48c.57.27,1.13.53,1.12,1.33,0,.1.33.3.49.29a7.16,7.16,0,0,0,1.85-.3c.6-.21.81.23,1.11.5.13.13.12.48.1.73A3,3,0,0,1,6.24-2.78a3.37,3.37,0,0,1-2.8.93c-1-.23-1.59.44-2.23,1C.87-.52.56-.12,0-.45A1.3,1.3,0,0,1-.45-.9C-.82-1.59-1.14-2.31-1.52-3c-.09-.16-.37-.37-.49-.33a1,1,0,0,0-.62.49,5.11,5.11,0,0,0-.3,2.43A.67.67,0,0,1-4,.27a2,2,0,0,0-2.1-.1,24.43,24.43,0,0,1-2.28.89c-.16.06-.42.09-.51,0A3.83,3.83,0,0,0-12,.23a2.34,2.34,0,0,1-1.93-.8c-.52-.55-1.1-1-1.66-1.55A1.18,1.18,0,0,1-15.68-4a3.23,3.23,0,0,1,2.36-1c.84-.11.84-.12.66-.94a2,2,0,0,1,.17-1.93.56.56,0,0,0,0-.49,2.93,2.93,0,0,1,0-1.66c.16-1.54.19-3.1.27-4.65C-12.16-15-12.18-15.4-12.18-15.81Z"/><path class="cls-2" d="M37.36,26.92a8.75,8.75,0,0,0,.35.93c.29.55-.32,1.24-1.13,1.29a4,4,0,0,0-.74.18c-.6-.55-1.27-1.22-2-1.83A1.53,1.53,0,0,0,33,27.3a6.08,6.08,0,0,1-1,0c-1.7-.39-3.38-.83-5.07-1.25a1.11,1.11,0,0,0-.44-.05,4.3,4.3,0,0,1-3.37-1.09c-.1-.08-.13-.23-.21-.33s-.18-.27-.21-.26c-.38.16-.54-.13-.78-.3a2.67,2.67,0,0,0-.71-.37Q16.48,22,11.77,20.46a2.45,2.45,0,0,1-.86-.66A14.47,14.47,0,0,0,8.7,18.23a4.51,4.51,0,0,0-.75-.3c-.34-.15-.73-.18-.8-.73,0-.21-.46-.45-.75-.54a1.87,1.87,0,0,1-1.3-1c-.19-.37-.67-.58-.87-.94A4,4,0,0,0,1.68,13a2.31,2.31,0,0,0-1.18.09,1.43,1.43,0,0,1-.19-2,2.36,2.36,0,0,1,1.25-.36c.7-.09,1.55-.7,1.55-1.23A5.14,5.14,0,0,0,3,8.06a.79.79,0,0,1,.27-1,3.42,3.42,0,0,1,1.3-.37,1.35,1.35,0,0,1,1.4.82c.15.24.79.26,1.21.24a10.29,10.29,0,0,0,1.14-.32,7.09,7.09,0,0,1,1.22,0,10.69,10.69,0,0,1,1.5.07,1.31,1.31,0,0,1,.75.46c.22.31.37.27.65.12a1,1,0,0,1,1.31.19A6.71,6.71,0,0,0,15,9.11l.57-.53c-.5-.38-1-.72-1.38-1.09A1.08,1.08,0,0,1,13.84,7c-.13-.61-.22-1.23-.29-1.85a2.15,2.15,0,0,1,0-.84.54.54,0,0,1,.49-.17c.15.06.25.29.4.5l.76-.83L17,4.89a6.41,6.41,0,0,1-.35.75c-.2.32-.43.6.13.8.07,0,.07.24.09.36s.05.44.08.72l.51-.31c.05.23.19.47.12.59-.36.64.24.75.52,1a.51.51,0,0,0,.45,0c.57-.46,1.13-.93,1.65-1.43a8.09,8.09,0,0,0,.71-1c.3.49.49.44.95.27a3.41,3.41,0,0,0,1.93-1.53c.1-.16.33-.23.4-.28l2,.69c.31.49.69,1.18,1.16,1.81a1.51,1.51,0,0,0,.86.5,8.35,8.35,0,0,0,1.43,0,2.42,2.42,0,0,1,.8,1.77c0,.07.1.2.12.19.65-.15.5.38.58.72.7,0,1,.41,1.39.94A7.72,7.72,0,0,0,34.42,13c.11.08.39-.11.6-.16a8,8,0,0,1,1.26-.32c.12,0,.43.29.4.39-.15.59.31,1.24-.37,1.81-.41.34.15,1.48.76,1.69s.64.69.77,1.15a3.66,3.66,0,0,1,.1.74,3.3,3.3,0,0,1,0,1c-.13.48,0,.7.49.67s.7.15.54.63,0,.68.47.79a5.34,5.34,0,0,1,.76.28l.82.37-.48.42-.44.4c.51,1.4.14,2.32-1,2.66-.15.43.55,1-.15,1.29A5.17,5.17,0,0,1,37.36,26.92Z"/></svg>