<svg id="Capa_1" data-name="Capa 1" xmlns="http://www.w3.org/2000/svg" viewBox="0 0 41 33.09"><defs><style>.cls-1{fill:#b4252d;}</style></defs><path class="cls-1" d="M26.48,13.73a3.39,3.39,0,0,1-.6,1.4.81.81,0,0,0-.05-.1c0-.08.08-.21,0-.22s-.07.14-.1.21c-.14.39,0,.84-.28,1.19a.2.2,0,0,0,0,.13,1,1,0,0,1,0,.73,4.36,4.36,0,0,0-.05,1.14.88.88,0,0,1-.2.71.26.26,0,0,0,0,.27,2,2,0,0,1,.07.73c0,.17.1.3.19.44a.54.54,0,0,1,.07.6c0-.18,0-.33-.12-.44s-.12-.25-.21-.19,0,.2.06.29a1.53,1.53,0,0,1,.28.83,2.41,2.41,0,0,0,.07.37,2.09,2.09,0,0,0,.65.92,2.2,2.2,0,0,1,.57,1.1.8.8,0,0,0,.24.45c.12.14.25.27.36.41a.46.46,0,0,0,.36.17,1.15,1.15,0,0,1,1.12.74c.08.22.16.29.39.18a.6.6,0,0,1,.67,0c.13.09.29,0,.4-.12a1.3,1.3,0,0,1,1-.33.19.19,0,0,0,.13,0,.8.8,0,0,1,.82-.17c.13,0,.25-.14.4-.06s.16,0,.08.13-.22.14-.13.25a.61.61,0,0,0,.36.19.53.53,0,0,0,.46-.3.71.71,0,0,0,0-.57s-.06,0-.14-.06l.6-.27a.59.59,0,0,0,.41-.63.48.48,0,0,1,.23-.44.6.6,0,0,0,.23-.51c0-.42,0-.87.39-1.16,0,0,.07-.07,0-.13s0-.28.14-.31a4.76,4.76,0,0,1,1.35-.13c.26,0,.5.06.68-.21a.28.28,0,0,1,.38-.06.26.26,0,0,0,.37-.08.39.39,0,0,1,.39-.16l.54.05c.16,0,.33.11.44-.1,0,0,.1,0,.15,0a.71.71,0,0,1,.38.93,3,3,0,0,1-.83,1.06.65.65,0,0,0-.33.59.37.37,0,0,1-.2.32c-.09.07-.16.13,0,.19s.19.23.05.38l-.09.1c0,.06-.14.11-.07.19s.12,0,.18,0,.17,0,.12.1a7.87,7.87,0,0,1-.47,1.22c-.08.12-.15.24-.26,0a.18.18,0,0,0-.08-.07c-.23-.09-.27-.24-.13-.44,0,0,0-.06,0-.12a.92.92,0,0,0-.37.26.93.93,0,0,1-.47.3c-.11,0-.14.12-.16.22a.75.75,0,0,1-.23.38c-.07.07-.15.12-.25,0a.16.16,0,0,0-.29.07c-.06.16-.17.17-.31.17L34,26.39c-.16,0-.31,0-.29.22,0,.36,0,.6-.55.52a2.87,2.87,0,0,0,.74.77c.23.13.36.43.63.58s0,.31-.24.32-.73,0-1.1,0a.66.66,0,0,0-.75.41,2.24,2.24,0,0,1-.35.55.8.8,0,0,0-.15.81.31.31,0,0,1-.07.33c-.09.12-.16.12-.27,0a3.1,3.1,0,0,0-.59-.56,11.4,11.4,0,0,1-.94-.69,1,1,0,0,1-.34-.42.85.85,0,0,0-.59-.53,1.45,1.45,0,0,1,.47.53c-.21-.14-.37-.26-.54-.36a2.49,2.49,0,0,0-.29-.11l-.1,0c0-.35-.25-.13-.36-.22a.17.17,0,0,0-.28.09c-.05.13.1.1.16.15l.09.05a9.65,9.65,0,0,0-1.86.61,1.47,1.47,0,0,1-1.17-.24,1,1,0,0,0-.52-.13,1,1,0,0,1-.39-.07,2.47,2.47,0,0,0-.93-.29.36.36,0,0,1-.26-.12c-.28-.41-.75-.39-1.15-.51a.41.41,0,0,1-.25-.17.82.82,0,0,0-.56-.3A2.49,2.49,0,0,1,19.79,27c-.32-.27-.63-.54-.94-.83-.06-.06-.13-.14-.22-.08s-.37,0-.55-.05a4.4,4.4,0,0,0-.88-.24.49.49,0,0,1-.38-.24,1.85,1.85,0,0,0-.9-.91s-.06,0-.05-.05c0-.31-.24-.19-.39-.24-.39-.12-.77-.22-1-.69s-.4-.68-.54-1.06-.05-.36.25-.39c.08,0,.17,0,.21-.08s0-.13-.11-.17-.06-.22,0-.29c.47-.33.39-.74.18-1.18-.11-.24-.2-.48-.29-.73a.32.32,0,0,1,0-.25.69.69,0,0,0-.23-.73.8.8,0,0,1-.27-.52.44.44,0,0,0-.23-.33,1.19,1.19,0,0,1-.35-.45,3.67,3.67,0,0,0-.88-1.12,2.36,2.36,0,0,0-.72-.53c-.1,0-.18-.1,0-.23a.57.57,0,0,0-.22-.81,1.69,1.69,0,0,1-.8-.46,1,1,0,0,0-.47-.23.36.36,0,0,1-.29-.45.68.68,0,0,1,.6-.64c.06,0,.1,0,.11-.08s0-.11-.08-.11-.25-.16-.32-.31a.34.34,0,0,0-.36-.24A.33.33,0,0,1,9.28,12c0-.14-.06-.2-.21-.24a.7.7,0,0,1-.52-.94c.09-.29,0-.37-.27-.4a.66.66,0,0,1-.57-.46c-.09-.2-.15-.42-.38-.5a.18.18,0,0,1-.07-.08,1.62,1.62,0,0,0-.36-.76c-.11-.15-.15-.38-.33-.51a.18.18,0,0,1-.05-.17c.09-.21,0-.37-.14-.52a1,1,0,0,1-.2-.61A5.59,5.59,0,0,0,5.9,5.55.51.51,0,0,1,6,5c.15-.17,0-.25-.17-.28a.58.58,0,0,1-.47-.28.19.19,0,0,0-.25-.06.37.37,0,0,1-.48-.21.73.73,0,0,0-.42-.37c-.11,0-.16,0-.15.11a1.44,1.44,0,0,1-.15.65,2.21,2.21,0,0,0,0,1,2,2,0,0,1,0,.87.2.2,0,0,0,0,.2,1.49,1.49,0,0,1,.26.62c0,.18.25.28.4.39a.7.7,0,0,1,.3.67A.3.3,0,0,0,5,8.66a.46.46,0,0,1,.28.41.24.24,0,0,0,.14.21.59.59,0,0,1,.37.66.63.63,0,0,0,.33.65.76.76,0,0,1,.3.64.35.35,0,0,0,.12.3c.1.06.09.16.06.25a.46.46,0,0,0,.06.38c.06.09.12.24.22,0s.13,0,.18,0a1,1,0,0,1,.26.81,3.11,3.11,0,0,0,.3,1.41.48.48,0,0,1,0,.33.22.22,0,0,0,.06.24.39.39,0,0,1,.09.46c-.16.32,0,.53.21.73s.16.3.33.05c.06-.09.17,0,.23.08a7.19,7.19,0,0,1,.78,1.14.55.55,0,0,1-.1.61.65.65,0,0,1-.58.31c-.15,0-.21-.13-.22-.26,0-.28-.26-.48-.27-.77,0-.05-.07-.1-.12-.13a4.4,4.4,0,0,1-1.41-1.34,1.43,1.43,0,0,0-.52-.36c-.3-.18-.36-.35-.2-.66a1.86,1.86,0,0,0,0-1.73A.16.16,0,0,0,5.76,13a.92.92,0,0,1-.53-.3A.64.64,0,0,1,4.94,12s0-.11,0-.14-.11,0-.16,0a.56.56,0,0,1-.34.17c-.06,0-.13,0-.16,0a1.12,1.12,0,0,0-.66-.53c-.22-.11-.4-.21-.41-.48,0-.12-.11-.16-.2-.22s-.32-.24-.26-.41.28-.1.44-.06l.53.13c.08,0,.14,0,.18-.06s0-.11-.06-.15-.12-.21.06-.26.16,0,.13-.09a.69.69,0,0,1,.06-.56.14.14,0,0,0,0-.15c-.24-.18-.28-.5-.48-.72s-.35-.71-.69-.94c-.05,0-.1-.12-.16-.13-.4-.07-.48-.37-.49-.69A1,1,0,0,0,2,6.07.31.31,0,0,1,2,5.7a.34.34,0,0,0-.12-.46.35.35,0,0,1-.14-.43.3.3,0,0,0-.12-.3.52.52,0,0,1-.18-.37A3.28,3.28,0,0,0,1.1,2.73c-.18-.59-.28-.58.43-.59s1.64,0,2.46,0c.15,0,.28,0,.31.2s.11.12.18.16L8.69,4.39a1.29,1.29,0,0,0,.51.1c1.13,0,2.25,0,3.38.09.17,0,.22-.07.21-.21s.09-.31.31-.3c.55,0,1.11,0,1.67.06.4,0,.58.3.8.56a6.13,6.13,0,0,1,.53.66c.19.31.52.51.6.88a.69.69,0,0,0,.24.34c.14.15.25.3,0,.47s-.05.15,0,.23l.3.49s0,.1.07.11c.32.09.48.43.8.54a3.39,3.39,0,0,1,.72.4c.15.1.24.06.39,0a1.7,1.7,0,0,0,.51-.71.59.59,0,0,1,.53-.37,6,6,0,0,1,.66-.12,1.45,1.45,0,0,1,1.28.75,4.68,4.68,0,0,1,.38,1,2.74,2.74,0,0,0,.67,1.24c.11.08.1.22.17.31a1.72,1.72,0,0,1,.33,1.1c0,.38.26.74.27,1.14a.27.27,0,0,0,.3.24.36.36,0,0,1,.29.08,2.51,2.51,0,0,0,1.07.53.68.68,0,0,1,.31.27c.09.13.13.06.18,0S26.25,13.86,26.48,13.73Z"/></svg>