<svg id="Capa_1" data-name="Capa 1" xmlns="http://www.w3.org/2000/svg" viewBox="0 0 41 33.09"><defs><style>.cls-1{fill:#efe7b2;}.cls-2{fill:#025bc4;}</style></defs><path class="cls-1" d="M11.15,2.61A7,7,0,0,1,11.82.42s0,0,.06-.06a1.78,1.78,0,0,1-.23.67,7.11,7.11,0,0,0-.37,1.35A.36.36,0,0,1,11.15,2.61Z"/><path class="cls-2" d="M-12.18-15.81a1.9,1.9,0,0,1,1.72.69,9.45,9.45,0,0,0,2.69,2.73c.17.1.51.21.59.13,1-1,2.47-1.07,3.67-1.67.65-.32,1.32-.61,2-.92-.3-.87-1.06-1-1.7-1.25a1,1,0,0,1-.77-1,1.5,1.5,0,0,0-1.12-1.31c-.64-.25-1.33-.37-2-.59a.77.77,0,0,1-.48-.41,10.48,10.48,0,0,1-.32-2.07,1.9,1.9,0,0,1,.44-1.08,2.5,2.5,0,0,0,.32-2.61c-.1-.28-.24-.68-.12-.89a5.41,5.41,0,0,1,1.19-1.66A1.93,1.93,0,0,0-5.23-29c.1-.65.33-1.27.43-1.92a.68.68,0,0,1,.7-.59c.21,0,.59.27.6.43.08,1.19,1.1,1.39,1.81,1.91l.33.2c-.09.66-.35,1-1.06,1.1-1,.1-1,.15-1,1.14a2.5,2.5,0,0,0,1.7,2.35.6.6,0,0,0,.35,0A1.06,1.06,0,0,0-1-24.59c1.18-1,2.3-.54,3.42.12.42.25.52.51.18.91-.16.19-.27.43-.43.62a2.46,2.46,0,0,0-.68,2,2.29,2.29,0,0,1-.92,2.4c-.41.3-.39.58-.12,1.05a7.06,7.06,0,0,0,3.11,3,1.74,1.74,0,0,1,.36.24c.05,0,.06.11.12.25-.46.25-.9.51-1.37.73a.54.54,0,0,0-.31.77c.25.8.47,1.62.7,2.43a1.57,1.57,0,0,1-.23.1c-1.13.16-1.29.38-1.07,1.53A.72.72,0,0,0,2.08-8a7.81,7.81,0,0,0,1,.48c.57.27,1.13.53,1.12,1.33,0,.1.33.3.49.29a7.16,7.16,0,0,0,1.85-.3c.6-.21.81.23,1.11.5.13.13.12.48.1.73A3,3,0,0,1,6.24-2.78a3.37,3.37,0,0,1-2.8.93c-1-.23-1.59.44-2.23,1C.87-.52.56-.12,0-.45A1.3,1.3,0,0,1-.45-.9C-.82-1.59-1.14-2.31-1.52-3c-.09-.16-.37-.37-.49-.33a1,1,0,0,0-.62.49,5.11,5.11,0,0,0-.3,2.43A.67.67,0,0,1-4,.27a2,2,0,0,0-2.1-.1,24.43,24.43,0,0,1-2.28.89c-.16.06-.42.09-.51,0A3.83,3.83,0,0,0-12,.23a2.34,2.34,0,0,1-1.93-.8c-.52-.55-1.1-1-1.66-1.55A1.18,1.18,0,0,1-15.68-4a3.23,3.23,0,0,1,2.36-1c.84-.11.84-.12.66-.94a2,2,0,0,1,.17-1.93.56.56,0,0,0,0-.49,2.93,2.93,0,0,1,0-1.66c.16-1.54.19-3.1.27-4.65C-12.16-15-12.18-15.4-12.18-15.81Z"/><path class="cls-2" d="M1.58,19.46a1.6,1.6,0,0,0,1.52-.79.8.8,0,0,1,.62-.28,2.7,2.7,0,0,0,1.9-.25c.34-.18.48-.07.63.24.34.73.72.76,1.22.15.29-.36.61-.7,1-1.12l-.11-.64c1.22-.57,2.16-1.94,3.8-1l1.34-3-.57-.42a2.28,2.28,0,0,1-.66.3c-.2,0-.43-.17-.69-.28A1.26,1.26,0,0,0,11.13,11c-.38-.34-.33-1.19-.45-1.81,0-.05.12-.17.2-.18a.64.64,0,0,0,.52-.88,1.33,1.33,0,0,0-.73-.79,14.13,14.13,0,0,0-2.06-.39l-.35-.09V5.34A3.37,3.37,0,0,1,9.09,5a1.64,1.64,0,0,1,1,.16.81.81,0,0,0,.87.08,3,3,0,0,0,1.43-1c.15-.21.51-.29.78-.41.09,0,.25,0,.29,0A2.37,2.37,0,0,1,15.53,3a10.88,10.88,0,0,0,1.61-.19c.62-.11,1.24-.26,1.9-.41l.09.6.08,0c.21-.36.44-.4.59,0a2.9,2.9,0,0,1,.11.79c.06.49.24.72.81.61a5.26,5.26,0,0,1,1.37,0c.34,0,.67.14.87-.28.14-.27.32-.53.55-.89.25-.06.64-.16,1-.23s.77.1.64.65c.62,0,.71.23.57.77a4.16,4.16,0,0,0,0,1.17,6.57,6.57,0,0,0,.14.78h2.44c-.25-.62.1-.66.51-.64a5.62,5.62,0,0,1,.58,0c.27.05.66-.16.64.46,0,.27.47.56,0,1l1.85.23.2-.38.5.6c.49-.14,1-.33,1.47-.42.78-.14,1.58-.21,2.36-.35.21,0,.52-.18.57-.34s-.09-.48-.16-.72-.13-.29-.09-.41c.15-.48.35-1,.5-1.43a3,3,0,0,0,0-.68,9.42,9.42,0,0,1,1.44.89c.12.1,0,.54-.1,1a4.51,4.51,0,0,0,.63,1.2c.51.53-.07,1.42.56,1.68a7.76,7.76,0,0,0-.42.9c-.15.48-.26.95-.91,1-.13,0-.39.33-.37.39.26.5,0,1.17.57,1.61.21.16.12.72.18,1.14-1.2.22-1.23,1.3-1.6,2.12-.27.6-.41,1.26-.63,1.88a.83.83,0,0,1-.28.34A3.47,3.47,0,0,0,35,18.77c-.3.6-1,1-1.55,1.47a1.17,1.17,0,0,0-.23-.33.76.76,0,0,0-.52-.17.49.49,0,0,0-.23.42c.06.59.18,1.17.27,1.75a2,2,0,0,1,.07.76c-.2.69.23,1,.69,1.34l1.19.86-.65.68-.53-.75-.05.11a3.52,3.52,0,0,1-.83-.55.94.94,0,0,0-1.12-.25c-.68.58-.95.09-1.33-.32a.81.81,0,0,0-.48-.18,10.15,10.15,0,0,1-1.66-.08,3,3,0,0,0-1.67.11,6.22,6.22,0,0,1-1.32.33,1.15,1.15,0,0,1-1.34-.74.63.63,0,0,0-.82-.45c-.16,0-.36-.16-.5-.11a4.9,4.9,0,0,0-1.47.55.93.93,0,0,0-.26,1.16,3.35,3.35,0,0,1,.09,1.72,1.57,1.57,0,0,1-.85.85,15.59,15.59,0,0,1-1.81.5c-.19.07-.46.23-.5.39-.19.71-.66,1.45.12,2.12a.44.44,0,0,1,0,.36,1.36,1.36,0,0,1-.7.11c-.77-.25-1.51-.61-2.28-.83-1.05-.3-2.14-.44-3.17-.77s-2.12-.89-3.2-1.27c-.79-.28-1.63-.42-2.43-.69A29.43,29.43,0,0,1,3.2,25.76c-.21-.09-.35-.42-.44-.67A4,4,0,0,0,1.31,23c-.21-.14-.5-.28-.31-.64,0,0,0-.14-.07-.21s-.36-.45-.3-.58a2.41,2.41,0,0,1,.63-.83A.92.92,0,0,0,1.58,19.46Z"/></svg>