<svg id="Capa_1" data-name="Capa 1" xmlns="http://www.w3.org/2000/svg" viewBox="0 0 41 33.09"><defs><style>.cls-1{fill:#025bc4;}.cls-2{fill:#f0e7b6;}.cls-3{fill:#efe7b2;}.cls-4{fill:#ede3a4;}.cls-5{fill:#eee5ab;}</style></defs><path class="cls-1" d="M12.1.2h.3A4.17,4.17,0,0,1,13,.46a.51.51,0,0,1,.3.42c0,.16.11.21.26.23A14.13,14.13,0,0,0,15,1.23c.7,0,1.41,0,2.11.09a8.65,8.65,0,0,1,2.28.61,1,1,0,0,1,.24.11,2.24,2.24,0,0,0,1.88.3,1.45,1.45,0,0,1,.36,0A1.9,1.9,0,0,0,23,2a1.28,1.28,0,0,1,1.29-.11c.82.37,1.65.72,2.45,1.11a6.53,6.53,0,0,1,1.51,1.21.62.62,0,0,1,.15.42,3.85,3.85,0,0,1,0,.59,2,2,0,0,0,1.4,1.9,3.64,3.64,0,0,0,1.91,0c.59-.15,1.19-.26,1.78-.42a3.36,3.36,0,0,1,.71-.08.91.91,0,0,0,.42-.14,13.73,13.73,0,0,0,2.47-2.1.48.48,0,0,1,.56-.18c.24.08.22.29.24.49a5.07,5.07,0,0,1-1,3.2,6.29,6.29,0,0,0-.43.75c-.3.68-.73,1.29-1.09,1.93a1.27,1.27,0,0,0-.18.56,1.12,1.12,0,0,1-.39.88A3.13,3.13,0,0,0,34,13.79a3.09,3.09,0,0,0,0,1.48,1,1,0,0,0,.56.73,3.94,3.94,0,0,1,1.55,1.61.8.8,0,0,1,.1.43,4.36,4.36,0,0,1-.07.81c0,.27-.13.38-.4.37a1.54,1.54,0,0,0-1.45,1,1.78,1.78,0,0,0-.09,1.09,5.85,5.85,0,0,0,.45,1.92,5.54,5.54,0,0,1,.23,1.41,1.71,1.71,0,0,0,.3.86.89.89,0,0,1,.09.85c-.13.39-.25.78-.37,1.17a.79.79,0,0,0,.06.64c.11.18.21.36.31.55A.87.87,0,0,1,35,29.89a11.9,11.9,0,0,1-1.15-.38.24.24,0,0,1-.15-.27.36.36,0,0,0-.2-.34,2.71,2.71,0,0,1-.41-.35,1.37,1.37,0,0,1-.54-1.13.43.43,0,0,0-.06-.2,1.13,1.13,0,0,0-1.19-.38,35.07,35.07,0,0,1-3.52.94L27,28a1.27,1.27,0,0,0-1,1s0,0,0,0a1.44,1.44,0,0,1-.9,1.28,5.67,5.67,0,0,0-1.06.78,1.64,1.64,0,0,1-.88.39,5.33,5.33,0,0,0-1.65.54.6.6,0,0,0-.39.51.62.62,0,0,1-.07.23.17.17,0,0,1-.18.12c-.09,0-.12-.07-.15-.14a27.53,27.53,0,0,0-2.32-4.27,2.09,2.09,0,0,1-.32-.86.81.81,0,0,0-.29-.54,2.94,2.94,0,0,0-1.07-.74.32.32,0,0,1-.23-.42,2.27,2.27,0,0,0,0-.78c0-.09,0-.18-.11-.23a2.29,2.29,0,0,0-1.7.22c-.35.22-.74.36-1.09.56s-.73.41-1.08.64a1.36,1.36,0,0,1-.76.21,7.64,7.64,0,0,0-1.17.05,1.22,1.22,0,0,1-.7-.09L8.53,26a1.14,1.14,0,0,1-.73-.78c0-.15-.11-.3-.16-.45a3.07,3.07,0,0,0-.48-.89c-.35-.48-.71-1-1-1.46a2.84,2.84,0,0,1-.1-.64c0-.2-.15-.24-.3-.26s-.42,0-.62,0c0,0,0,0,0,0v0a.4.4,0,0,1-.31.15c-.11,0-.22,0-.32,0a1.12,1.12,0,0,1-1.23-.63,1.43,1.43,0,0,1-.14-.66c0-1,0-2,0-2.94a1.12,1.12,0,0,1,.57-1,8.35,8.35,0,0,0,1.41-1.1.64.64,0,0,0,.23-.53,1.92,1.92,0,0,1,0-.24,3.36,3.36,0,0,1,.35-1.94,1.83,1.83,0,0,0,.19-.78,3,3,0,0,1,.4-1.05c.18-.42.41-.82.58-1.25a1,1,0,0,1,.27-.39,3.56,3.56,0,0,0,1-1.41A1.31,1.31,0,0,1,8.88,7a1.29,1.29,0,0,0,.95-1.16,4.91,4.91,0,0,1,1.07-2.5,4.07,4.07,0,0,0,.28-.55.77.77,0,0,0,.12-.24A7.17,7.17,0,0,1,11.81.87.85.85,0,0,0,11.9.56.51.51,0,0,1,12.1.2Z"/><path class="cls-2" d="M35.1,30a5,5,0,0,1-1.19-.38.07.07,0,0,1-.06-.06c.06-.43-.32-.57-.55-.77a1.59,1.59,0,0,1-.62-1.52c.13.14,0,.31.07.46,0,.57.48.86.85,1.18.17.14.35.24.3.5s.08.15.18.18A4.54,4.54,0,0,1,35.1,30Z"/><path class="cls-3" d="M11.15,2.61A7,7,0,0,1,11.82.42s0,0,.06-.06a1.78,1.78,0,0,1-.23.67,7.11,7.11,0,0,0-.37,1.35A.36.36,0,0,1,11.15,2.61Z"/><path class="cls-4" d="M6,22.41c-.19-.13-.14-.33-.12-.49,0-.31-.13-.39-.37-.4s-.4,0-.6,0a1.35,1.35,0,0,1,1,0s.06.06,0,.1A5,5,0,0,0,6,22.41Z"/><path class="cls-5" d="M16.42,24.9a4.29,4.29,0,0,0-1.88.25,1.09,1.09,0,0,1,.76-.28A2.82,2.82,0,0,1,16.42,24.9Z"/></svg>