<svg id="Capa_1" data-name="Capa 1" xmlns="http://www.w3.org/2000/svg" viewBox="0 0 41 33.09"><defs><style>.cls-1{fill:#efe7b2;}.cls-2{fill:#025bc4;}</style></defs><path class="cls-1" d="M11.15,2.61A7,7,0,0,1,11.82.42s0,0,.06-.06a1.78,1.78,0,0,1-.23.67,7.11,7.11,0,0,0-.37,1.35A.36.36,0,0,1,11.15,2.61Z"/><path class="cls-2" d="M-12.18-15.81a1.9,1.9,0,0,1,1.72.69,9.45,9.45,0,0,0,2.69,2.73c.17.1.51.21.59.13,1-1,2.47-1.07,3.67-1.67.65-.32,1.32-.61,2-.92-.3-.87-1.06-1-1.7-1.25a1,1,0,0,1-.77-1,1.5,1.5,0,0,0-1.12-1.31c-.64-.25-1.33-.37-2-.59a.77.77,0,0,1-.48-.41,10.48,10.48,0,0,1-.32-2.07,1.9,1.9,0,0,1,.44-1.08,2.5,2.5,0,0,0,.32-2.61c-.1-.28-.24-.68-.12-.89a5.41,5.41,0,0,1,1.19-1.66A1.93,1.93,0,0,0-5.23-29c.1-.65.33-1.27.43-1.92a.68.68,0,0,1,.7-.59c.21,0,.59.27.6.43.08,1.19,1.1,1.39,1.81,1.91l.33.2c-.09.66-.35,1-1.06,1.1-1,.1-1,.15-1,1.14a2.5,2.5,0,0,0,1.7,2.35.6.6,0,0,0,.35,0A1.06,1.06,0,0,0-1-24.59c1.18-1,2.3-.54,3.42.12.42.25.52.51.18.91-.16.19-.27.43-.43.62a2.46,2.46,0,0,0-.68,2,2.29,2.29,0,0,1-.92,2.4c-.41.3-.39.58-.12,1.05a7.06,7.06,0,0,0,3.11,3,1.74,1.74,0,0,1,.36.24c.05,0,.06.11.12.25-.46.25-.9.51-1.37.73a.54.54,0,0,0-.31.77c.25.8.47,1.62.7,2.43a1.57,1.57,0,0,1-.23.1c-1.13.16-1.29.38-1.07,1.53A.72.72,0,0,0,2.08-8a7.81,7.81,0,0,0,1,.48c.57.27,1.13.53,1.12,1.33,0,.1.33.3.49.29a7.16,7.16,0,0,0,1.85-.3c.6-.21.81.23,1.11.5.13.13.12.48.1.73A3,3,0,0,1,6.24-2.78a3.37,3.37,0,0,1-2.8.93c-1-.23-1.59.44-2.23,1C.87-.52.56-.12,0-.45A1.3,1.3,0,0,1-.45-.9C-.82-1.59-1.14-2.31-1.52-3c-.09-.16-.37-.37-.49-.33a1,1,0,0,0-.62.49,5.11,5.11,0,0,0-.3,2.43A.67.67,0,0,1-4,.27a2,2,0,0,0-2.1-.1,24.43,24.43,0,0,1-2.28.89c-.16.06-.42.09-.51,0A3.83,3.83,0,0,0-12,.23a2.34,2.34,0,0,1-1.93-.8c-.52-.55-1.1-1-1.66-1.55A1.18,1.18,0,0,1-15.68-4a3.23,3.23,0,0,1,2.36-1c.84-.11.84-.12.66-.94a2,2,0,0,1,.17-1.93.56.56,0,0,0,0-.49,2.93,2.93,0,0,1,0-1.66c.16-1.54.19-3.1.27-4.65C-12.16-15-12.18-15.4-12.18-15.81Z"/><path class="cls-2" d="M40.15,15.87l-.3.05a10.89,10.89,0,0,1-1.14,0c-.4,0-.65.07-.68.52.33.2.86.1,1.09.52l0,.1L38.72,17a1.72,1.72,0,0,1,.19.28c.05.14.07.29.12.43s.15.45.21.63L38.9,19a.46.46,0,0,0-.69.19c-.05.07,0,.2,0,.35l-.36-.27a.79.79,0,0,0-.26,1c.18.43.35.87.55,1.29a.43.43,0,0,0,.29.19,2.53,2.53,0,0,0,.52,0c.08.23.15.41.2.6a1.32,1.32,0,0,1,.09.48c0,.42.15.93-.38,1.2a.3.3,0,0,0-.07.28c.1.21.25.41.37.62s.13.25.24.44c-.22-.08-.38-.14-.53-.21a12.69,12.69,0,0,0-4.54-1.08,9.43,9.43,0,0,0-3.26.27,6.48,6.48,0,0,1-.77.08,1.54,1.54,0,0,0-.38.16c-.05,0-.09.07-.14.07a1.17,1.17,0,0,0-.88.41,2.15,2.15,0,0,1-.48.3c-.26.12-.43.28-.34.57a4,4,0,0,1-.57.46,5.88,5.88,0,0,1-.75.19,5.17,5.17,0,0,0-.51.18c-.36.12-.71.24-1.06.38s-.94.38-1.4.59c-.62.28-1.24.57-1.85.88-.32.17-.6.4-.91.57a1.29,1.29,0,0,1-.52.13c-.41,0-.82,0-1.22,0a.41.41,0,0,0-.27.1,1.25,1.25,0,0,1-1.47,0,4.32,4.32,0,0,0-1.7-.36,1.45,1.45,0,0,1-.41-.1c-.43-.15-.85-.32-1.27-.48a.7.7,0,0,1-.25-.15,3.14,3.14,0,0,0-2.86-1,4.21,4.21,0,0,1-.62,0c-.48-.06-1-.15-1.44-.18a7.79,7.79,0,0,0-1.08,0,1.86,1.86,0,0,1-1.1-.52,18.51,18.51,0,0,0-2.62-1.44,7.66,7.66,0,0,0-1.93-.52c-.48-.08-.94-.23-1.41-.35l0-.12c.13-.08.25-.21.38-.22a.78.78,0,0,0,.58-.37.51.51,0,0,1,.56-.28c.22,0,.28,0,.17-.27a9.59,9.59,0,0,1-.34-1L3.73,22V21a1.39,1.39,0,0,0,.93-.81,1.45,1.45,0,0,0,0-1.33.52.52,0,0,1,.16-.77c.15-.09,0-.43-.21-.53a3.92,3.92,0,0,0-.79-.28c-.23,0-.23-.16-.24-.33a3.33,3.33,0,0,0-.11-.53H3.33l-.22.39c0-.08-.08-.13-.07-.17.07-.29-.12-.45-.29-.64s0-.31,0-.43.15-.77,0-.91a.44.44,0,0,1-.2-.53c.1-.33-.13-.54-.19-.81A1.5,1.5,0,0,0,2.24,13c-.45.21-.63-.21-.91-.41s-.25-.23-.38-.35a.4.4,0,0,0,.11-.59c0-.06.07-.28.13-.29.46-.09.48-.4.44-.71l.44-.14a2.17,2.17,0,0,0,.24-.07,1.69,1.69,0,0,0,.36-.17l.39-.24.21.33a.48.48,0,0,0,0,.11c.24-.06.47-.11.42-.47,0-.1.15-.23.26-.33a3.26,3.26,0,0,1,.38-.27l.27.16c.27-.39.56-.06.78,0s.58.12.44.54l.74,0c.22-.25.42-.49.64-.71s0-.35,0-.53c0,0-.2-.07-.26,0s-.13.2-.1.24c.23.35-.18.38-.21.59l-.11,0V8.85c-.32-.22-.37-.48-.16-.88.06-.11,0-.27.05-.4A1.36,1.36,0,0,1,6.6,7a.4.4,0,0,1,.54-.13c.09,0,.22,0,.32,0s.18.09.28.06l.63.11-.15.83c.32.25.92.4.83,1.12l.15,0c.1.18.17.34.26.48a.17.17,0,0,0,.17,0s.08-.11.07-.14a.74.74,0,0,1,.43-.94c.47-.16.7-.69,1.26-.68.2,0,.5.06.64-.23a1.21,1.21,0,0,1,.29.19c.21.27.43.32.67.11a4.35,4.35,0,0,1,.66-.56,1.64,1.64,0,0,1,.77-.23c.41,0,.5-.27.6-.55a1,1,0,0,1,1.21-.74.83.83,0,0,0,0-.24c-.12-.21-.28-.41-.09-.67,0,0,0-.18-.09-.23A.41.41,0,0,1,16,3.93c.1-.1.28-.2.12-.4,0,0,0-.16,0-.17a.23.23,0,0,1,.2,0c.23.13.44.28.67.4a.53.53,0,0,0,.33.1.9.9,0,0,1,1,.73c.15.46.53.71.76,1.08.07.12.18.22.2.35a3.39,3.39,0,0,0,.86,1.41l.44-.16-.13.35a.29.29,0,0,0,.5-.06c.05-.06.25-.12.28-.08a.64.64,0,0,0,.83.08c.17-.09.37-.19.56,0,0,0,.18,0,.25-.06a1.8,1.8,0,0,0,.28-.25,2.88,2.88,0,0,1,.17.71.9.9,0,0,0,.3.68.75.75,0,0,1,.14.33c0,.21.05.44.07.67-.23,0-.28.16-.32.43a1.51,1.51,0,0,1-.32.72c-.14.18-.4.28,0,.45-.1.36.27.4.41.6l.3.42a2.29,2.29,0,0,1,.56.32c.21.2.39.33.68.16a.38.38,0,0,1,.28,0c.29.07.48-.1.69-.24.54-.36.92-.9,1.56-1.12.21-.08.36-.32.56-.37a.94.94,0,0,1,.61.1.44.44,0,0,1,.1.4.56.56,0,0,1-.33.27c-.27.1-.26.23-.1.41l.21.24c.31.38.34.39.71.07l.13.52c-.54.17,0,.61-.22.82.58.21,1.14.41,1.7.59a2.44,2.44,0,0,0,.51.08c0,.32,0,.62,0,.92,0,0,0,.1.09.11a1.5,1.5,0,0,0,1.12,0,1.46,1.46,0,0,1,.75,0c.4.07.84,0,1.18.28,0,0,.14,0,.16,0,.13-.23.34-.19.55-.19,1.32,0,2.65,0,4,0a3.87,3.87,0,0,1,.81.16Z"/></svg>