<svg id="Capa_1" data-name="Capa 1" xmlns="http://www.w3.org/2000/svg" viewBox="0 0 41 33.09"><defs><style>.cls-1{fill:#efe7b2;}.cls-2{fill:#025bc4;}</style></defs><path class="cls-1" d="M11.15,2.61A7,7,0,0,1,11.82.42s0,0,.06-.06a1.78,1.78,0,0,1-.23.67,7.11,7.11,0,0,0-.37,1.35A.36.36,0,0,1,11.15,2.61Z"/><path class="cls-2" d="M-12.18-15.81a1.9,1.9,0,0,1,1.72.69,9.45,9.45,0,0,0,2.69,2.73c.17.1.51.21.59.13,1-1,2.47-1.07,3.67-1.67.65-.32,1.32-.61,2-.92-.3-.87-1.06-1-1.7-1.25a1,1,0,0,1-.77-1,1.5,1.5,0,0,0-1.12-1.31c-.64-.25-1.33-.37-2-.59a.77.77,0,0,1-.48-.41,10.48,10.48,0,0,1-.32-2.07,1.9,1.9,0,0,1,.44-1.08,2.5,2.5,0,0,0,.32-2.61c-.1-.28-.24-.68-.12-.89a5.41,5.41,0,0,1,1.19-1.66A1.93,1.93,0,0,0-5.23-29c.1-.65.33-1.27.43-1.92a.68.68,0,0,1,.7-.59c.21,0,.59.27.6.43.08,1.19,1.1,1.39,1.81,1.91l.33.2c-.09.66-.35,1-1.06,1.1-1,.1-1,.15-1,1.14a2.5,2.5,0,0,0,1.7,2.35.6.6,0,0,0,.35,0A1.06,1.06,0,0,0-1-24.59c1.18-1,2.3-.54,3.42.12.42.25.52.51.18.91-.16.19-.27.43-.43.62a2.46,2.46,0,0,0-.68,2,2.29,2.29,0,0,1-.92,2.4c-.41.3-.39.58-.12,1.05a7.06,7.06,0,0,0,3.11,3,1.74,1.74,0,0,1,.36.24c.05,0,.06.11.12.25-.46.25-.9.51-1.37.73a.54.54,0,0,0-.31.77c.25.8.47,1.62.7,2.43a1.57,1.57,0,0,1-.23.1c-1.13.16-1.29.38-1.07,1.53A.72.72,0,0,0,2.08-8a7.81,7.81,0,0,0,1,.48c.57.27,1.13.53,1.12,1.33,0,.1.33.3.49.29a7.16,7.16,0,0,0,1.85-.3c.6-.21.81.23,1.11.5.13.13.12.48.1.73A3,3,0,0,1,6.24-2.78a3.37,3.37,0,0,1-2.8.93c-1-.23-1.59.44-2.23,1C.87-.52.56-.12,0-.45A1.3,1.3,0,0,1-.45-.9C-.82-1.59-1.14-2.31-1.52-3c-.09-.16-.37-.37-.49-.33a1,1,0,0,0-.62.49,5.11,5.11,0,0,0-.3,2.43A.67.67,0,0,1-4,.27a2,2,0,0,0-2.1-.1,24.43,24.43,0,0,1-2.28.89c-.16.06-.42.09-.51,0A3.83,3.83,0,0,0-12,.23a2.34,2.34,0,0,1-1.93-.8c-.52-.55-1.1-1-1.66-1.55A1.18,1.18,0,0,1-15.68-4a3.23,3.23,0,0,1,2.36-1c.84-.11.84-.12.66-.94a2,2,0,0,1,.17-1.93.56.56,0,0,0,0-.49,2.93,2.93,0,0,1,0-1.66c.16-1.54.19-3.1.27-4.65C-12.16-15-12.18-15.4-12.18-15.81Z"/><path class="cls-2" d="M19.05,26.29c-.56,0-.82-.27-.59-.9l-.36.39c-.21-.26-.37-.68-.58-.7a3.3,3.3,0,0,0-1.25.24,1,1,0,0,0-.46.43c-.23.38-1,.54-.48,1.25.09.12-.07.56-.23.71-.66.57-1.37,1.1-2.07,1.61a5.17,5.17,0,0,1-.94.45l.06-1.16a12.17,12.17,0,0,1-1.67-1.36c-.16-.17,0-.75.15-1a1.36,1.36,0,0,0,0-2c-.35-.49-.62-1-1-1.66-.48.18-1.33-.34-2,.38a.28.28,0,0,1-.21,0c-.47-.85-1.55-.27-2.15-1-.9-1.06-1.85-1.95-1.58-3.6.11-.69-.3-1.49.15-2.21a1.21,1.21,0,0,1,.49-.51,10.43,10.43,0,0,1,2.86-1c1.12-.08,1.69-1.05,2.86-1.19a5.53,5.53,0,0,0-.57-.74c-.48-.38-.47-.66.08-1a1.31,1.31,0,0,0,.41-.46c.44-.72.89-1.43,1.3-2.16.25-.45.44-.94.65-1.42,0,0,0,0,0-.08.35-.74.68-1.48-.07-2A10,10,0,0,1,13.11,5c.24-.1.69-.16.81,0,.66.72,1.28.36,2,.06s1.54-.57,2.39-.87l-.41-1.13c.29-1,1.27-1.11,2.32-1.27.59,1.13.91,2.66,2.77,2.62l-.14-.23c0-.06-.1-.12-.15-.18s.08-.07.12-.07c.61,0,1.22.06,1.83.07.19,0,.4-.1.57-.05a.81.81,0,0,0,1.13-.81c0-.61.16-1.38-.86-1.45-.2,0-.38-.25-.57-.61L28.69.23l.13.61L27.4,2.5l.08.24,1.17.12A1.78,1.78,0,0,0,30.52,4.5c.26,0,.49-.26.75-.34a1.07,1.07,0,0,1,.66,0c.11.05.11.35.2.7l1.2-.06a7.67,7.67,0,0,1,.82.8,1.48,1.48,0,0,1,.37.84c0,.28,0,.73-.6.62-.07,0-.24.28-.32.45-.23.49-.43,1-.63,1.53a3.64,3.64,0,0,0-.33,1c0,.25.22.5.42.91-.45.7-1.24.16-2,.12l.2-.14.16-.19-1.05-.33.4-.41c-1.48-.09-1.87.49-1.81,2a1.81,1.81,0,0,0-1.66,1.41l2.45-1.51c-.4.64-.59,1.25-1,1.52-.61.42-.44.82-.21,1.35l-.7.11.17.16-1.22,1.58a11.12,11.12,0,0,0,.61,2.27c.17.37.82.5,1.26.74v-.32c.49-.34,1-1,1.48-1,1.1,0,1.34-1,2-1.45.54-.33,1.11-.62,1.67-.92.07,0,.17,0,.22-.09.65-.78,1.29-1.57,2-2.41.2.49,1.21.63.72,1.61-.1.18.09.58.25.81.43.59.38,1.29-.32,1.53s-1,.9-1.36,1.44-.63.85-1.34.65c.09.73-.22.84-.83.72-.94-.19-.87.65-1.1,1.21.8.42,1.17-.38,1.93-.64l1.36,2.42a2.07,2.07,0,0,0-1,3c-1.67-.27-1.73,1.39-2.62,1.83.36.42.64.78,1,1.11a6.64,6.64,0,0,0,.66.49c.12.09.32.21.32.29a.78.78,0,0,1-.26.43,1.76,1.76,0,0,1-1.64.3c-.33-.08-.63-.12-.42.44.15.39-.91,1.54-1.35,1.57a11.31,11.31,0,0,1-1.91.14,4.69,4.69,0,0,1-1.31-.62,1,1,0,0,1-1.42.59c-.23-.1-.28-.59-.46-1l.77.1c.34-.46-.31-1.25.57-1.49a.53.53,0,0,0,0-.44c-.29-.45-.63-.87-.95-1.29l-.54.23-.1-.55A3.72,3.72,0,0,0,23.9,28c-.31,0-.65.08-1,0a6.81,6.81,0,0,1-1-.33,2.06,2.06,0,0,0-.82-.16c-.13,0-.18.39-.31.58-.25.37-.52.72-.9,1.23L18.56,28.1c.35-.2.51-.27.66-.38s.47-.36.7-.54c-.23-.19-.47-.37-.7-.57-.06-.06-.07-.17-.11-.26l1.21-.52-.94-1.48-.33.09Z"/></svg>