<svg id="Capa_1" data-name="Capa 1" xmlns="http://www.w3.org/2000/svg" viewBox="0 0 41 33.09"><defs><style>.cls-1{fill:#efe7b2;}.cls-2{fill:#ede3a4;}.cls-3{fill:#eee5ab;}.cls-4{fill:#025bc4;}</style></defs><path class="cls-1" d="M11.15,2.61A7,7,0,0,1,11.82.42s0,0,.06-.06a1.78,1.78,0,0,1-.23.67,7.11,7.11,0,0,0-.37,1.35A.36.36,0,0,1,11.15,2.61Z"/><path class="cls-2" d="M6,22.41c-.19-.13-.14-.33-.12-.49,0-.31-.13-.39-.37-.4s-.4,0-.6,0a1.35,1.35,0,0,1,1,0s.06.06,0,.1A5,5,0,0,0,6,22.41Z"/><path class="cls-3" d="M16.42,24.9a4.29,4.29,0,0,0-1.88.25,1.09,1.09,0,0,1,.76-.28A2.82,2.82,0,0,1,16.42,24.9Z"/><path class="cls-4" d="M12.52,15.93a1.91,1.91,0,0,1,1.72.69,9.3,9.3,0,0,0,2.68,2.73c.18.1.52.22.59.14,1-1,2.47-1.08,3.68-1.67.65-.33,1.32-.61,2-.92-.31-.88-1.07-1-1.71-1.25a1,1,0,0,1-.77-1.05,1.47,1.47,0,0,0-1.11-1.3c-.64-.26-1.33-.37-2-.59a.75.75,0,0,1-.47-.41,9.79,9.79,0,0,1-.32-2.07,1.81,1.81,0,0,1,.44-1.08,2.54,2.54,0,0,0,.32-2.62c-.1-.28-.24-.67-.13-.88A6,6,0,0,1,18.63,4a2,2,0,0,0,.84-1.24c.1-.65.32-1.28.43-1.93a.67.67,0,0,1,.7-.59c.2,0,.59.27.6.44.08,1.18,1.09,1.39,1.81,1.9a3.53,3.53,0,0,0,.32.21,1.06,1.06,0,0,1-1,1.09c-1,.1-1,.16-1,1.15A2.51,2.51,0,0,0,23,7.36a.53.53,0,0,0,.35,0,.82.82,0,0,0,.33-.18c1.19-1,2.3-.54,3.43.13.42.24.52.51.18.9-.16.19-.27.44-.43.63a2.41,2.41,0,0,0-.68,2,2.29,2.29,0,0,1-.92,2.39c-.42.31-.4.58-.13,1a7.24,7.24,0,0,0,3.11,3,1.81,1.81,0,0,1,.37.24s.05.11.11.24c-.45.25-.9.52-1.36.74a.54.54,0,0,0-.32.76c.26.81.47,1.62.7,2.43-.11.06-.16.1-.22.1-1.13.17-1.3.39-1.08,1.53a.74.74,0,0,0,.32.42,9.55,9.55,0,0,0,1,.48c.58.26,1.14.52,1.13,1.33,0,.1.33.3.49.29a8.12,8.12,0,0,0,1.85-.3c.59-.22.81.23,1.1.5s.13.48.1.72A3,3,0,0,1,30.94,29c-.87.6-1.68,1.2-2.8.94s-1.59.43-2.23,1c-.34.31-.66.72-1.19.39a1.38,1.38,0,0,1-.47-.46c-.38-.69-.69-1.41-1.07-2.09-.09-.17-.37-.37-.5-.33a1,1,0,0,0-.61.49,5,5,0,0,0-.31,2.43.66.66,0,0,1-1.07.68,2,2,0,0,0-2.11-.1c-.74.34-1.51.61-2.28.89-.15.06-.41.08-.5,0A3.83,3.83,0,0,0,12.68,32a2.34,2.34,0,0,1-1.93-.81c-.52-.55-1.11-1-1.67-1.55S8.45,28.44,9,27.74a3.22,3.22,0,0,1,2.35-1c.84-.11.85-.13.67-.94a2,2,0,0,1,.17-1.94.57.57,0,0,0,0-.48,3.06,3.06,0,0,1,0-1.67c.17-1.54.2-3.09.28-4.64C12.54,16.72,12.52,16.34,12.52,15.93Z"/></svg>