<svg id="Capa_1" data-name="Capa 1" xmlns="http://www.w3.org/2000/svg" viewBox="0 0 41 33.09"><defs><style>.cls-1{fill:#b4252d;}</style></defs><path class="cls-1" d="M30.49,21.75h-20a.44.44,0,0,0-.43.44v2.6a.44.44,0,0,0,.44.44h20a.44.44,0,0,0,.43-.44v-2.6A.44.44,0,0,0,30.49,21.75Zm0,5.22h-20a.44.44,0,0,0-.44.43V30a.43.43,0,0,0,.43.43h20a.43.43,0,0,0,.43-.43V27.4A.43.43,0,0,0,30.49,27Zm0-10.43H10.54a.44.44,0,0,0-.43.44v2.6a.44.44,0,0,0,.44.44h20a.44.44,0,0,0,.43-.44V17A.44.44,0,0,0,30.49,16.54ZM36.27,9,21.5,2.85a2.57,2.57,0,0,0-2,0L4.73,9a2.59,2.59,0,0,0-1.6,2.4V30a.43.43,0,0,0,.43.43H7.91A.44.44,0,0,0,8.34,30V16.54a1.76,1.76,0,0,1,1.77-1.74H30.89a1.76,1.76,0,0,1,1.77,1.74V30a.44.44,0,0,0,.43.43h4.35a.43.43,0,0,0,.43-.43V11.4A2.59,2.59,0,0,0,36.27,9Z"/></svg>