<svg id="Capa_1" data-name="Capa 1" xmlns="http://www.w3.org/2000/svg" viewBox="0 0 41 33.09"><defs><style>.cls-1{fill:#efe7b2;}.cls-2{fill:#025bc4;}</style></defs><path class="cls-1" d="M11.15,2.61A7,7,0,0,1,11.82.42s0,0,.06-.06a1.78,1.78,0,0,1-.23.67,7.11,7.11,0,0,0-.37,1.35A.36.36,0,0,1,11.15,2.61Z"/><path class="cls-2" d="M-12.18-15.81a1.9,1.9,0,0,1,1.72.69,9.45,9.45,0,0,0,2.69,2.73c.17.1.51.21.59.13,1-1,2.47-1.07,3.67-1.67.65-.32,1.32-.61,2-.92-.3-.87-1.06-1-1.7-1.25a1,1,0,0,1-.77-1,1.5,1.5,0,0,0-1.12-1.31c-.64-.25-1.33-.37-2-.59a.77.77,0,0,1-.48-.41,10.48,10.48,0,0,1-.32-2.07,1.9,1.9,0,0,1,.44-1.08,2.5,2.5,0,0,0,.32-2.61c-.1-.28-.24-.68-.12-.89a5.41,5.41,0,0,1,1.19-1.66A1.93,1.93,0,0,0-5.23-29c.1-.65.33-1.27.43-1.92a.68.68,0,0,1,.7-.59c.21,0,.59.27.6.43.08,1.19,1.1,1.39,1.81,1.91l.33.2c-.09.66-.35,1-1.06,1.1-1,.1-1,.15-1,1.14a2.5,2.5,0,0,0,1.7,2.35.6.6,0,0,0,.35,0A1.06,1.06,0,0,0-1-24.59c1.18-1,2.3-.54,3.42.12.42.25.52.51.18.91-.16.19-.27.43-.43.62a2.46,2.46,0,0,0-.68,2,2.29,2.29,0,0,1-.92,2.4c-.41.3-.39.58-.12,1.05a7.06,7.06,0,0,0,3.11,3,1.74,1.74,0,0,1,.36.24c.05,0,.06.11.12.25-.46.25-.9.51-1.37.73a.54.54,0,0,0-.31.77c.25.8.47,1.62.7,2.43a1.57,1.57,0,0,1-.23.1c-1.13.16-1.29.38-1.07,1.53A.72.72,0,0,0,2.08-8a7.81,7.81,0,0,0,1,.48c.57.27,1.13.53,1.12,1.33,0,.1.33.3.49.29a7.16,7.16,0,0,0,1.85-.3c.6-.21.81.23,1.11.5.13.13.12.48.1.73A3,3,0,0,1,6.24-2.78a3.37,3.37,0,0,1-2.8.93c-1-.23-1.59.44-2.23,1C.87-.52.56-.12,0-.45A1.3,1.3,0,0,1-.45-.9C-.82-1.59-1.14-2.31-1.52-3c-.09-.16-.37-.37-.49-.33a1,1,0,0,0-.62.49,5.11,5.11,0,0,0-.3,2.43A.67.67,0,0,1-4,.27a2,2,0,0,0-2.1-.1,24.43,24.43,0,0,1-2.28.89c-.16.06-.42.09-.51,0A3.83,3.83,0,0,0-12,.23a2.34,2.34,0,0,1-1.93-.8c-.52-.55-1.1-1-1.66-1.55A1.18,1.18,0,0,1-15.68-4a3.23,3.23,0,0,1,2.36-1c.84-.11.84-.12.66-.94a2,2,0,0,1,.17-1.93.56.56,0,0,0,0-.49,2.93,2.93,0,0,1,0-1.66c.16-1.54.19-3.1.27-4.65C-12.16-15-12.18-15.4-12.18-15.81Z"/><path class="cls-2" d="M31.88,20.31l-2.11-.81c.16-.18.37-.32.38-.47a5.2,5.2,0,0,0-.06-1.58.75.75,0,0,0-.82-.6,10.85,10.85,0,0,1-1.7-.1.87.87,0,0,0-.88.8c-.86.29-.69,1.13-1,1.72-.16-.28-.28-.27-.62,0a6.79,6.79,0,0,0-2.24,3,1,1,0,0,1-.9.63,3.45,3.45,0,0,0-1,.48,2.06,2.06,0,0,0-.41.23c-.13.11-.36.26-.35.37a1.2,1.2,0,0,1-.67,1.2.56.56,0,0,0-.16.18c-.3.47-.58.95-.9,1.47-.26-.18-.37-.31-.5-.32a1.28,1.28,0,0,1-1.17-1.07c-.05-.19-.31-.46-.45-.44-.78.09-1-.49-1.22-1a13.57,13.57,0,0,1-.7-1.77A4.79,4.79,0,0,1,14.22,21a1.1,1.1,0,0,1,.17-.7.7.7,0,0,0,0-1,3.32,3.32,0,0,0-.91-.45l.1-.75a20.81,20.81,0,0,0-1.95-1.15.9.9,0,0,0-1.26.83c-.1.82-.22,1.63-.31,2.32.15.29.34.5.33.69a6.4,6.4,0,0,1-1,2.93c-.12.2-.14.46-.31.62s-.43.53-.41.78c.1,1.23-.61,2.17-1,3.21-.06.15-.33.21-.44.27a6.53,6.53,0,0,0-.51-.62.61.61,0,0,1-.1-.92,2.53,2.53,0,0,0-.24-3.25C5.63,23,4.83,22.2,4,21.44a2.55,2.55,0,0,0-.56-.36c-.4-.23-.77-.42-.78-1,0-.17-.4-.37-.65-.49-.82-.38-1.1-.77-1-1.49a7.25,7.25,0,0,0,0-1.23C1,16.09.85,15.31.74,14.54a.43.43,0,0,0-.16-.24c-.42-.41-.4-.65.09-.92,1.92-1,3.82-2.07,5.75-3.07A10.78,10.78,0,0,1,11.59,8.9c.31,0,.62-.22.93-.21a10.62,10.62,0,0,0,1.33.15,4,4,0,0,0,2.73-1,27.45,27.45,0,0,0,1.64-2.41l2.59-.84c.2.67.4,1.45.66,2.21a2.11,2.11,0,0,0,.49.64,4.48,4.48,0,0,0,.46.42c.6-.55,1.4-.19,2.16-.41a19.16,19.16,0,0,0,.23,3c.23.94,0,2,.65,2.82.32.43.58.62,1,.35l1.18,1.15s.08.07.1.06c.72-.21,1.13.5,1.76.59a4.67,4.67,0,0,1,1.25.65c.32.18.65.34,1.12.59.07-.83.18-1.46.17-2.09a5,5,0,0,1,.53-2.64h.59c.07.39,1.19,1.46,1.76,1.34.83-.16,1.18.43,1.61.82a1.49,1.49,0,0,0,1.74.51,4.23,4.23,0,0,1,1.54.12c.12,0,.23.4.25.62.12,2,.24,3.91.34,5.87s.19,3.72.29,5.61l-5.57.6c.14-.37-.33-.9.43-.95a.24.24,0,0,0,.09-.15c.1-.29-.57-1.07-.86-1.1a4.81,4.81,0,0,1-.71-.29c-.6-.19-1.2-.36-1.81-.51-.42-.1-.35-.37-.33-.69A19.37,19.37,0,0,0,32,21.54,9,9,0,0,0,31.88,20.31Z"/></svg>