<svg id="Capa_1" data-name="Capa 1" xmlns="http://www.w3.org/2000/svg" viewBox="0 0 41 33.09"><defs><style>.cls-1{fill:#efe7b2;}.cls-2{fill:#025bc4;}</style></defs><path class="cls-1" d="M11.15,2.61A7,7,0,0,1,11.82.42s0,0,.06-.06a1.78,1.78,0,0,1-.23.67,7.11,7.11,0,0,0-.37,1.35A.36.36,0,0,1,11.15,2.61Z"/><path class="cls-2" d="M-12.18-15.81a1.9,1.9,0,0,1,1.72.69,9.45,9.45,0,0,0,2.69,2.73c.17.1.51.21.59.13,1-1,2.47-1.07,3.67-1.67.65-.32,1.32-.61,2-.92-.3-.87-1.06-1-1.7-1.25a1,1,0,0,1-.77-1,1.5,1.5,0,0,0-1.12-1.31c-.64-.25-1.33-.37-2-.59a.77.77,0,0,1-.48-.41,10.48,10.48,0,0,1-.32-2.07,1.9,1.9,0,0,1,.44-1.08,2.5,2.5,0,0,0,.32-2.61c-.1-.28-.24-.68-.12-.89a5.41,5.41,0,0,1,1.19-1.66A1.93,1.93,0,0,0-5.23-29c.1-.65.33-1.27.43-1.92a.68.68,0,0,1,.7-.59c.21,0,.59.27.6.43.08,1.19,1.1,1.39,1.81,1.91l.33.2c-.09.66-.35,1-1.06,1.1-1,.1-1,.15-1,1.14a2.5,2.5,0,0,0,1.7,2.35.6.6,0,0,0,.35,0A1.06,1.06,0,0,0-1-24.59c1.18-1,2.3-.54,3.42.12.42.25.52.51.18.91-.16.19-.27.43-.43.62a2.46,2.46,0,0,0-.68,2,2.29,2.29,0,0,1-.92,2.4c-.41.3-.39.58-.12,1.05a7.06,7.06,0,0,0,3.11,3,1.74,1.74,0,0,1,.36.24c.05,0,.06.11.12.25-.46.25-.9.51-1.37.73a.54.54,0,0,0-.31.77c.25.8.47,1.62.7,2.43a1.57,1.57,0,0,1-.23.1c-1.13.16-1.29.38-1.07,1.53A.72.72,0,0,0,2.08-8a7.81,7.81,0,0,0,1,.48c.57.27,1.13.53,1.12,1.33,0,.1.33.3.49.29a7.16,7.16,0,0,0,1.85-.3c.6-.21.81.23,1.11.5.13.13.12.48.1.73A3,3,0,0,1,6.24-2.78a3.37,3.37,0,0,1-2.8.93c-1-.23-1.59.44-2.23,1C.87-.52.56-.12,0-.45A1.3,1.3,0,0,1-.45-.9C-.82-1.59-1.14-2.31-1.52-3c-.09-.16-.37-.37-.49-.33a1,1,0,0,0-.62.49,5.11,5.11,0,0,0-.3,2.43A.67.67,0,0,1-4,.27a2,2,0,0,0-2.1-.1,24.43,24.43,0,0,1-2.28.89c-.16.06-.42.09-.51,0A3.83,3.83,0,0,0-12,.23a2.34,2.34,0,0,1-1.93-.8c-.52-.55-1.1-1-1.66-1.55A1.18,1.18,0,0,1-15.68-4a3.23,3.23,0,0,1,2.36-1c.84-.11.84-.12.66-.94a2,2,0,0,1,.17-1.93.56.56,0,0,0,0-.49,2.93,2.93,0,0,1,0-1.66c.16-1.54.19-3.1.27-4.65C-12.16-15-12.18-15.4-12.18-15.81Z"/><path class="cls-2" d="M19.06,19.21a.9.9,0,0,0,.18.44,13.5,13.5,0,0,0,1.23,1.69,2.4,2.4,0,0,1,.6,1.09A2.45,2.45,0,0,0,23.84,24a4.11,4.11,0,0,1,1.52-.16,2,2,0,0,1,1.26.67.93.93,0,0,0,.66.34,1.44,1.44,0,0,1,1.13.66c.23.33.43.69.65,1a1.56,1.56,0,0,0,2,.76c.24-.06.49-.05.72-.1s.46.12.44.38A2.41,2.41,0,0,0,33.8,30.1a4.59,4.59,0,0,1,.61.35,1.13,1.13,0,0,1,.26,1.68,1.61,1.61,0,0,1-1.48.8c-1.73-.07-3.45-.18-5.17-.33a.79.79,0,0,1-.48-.26,5.42,5.42,0,0,1-1.22-1.8,1.82,1.82,0,0,1-.09-.51c0-.57-.27-.74-.78-.49s-.83.47-1.24.7a2,2,0,0,1-1.12.33,1,1,0,0,1-.83-1.41c.1-.19.24-.37.34-.57a1.15,1.15,0,0,0-1-1.79c-.17,0-.34,0-.52-.06a1.82,1.82,0,0,1-1.63-1.22A2.5,2.5,0,0,0,18,23.94l-.41-.2c-.48-.24-.48-.24-.56.31,0,.18-.06.36-.1.64-.23-.4-.51-.33-.81-.23a1.18,1.18,0,0,1-1-.21,8.18,8.18,0,0,0-1.24-.84c-.12-.05-.07-.15-.05-.23.12-.65.25-1.3.36-2,0-.17.15-.22.28-.26a2.79,2.79,0,0,0,.8-.42c.48-.38.42-.82-.15-1.05-.33-.13-.68-.24-1-.36a.8.8,0,0,1-.57-.89,5,5,0,0,1,1-3.1.64.64,0,0,0-.15-1,3,3,0,0,0-1.76-.55.87.87,0,0,0-.42.14,1.54,1.54,0,0,1-.38.16c-.29.08-.46-.1-.6-.32s.09-.28.18-.38.38-.38.56-.58a.57.57,0,0,0,0-.79,9.94,9.94,0,0,1-.71-1.11,1.88,1.88,0,0,0-1.1-.74.43.43,0,0,0-.39.1,19.3,19.3,0,0,0-1.71,1.26,7.09,7.09,0,0,1-1.34.92.66.66,0,0,1-.38.12l.8-1.64a.65.65,0,0,1,.42-.27,1.14,1.14,0,0,0,.8-.84c0-.09.07-.17.11-.26A1.29,1.29,0,0,0,8,7.53a.91.91,0,0,0-.65-.19.38.38,0,0,1-.44-.29c-.21-.62-.45-1.22-.69-1.83a.32.32,0,0,1,.08-.42,4.14,4.14,0,0,0,.37-.46.43.43,0,0,0,.06-.59.58.58,0,0,1,0-.69A4.07,4.07,0,0,0,7.44.65c0-.4.24-.55.65-.46a1.12,1.12,0,0,1,.26.08,3.55,3.55,0,0,1,2.16,2.51c.32,2.32,1.5,4.3,2.4,6.39a18.06,18.06,0,0,0,3.24,4.76c.64.72,1.2,1.51,1.79,2.26a2.28,2.28,0,0,1,.52,1.27A5.38,5.38,0,0,0,19,19.12C19,19.18,19.05,19.14,19.06,19.21Z"/></svg>