<svg id="Capa_1" data-name="Capa 1" xmlns="http://www.w3.org/2000/svg" viewBox="0 0 41 33.09"><defs><style>.cls-1{fill:#b4252d;}.cls-1,.cls-3,.cls-5,.cls-6,.cls-7{fill-rule:evenodd;}.cls-2,.cls-5{fill:#010101;}.cls-3{fill:#d5a940;}.cls-4{fill:#1d1e1c;}.cls-6{fill:#d8a927;}.cls-7,.cls-8{fill:#221f20;}</style></defs><path class="cls-1" d="M30.56,9.82H10.44v19a2,2,0,0,0,2,2h4.9a3.35,3.35,0,0,1,1.72.25,7.06,7.06,0,0,1,1.22,1.17c.13.13.14.13.19.13h.07s0,0,.16-.13a8.54,8.54,0,0,1,1.09-1.08,3.13,3.13,0,0,1,1.88-.34h4.87a2,2,0,0,0,2-2Z"/><path class="cls-2" d="M20.48,32.41h0c-.07,0-.11,0-.23-.16l-.17-.19a5.48,5.48,0,0,0-1-1,2.46,2.46,0,0,0-1.26-.24H12.45a2.07,2.07,0,0,1-2.09-2.05v-19a.08.08,0,0,1,.08-.07H30.56a.08.08,0,0,1,.08.07v19a2.07,2.07,0,0,1-2.09,2.05H23.31a2.47,2.47,0,0,0-1.46.33,6.26,6.26,0,0,0-.91.88l-.17.19-.05,0c-.08.08-.1.1-.16.11h-.08Zm0-.15h0l.06-.07.05,0,.17-.19a5.63,5.63,0,0,1,.93-.9,2.58,2.58,0,0,1,1.55-.36h5.24a1.93,1.93,0,0,0,1.94-1.91V9.9h-20V28.8a1.93,1.93,0,0,0,1.94,1.91h5.32a2.56,2.56,0,0,1,1.34.27,5.18,5.18,0,0,1,1.06,1l.17.19.12.11h.05Z"/><path class="cls-1" d="M29.93,10.53H11.07V28.32A1.87,1.87,0,0,0,13,30.17h4.59a3.16,3.16,0,0,1,1.61.24A6.16,6.16,0,0,1,20.3,31.5c.12.13.13.13.18.13h.07s0,0,.15-.13a7.48,7.48,0,0,1,1-1,3,3,0,0,1,1.76-.32H28a1.87,1.87,0,0,0,1.89-1.85Z"/><path class="cls-2" d="M20.47,31.7c-.08,0-.11,0-.22-.15l-.17-.18a5,5,0,0,0-1-.9,2.25,2.25,0,0,0-1.18-.23H13a2,2,0,0,1-2-1.93V10.53a.08.08,0,0,1,.08-.07H29.93a.08.08,0,0,1,.08.07V28.32a2,2,0,0,1-2,1.93h-4.9a2.37,2.37,0,0,0-1.38.31,5.73,5.73,0,0,0-.83.81l-.18.19,0,0c-.09.09-.11.11-.17.11h-.08Zm-2.53-1.6a2.38,2.38,0,0,1,1.26.25,5,5,0,0,1,1,.92l.17.18a.56.56,0,0,0,.11.11h.07l.07-.06,0,0,.18-.19a6,6,0,0,1,.85-.83,2.46,2.46,0,0,1,1.47-.33H28a1.81,1.81,0,0,0,1.82-1.78V10.6H11.14V28.32A1.81,1.81,0,0,0,13,30.1h5Z"/><path class="cls-3" d="M15.55,15.74l0,0c.13.34-.49.41-.63.15,0,0,0,0,0,0,0,.17-.13.31-.35.31H14.4L14.31,16c0,.22-.13.45,0,.65s.61.11.59-.05a2.62,2.62,0,0,1,0,.29s.08-.11.09-.14.15-.13.25-.14c.08.3-.16.46.32.45,0-.06-.06-.43,0-.42s.34-.05.4,0,.17,0,.19.23a2.12,2.12,0,0,1-.09.6c.19,0,.37,0,.51-.06a.16.16,0,0,1-.07.07c-.13,0,0,.07-.32.07S16,17.4,16,17.16c-.39,0-.43.73-.24.85a.46.46,0,0,0-.26.56,1.07,1.07,0,0,1,.7-.4.22.22,0,0,1,0,.11l-.21.08-1.5,1.27c0-.13,0-.59-.21-.63s-.34.08-.42-.06-.65-.28-.65.07c-.36,0-.33-.1-.46.28a.57.57,0,0,0-.39.68c0,.18.54.26.65.11s.2-.18.51-.18c-.29,0-.13,0-.34.06,0,0-.42.19-.27.44,0,.06.12.17.19.19s.56,0,.66,0,.47-.14.46.17v0a.21.21,0,0,0,0,.11.53.53,0,0,0,.53,0,1.55,1.55,0,0,1,.07-.52c.12-.22.85-.38,1-.17s.06.32.1.44.37.1.34,0c-.17-.72.8-.29,1.28-.46h0l.07,0s.07,0,.11-.2.12-.33.14-.41A.55.55,0,0,0,18,19.5l-.07.06a2.78,2.78,0,0,0,0,.71.91.91,0,0,0,.67.59c.08.05,1.77.58,2,.64l.41.15h0c-.14.4-1.18.92-1.55,1.15-1.31.82-.4,1.52-.8,2.22s-.22.19-.82.59a.55.55,0,0,0-.13.78.94.94,0,0,1,.4-.61c0,.05-.69.67,0,1,0-.21.13-.78.64-.69a.78.78,0,0,0,.15.24l0,0s-.06-.05-.07,0a1.64,1.64,0,0,1-.22.49v0a1.93,1.93,0,0,1-.51.62c-.52.34-.62.48-1.26.46-.46,0-.45-.76-1.14-.61-.08.24,0,.19.06.36s-.12.22-.08.44.21,0,.21.36v.23a.55.55,0,0,0,.48.06c.56-.17.55-.25,1.09,0,.25.11.7.23.88,0s.22-.12.47-.12.42.06.43-.28a1.34,1.34,0,0,0,0-.4c0,.15.13.08.13.38.26,0,.3-.12.37-.34a1.07,1.07,0,0,0,0-.31h0c.33.14.36.25.36.61.6-.13.44-1,.27-1.19a1.84,1.84,0,0,1,.26.68c.23-1.06-.54-.76-.54-1.34V26c0-.21-.12-.47.34-.59a3.13,3.13,0,0,0,1.9-1.28l0,0c.13.09.28.15.19.34-.25.49-.18.92.7,1.17.51.65.48.66,1,.64a1,1,0,0,1,1.11.69,2.46,2.46,0,0,1,.14,1.46c-.68-.38-1.2-.35-1.56.07a.66.66,0,0,0,.64.28c-.43.42-.37.68-.24.75a1.52,1.52,0,0,0,1-.29c.15.19.22.31.3.31.52,0,.16-.93.16-.93s.2-.17.21-.2c.26.06.3.26.56.32a.7.7,0,0,0-.16-.7c.21.08.43.06.75-.26-.28-.07-.47-.07-.65-.29a.88.88,0,0,0,.92-.09c-.3-.13-.56-.14-.72-.37.73.2.94,0,.82-.59a.79.79,0,0,1-.8.16c-.77-.27.17-1.26.33-.31.29-.68-.43-.65-.84-.65s-.83.05-1.14,0c-.17-.19-.33-.47-.49-.68s-.08-.22,0-.29a1.85,1.85,0,0,0,.47-1.17c1.23,1.26,3.5,0,2-2.55-1-1.48-.92-3.07.84-3.45-.4-.4-.85-.35-1.31.42l0-.63c0-.79,0-1.58,0-2.37s-.44-.66-.88-.3c0,0-.29.25-.35.26l0,0c-.16,0-.26-.41,0-.49,0,0,.06-.06-.07-.06S25,15,24.8,15c-.49,0,.13-.56-.13-.57s-.2.53-.2.68h0a1.1,1.1,0,0,1-.29-.86,1.34,1.34,0,0,0-.09.89h0a1.19,1.19,0,0,0,.2.32c-.22.2-.06.81.29.94l.07,0c0-.07-.4-.8.21-.92h0c0,.23,0,.93.77.56-.16,0-.39.08-.41-.16-.06-.94.37-.7.32-.29.42,0,.15-.43.17-.69s.29-.15.36,0a6.51,6.51,0,0,1-.18,2.81c-.37-.33-.94-.32-1,.23.41-.27.65-.21.79,0,0,.5-.07.86,0,1.36,0,.72.76,1.47,1.17,2.2.75,2-1.25,2.3-1.89,1.4a11.73,11.73,0,0,0-3-3.38l0-.09s0,0,0,0h0c.22.08.44.15.53-.16a1.24,1.24,0,0,1-.2.06c-.25,0-.22-.44,0-.48,0,0,.32,0,.36,0-.14-.08-.13-.57,0-.56s.39.24.36.06,0-.47-.17-.52a1.54,1.54,0,0,1,.23.55c.16,0,.2-.39.19-.52s-.1-.32-.19-.33,0,0,0,0c.16,0,.38,0,.46-.24,0-.09.07-.26,0-.35a.45.45,0,0,1-.21.36c-.29.09-.32-.25-.21-.4v0c.1-.12.13-.37-.08-.43h0a2.25,2.25,0,0,0-.26,0l0,0,.07-.09c.25-.3-.1-.58-.1-.62,0-.34.51.08.51-.63,0,.22-.41.2-.42.14a.28.28,0,0,1,0-.42c.14-.11.28-.3.19-.48v0l0-.09.91-.57c.71-.46.68.29.49.32,0,0,0,0,0,0a.36.36,0,0,0,.21-.66c-.21-.18-.5,0-.62.05.21-.33.09-.74-.27-.57.24.26.3.43-.3.64l-1.06-.89.2-.23a.31.31,0,0,0,.31.25.34.34,0,0,0,.33-.33.33.33,0,0,0-.12-.24.32.32,0,0,0,.23-.31.32.32,0,0,0-.64-.06.33.33,0,0,0-.28-.15.32.32,0,0,0-.33.32.38.38,0,0,0,.33.32l-.17.24-.79-.46c.06-.46.16-.77.68-.66-.07-.57-.54-.24-.77-.29s-.74-.39-.74.15c1-.16.36.74.23,1,0,.09,0,.11-.08.08s-.27,0-.72.3c-.37,0-.63,0-1,0-.23.22-.15.41,0,.51s.05.44.08.66l.15.44c-.06.14-.11.28-.16.41s0,.26.26.21a2.86,2.86,0,0,0,.95-.27c-.14.1-.33.19-.47.29l.09,0h-.07l0,0s-.06,0-.07.06h0l-.11.2a.82.82,0,0,0-.07.3,4.21,4.21,0,0,0-.51-.23c-.6-.14-.93.34-.28.34a.18.18,0,0,0,.13-.08.71.71,0,0,1-.74.06.71.71,0,0,0-.59-.18c.13,0,.19.15.19.27s-.6.41-.46-.14c.05-.2.17-.22.33-.27a.77.77,0,0,0-.5.14.43.43,0,0,0-.11.41.36.36,0,0,0,.28.33l0,0a.59.59,0,0,0-.42.06s0-.05,0-.05a4,4,0,0,1-2.14-1.19,2.1,2.1,0,0,1-.07-1.55l-.63-.41c0,.1-.16.24-.2.34.17.09.38.16.47.3a.75.75,0,0,0-.51-.25c0,.05-.13.15-.16.2a1.75,1.75,0,0,1,.39.22c0,.08-.1.11-.23,0l-.26.08-.26-.1c0,.12,0,.24,0,.36a.3.3,0,0,0,.3.17.56.56,0,0,0,0,.38l.15.11c.1.23.16.44-.08.54-.06-.19-.43.25-.14.38l.2-.13.79-.14.39.42.43,0,.12,0Zm2.55,3.65h0l-.09.08a.24.24,0,0,0,.06-.08Zm.33-.26Zm1.18,8.4v0s0,0,0,0Z"/><path class="cls-4" d="M25.51,29.6c-.08,0-.14-.08-.24-.2l-.07-.09L25,29.4a1.22,1.22,0,0,1-.8.18h0a.25.25,0,0,1-.12-.17.76.76,0,0,1,.26-.57.65.65,0,0,1-.55-.3l0,0,0,0c.37-.42.9-.46,1.56-.11A2.28,2.28,0,0,0,25.2,27a.93.93,0,0,0-1.06-.67H24c-.35,0-.42-.08-.78-.54l-.08-.11a1.11,1.11,0,0,1-.79-.52.8.8,0,0,1,.07-.71c.06-.12,0-.16-.11-.24h0a3.15,3.15,0,0,1-1.91,1.28c-.33.09-.32.24-.3.43v.45c0,.21.11.28.24.38s.44.31.3,1l-.1.48V27.7a.06.06,0,0,0,0,0,1,1,0,0,1-.09.34.51.51,0,0,1-.36.26l-.07,0v-.07c0-.31,0-.41-.24-.52,0,.06,0,.14,0,.23h0c-.06.21-.12.38-.42.38H19.2v0c0-.05,0-.09,0-.12v.15c0,.27-.13.32-.3.32h-.42a.2.2,0,0,0-.19.11.47.47,0,0,1-.41.19,1.42,1.42,0,0,1-.54-.13,1.27,1.27,0,0,0-.47-.13,1.2,1.2,0,0,0-.35.08l-.24.07a.59.59,0,0,1-.21,0,.67.67,0,0,1-.31-.09l0,0v0a.42.42,0,0,0,0-.16v-.07c0-.21-.05-.22-.1-.24a.13.13,0,0,1-.1-.11.29.29,0,0,1,0-.24.21.21,0,0,0,0-.2.66.66,0,0,0,0-.11c0-.06-.07-.11,0-.27v0h0l.19,0a.72.72,0,0,1,.58.36c.11.14.21.27.38.27a1.38,1.38,0,0,0,1-.32l.2-.13a2,2,0,0,0,.45-.53l.05-.08v0a.91.91,0,0,0,.14-.29l.07-.19,0,0h0a.41.41,0,0,1-.08-.13h-.07c-.34,0-.43.37-.48.65v.06l-.06,0a.52.52,0,0,1-.32-.33h0l-.06-.07a.44.44,0,0,1-.13-.39.63.63,0,0,1,.26-.46,1.64,1.64,0,0,1,.48-.23c.11,0,.14,0,.32-.35a1.14,1.14,0,0,0,.08-.75,1.29,1.29,0,0,1,.74-1.48l.28-.16c.42-.24,1.11-.64,1.24-.94a2,2,0,0,0-.33-.12l-.06,0c-1.71-.54-1.87-.6-1.9-.62a1,1,0,0,1-.7-.62,1.78,1.78,0,0,1,0-.59h0l0,.12-.07.18a.33.33,0,0,1-.11.22h0l0,0h0a1.19,1.19,0,0,1-.36,0h-.51c-.19,0-.3,0-.35.1a.28.28,0,0,0,0,.28.17.17,0,0,1,0,.07.18.18,0,0,1-.15.06.43.43,0,0,1-.27-.11h0a1.2,1.2,0,0,1,0-.2.52.52,0,0,0-.06-.23c0-.05-.12-.08-.25-.08a.94.94,0,0,0-.67.25,1.53,1.53,0,0,0-.06.49v0h0a.36.36,0,0,1-.23.07.67.67,0,0,1-.37-.11h0v0a.62.62,0,0,1,0-.12v0a.28.28,0,0,0,0-.16.12.12,0,0,0-.09,0,.92.92,0,0,0-.26.07,2,2,0,0,1-.52.09c-.11,0-.17,0-.2-.07s-.14-.13-.18-.19h0a.24.24,0,0,1,0-.22h-.06c-.18,0-.44-.07-.48-.23a.63.63,0,0,1,.41-.73c.08-.24.11-.31.24-.31h.21c0-.14.14-.22.31-.22a.56.56,0,0,1,.43.17c0,.05,0,.05.07.05H14a.75.75,0,0,1,.26,0c.19,0,.24.38.25.57l1.42-1.2.19-.08h0a1,1,0,0,0-.62.36l-.06.11,0-.11a.51.51,0,0,1,0-.38.49.49,0,0,1,.19-.21.81.81,0,0,1,0-.58.4.4,0,0,1,.37-.31H16v.05a.48.48,0,0,0,.05.28.81.81,0,0,0,0-.11,1,1,0,0,0,.07-.47.15.15,0,0,0-.1-.14.18.18,0,0,1-.07,0h-.12a.59.59,0,0,0-.2,0v0h0a1,1,0,0,0,0,.33v.1h-.08c-.16,0-.25,0-.3-.08a.21.21,0,0,1,0-.19,1.07,1.07,0,0,0,0-.18l-.11.07-.06,0,0,.06,0,.06-.1,0v-.15a.55.55,0,0,1-.24,0c-.07,0-.28,0-.33-.09a.57.57,0,0,1-.07-.5,1.35,1.35,0,0,0,0-.18v-.16l.08.13s.06.11.09.16a.33.33,0,0,0,.1,0h0a.31.31,0,0,0,.26-.1.16.16,0,0,0,0-.13v0l.09,0h0a.3.3,0,0,0,.28.13.28.28,0,0,0,.24-.09.14.14,0,0,0,0-.14v0h-.09l-.44,0h0c-.12-.14-.24-.27-.37-.4l-.36.06-.39.07-.06,0-.13.09H13.6a.22.22,0,0,1-.13-.27c0-.12.13-.26.24-.26a.08.08,0,0,1,.07,0,.28.28,0,0,0,.09-.1.56.56,0,0,0-.07-.34l-.14-.11h0v0a.56.56,0,0,1-.06-.35.38.38,0,0,1-.29-.19v0h0c0-.06,0-.12,0-.18s0-.12,0-.18v-.07l.07,0,.25.09.1,0,.13,0h0l0,0a.14.14,0,0,0,.1,0h0a2.16,2.16,0,0,0-.34-.18l0,0,0-.05.08-.11a.46.46,0,0,0,.07-.1l0,0h0v0a1.06,1.06,0,0,1,.1-.17.76.76,0,0,0,.11-.16l0,0,.05,0,.24.15.39.26,0,0v0a1.9,1.9,0,0,0,.07,1.5A3.84,3.84,0,0,0,17,15.9H17l.11,0A.37.37,0,0,1,17,15.6a.48.48,0,0,1,.12-.45.81.81,0,0,1,.48-.16h.07l.24,0-.27.08c-.14.05-.22.07-.26.22s0,.21,0,.25a.11.11,0,0,0,.1,0c.11,0,.24-.09.24-.16s0-.21-.12-.21h0v-.11h0a.79.79,0,0,1,.61.18.55.55,0,0,0,.28.08h0a.19.19,0,0,1-.11-.16c0-.13.18-.27.48-.27a.83.83,0,0,1,.22,0,4.61,4.61,0,0,1,.45.2A1.12,1.12,0,0,1,19.6,15a1.23,1.23,0,0,1,.1-.2l0,0h0l0,0h0l-.05,0,.08-.06h0l-.45.08a.23.23,0,0,1-.33-.26h0l.15-.4c0-.14-.09-.28-.14-.42h0c0-.11,0-.22,0-.33s0-.21,0-.31a.35.35,0,0,1-.16-.24.4.4,0,0,1,.16-.34v0h0a3.73,3.73,0,0,1,.5,0l.48,0c.36-.26.59-.36.75-.3,0,0,0,0,0-.05a.41.41,0,0,1,.06-.11c.11-.2.33-.57.23-.73s-.21-.12-.46-.08h-.06v-.06c0-.28.15-.34.28-.34a1.12,1.12,0,0,1,.36.09l.15,0h0a.94.94,0,0,0,.22,0l.23,0c.21,0,.33.12.37.38v.08l-.08,0-.18,0c-.29,0-.38.21-.43.6l.71.42.1-.13a.44.44,0,0,1-.29-.36.38.38,0,0,1,.38-.38.4.4,0,0,1,.26.1.38.38,0,0,1,.34-.21.38.38,0,0,1,.18.71.35.35,0,0,1,.08.22.39.39,0,0,1-.38.38.35.35,0,0,1-.33-.2l-.1.12,1,.84c.25-.09.38-.17.4-.26s0-.15-.15-.28l-.05-.06.06,0a.3.3,0,0,1,.41.09.53.53,0,0,1,0,.43.88.88,0,0,1,.3-.07.37.37,0,0,1,.25.09.44.44,0,0,1,.13.48.38.38,0,0,1-.36.26h0v-.1h0s0,0,.05,0,.08-.1.07-.2a.16.16,0,0,0-.16-.17.72.72,0,0,0-.36.14l-.88.55h0l0,0h0c.11.24-.1.46-.2.54a.2.2,0,0,0-.07.18.19.19,0,0,0,.06.15h0v0H23s.22,0,.22-.13h.1c0,.47-.22.5-.37.52s-.14,0-.14.1l0,0a.46.46,0,0,1,.07.63l0,0h0c.09,0,.12,0,.13,0h0a.26.26,0,0,1,.18.17.45.45,0,0,1-.07.35h0a.29.29,0,0,0,0,.27.14.14,0,0,0,.18,0,.41.41,0,0,0,.18-.31l0-.24.13.21a.58.58,0,0,1,0,.39h0a.36.36,0,0,1-.38.27.63.63,0,0,1,.12.29.77.77,0,0,1-.12.52.14.14,0,0,1-.12.06h0a.1.1,0,0,1-.08,0,.69.69,0,0,1-.25-.09s0,0-.06,0a.35.35,0,0,0,0,.22.39.39,0,0,0,.07.24l.21.11-.24,0h-.34c-.09,0-.13.14-.12.24a.13.13,0,0,0,.12.14l.13,0,.07,0h0l.05,0v0q-.07.27-.3.27a1,1,0,0,1-.28-.06v0a11.85,11.85,0,0,1,3,3.38,1.17,1.17,0,0,0,1,.47,1,1,0,0,0,.81-.39,1.48,1.48,0,0,0,0-1.43c-.12-.22-.28-.44-.43-.66a3.33,3.33,0,0,1-.74-1.56,5,5,0,0,1,0-.68,2.89,2.89,0,0,0,0-.66.29.29,0,0,0-.27-.18.88.88,0,0,0-.43.17l-.09.06v-.11a.53.53,0,0,1,.55-.49.81.81,0,0,1,.5.18,6.32,6.32,0,0,0,.16-2.7.09.09,0,0,0-.07,0,.28.28,0,0,0-.18.08,1,1,0,0,0,0,.22c0,.16.06.32,0,.41a.3.3,0,0,1-.25.09h0v-.05a.35.35,0,0,0-.06-.28s-.05,0-.07,0-.1.14-.07.58c0,.08,0,.11.13.11h.23l.16,0-.15.08a1,1,0,0,1-.39.11c-.4,0-.43-.47-.45-.67a.32.32,0,0,0-.22.14c-.1.17,0,.44.05.58s0,.13,0,.16v0h0l-.09,0h0a.76.76,0,0,1-.41-.55.56.56,0,0,1,.07-.44l0,0a.93.93,0,0,1-.15-.26h0a1.2,1.2,0,0,1,0-.76l0-.11a.42.42,0,0,1,0-.06l.1,0v.05a1.25,1.25,0,0,0,.2.68,1,1,0,0,1,.12-.57.19.19,0,0,1,.14-.05h0a.1.1,0,0,1,.1.05c0,.06,0,.14-.05.24s-.1.19-.07.23.07,0,.14,0h0c.07,0,.09-.12.12-.27s0-.3.18-.3.14,0,.14.07a.08.08,0,0,1,0,.09.18.18,0,0,0-.11.2.23.23,0,0,0,.1.18v0h0l.2-.15.13-.11a1.11,1.11,0,0,1,.61-.31c.22,0,.35.22.36.66s0,1,0,1.54v.83l0,.44a1,1,0,0,1,.75-.53.8.8,0,0,1,.54.26l.06.07-.09,0a1.7,1.7,0,0,0-1.32,1A2.64,2.64,0,0,0,27,21a2.32,2.32,0,0,1,.28,2.42,1.41,1.41,0,0,1-1.23.7A1.58,1.58,0,0,1,25,23.66a1.87,1.87,0,0,1-.48,1.08c0,.05-.07.11,0,.22l.21.3a3.52,3.52,0,0,0,.27.37l.53,0a4,4,0,0,1,.58,0h.1c.32,0,.66,0,.8.22a.49.49,0,0,1,0,.5l-.07.16,0-.17c0-.23-.13-.36-.25-.36a.31.31,0,0,0-.27.27c0,.09,0,.25.26.35a.67.67,0,0,0,.24,0,.85.85,0,0,0,.51-.2l.07,0,0,.08a.71.71,0,0,1-.07.59.46.46,0,0,1-.37.13l-.28,0a1.19,1.19,0,0,0,.32.14l.26.09.1,0-.09.05a1,1,0,0,1-.7.17,1,1,0,0,0,.26.08l.15,0,.09,0-.06.06a.9.9,0,0,1-.59.31h0a.85.85,0,0,1,.07.63l0,0h0a.62.62,0,0,1-.3-.17.74.74,0,0,0-.23-.14l-.06.05s-.1.06-.11.09.21.6.05.84a.31.31,0,0,1-.27.14Zm-.28-.42,0,0a1.47,1.47,0,0,0,.1.13c.06.08.12.16.15.16v0a.26.26,0,0,0,.18-.09c.12-.19,0-.62-.07-.77h0c0-.07.09-.13.16-.18l.05,0v0h0a.76.76,0,0,1,.3.17.64.64,0,0,0,.22.14.67.67,0,0,0-.16-.6L26,27.87l.35.12a.46.46,0,0,0,.19,0,.68.68,0,0,0,.44-.22h-.05a.86.86,0,0,1-.54-.28l-.13-.17.2.09a.78.78,0,0,0,.78,0L27,27.35a.89.89,0,0,1-.49-.29l-.08-.12.14,0q.57.15.72,0a.52.52,0,0,0,.06-.42.82.82,0,0,1-.79.12.42.42,0,0,1-.33-.46.44.44,0,0,1,.38-.36c.07,0,.22,0,.31.27a.28.28,0,0,0,0-.23c-.12-.18-.51-.18-.72-.18H26l-.49,0c-.2,0-.41,0-.57,0h0a4.1,4.1,0,0,1-.29-.4L24.42,25a.26.26,0,0,1,0-.36,1.76,1.76,0,0,0,.46-1.13v-.12l.08.09A1.52,1.52,0,0,0,26,24a1.31,1.31,0,0,0,1.14-.65A2.22,2.22,0,0,0,26.89,21a2.76,2.76,0,0,1-.53-2.51,1.77,1.77,0,0,1,1.3-1,.61.61,0,0,0-.39-.17c-.25,0-.51.22-.77.65l-.11.18.05-.84c0-.27,0-.55,0-.83,0-.5,0-1,0-1.54s-.09-.55-.25-.55a1,1,0,0,0-.55.29h0l-.1.09-.22.16a.1.1,0,0,1-.08,0h0c-.09,0-.15-.1-.19-.19,0,.11-.07.21-.19.21a.25.25,0,0,1-.23-.09c-.06-.1,0-.22.06-.34a.53.53,0,0,0,.06-.14h0l-.06,0c-.1.1-.09.42-.09.56v.05a.06.06,0,0,1,0,.06h-.06a1,1,0,0,1-.3-.59.93.93,0,0,0,0,.55h0a.59.59,0,0,0,.14.23.35.35,0,0,0,.06.09l0,0,0,0a.38.38,0,0,0-.07.38.62.62,0,0,0,.32.46v0a.86.86,0,0,1,0-.67.46.46,0,0,1,.32-.2l.09,0v.12c0,.3.07.57.34.57h.07a.2.2,0,0,1-.16-.2,1,1,0,0,1,.1-.66.15.15,0,0,1,.11,0,.17.17,0,0,1,.12.06.42.42,0,0,1,.09.3.16.16,0,0,0,.11,0c.05-.06,0-.2,0-.33a2.66,2.66,0,0,1,0-.28v0h0a.45.45,0,0,1,.27-.12.2.2,0,0,1,.17.09h0A6.47,6.47,0,0,1,26,17.71l0,.08-.06-.05a.79.79,0,0,0-.5-.21.41.41,0,0,0-.42.29q.53-.29.75.12h0a5,5,0,0,1,0,.68,3.05,3.05,0,0,0,0,.68,3.19,3.19,0,0,0,.72,1.5c.15.22.31.45.43.67h0a1.58,1.58,0,0,1,0,1.53,1.11,1.11,0,0,1-.9.43A1.29,1.29,0,0,1,24.89,23h0a11.55,11.55,0,0,0-2.95-3.36h0l0-.13v0l0,0v-.05l.1,0a1,1,0,0,0,.26.06.19.19,0,0,0,.16-.09l-.11,0a.24.24,0,0,1-.23-.23.32.32,0,0,1,.21-.35h.26a.71.71,0,0,1,0-.43c0-.1.08-.12.12-.12h0l.1,0a.56.56,0,0,0,.2.09V18.3c0-.07,0-.18-.05-.27a1.11,1.11,0,0,0-.12-.18l-.11-.15.18.07A.35.35,0,0,1,23,18h0l.06.17,0,.13h0a.77.77,0,0,0,.1-.44c0-.08-.1-.28-.15-.28h0v0h0v-.07h0v0h.13c.14,0,.27,0,.32-.2h0v0a.39.39,0,0,1-.14.12.24.24,0,0,1-.31-.11.36.36,0,0,1,0-.37v0a.28.28,0,0,0,.06-.25.16.16,0,0,0-.11-.1H22.5l.29-.11.06-.08a.37.37,0,0,0-.06-.51s-.05-.06-.05-.08c0-.18.14-.2.24-.22a.24.24,0,0,0,.26-.22.45.45,0,0,1-.2,0c-.06,0-.15,0-.19,0a.35.35,0,0,1-.1-.17.31.31,0,0,1,.1-.33c.08-.07.26-.25.18-.42v0l0,0v-.09l.93-.58a.77.77,0,0,1,.42-.16.27.27,0,0,1,.27.26.88.88,0,0,1,0,.17.3.3,0,0,0,.09-.13.35.35,0,0,0-.1-.38.28.28,0,0,0-.18-.06.7.7,0,0,0-.29.08l-.1,0-.13,0,.07-.11a.48.48,0,0,0,.06-.45.17.17,0,0,0-.2-.07.4.4,0,0,1,.13.32c0,.13-.19.24-.51.35h0l-1.11-.94.29-.35,0,.1a.26.26,0,0,0,.26.21.29.29,0,0,0,.28-.28.26.26,0,0,0-.1-.2L23,12l.09,0a.28.28,0,1,0-.35-.31l0,.14-.07-.12a.28.28,0,0,0-.23-.13.27.27,0,0,0-.27.27.33.33,0,0,0,.27.27h.1l-.26.36-.85-.51v0c.05-.37.13-.72.54-.72h.13c0-.2-.15-.23-.25-.23l-.21,0a.74.74,0,0,1-.25,0,.49.49,0,0,1-.18-.05,1,1,0,0,0-.33-.09c-.08,0-.16,0-.17.18.26,0,.43,0,.5.13s-.09.61-.23.84a.44.44,0,0,1-.06.1s0,.05,0,.06,0,.06-.06.06h-.12a1.23,1.23,0,0,0-.61.3h0a3.86,3.86,0,0,1-.5,0,3.54,3.54,0,0,0-.47,0,.31.31,0,0,0-.12.24.27.27,0,0,0,.14.18h0v0c0,.11,0,.23,0,.34s0,.21,0,.32l.15.44h0v0l-.15.41a.14.14,0,0,0,0,.12s.09,0,.18,0a2.67,2.67,0,0,0,.93-.26l.06.09-.24.14-.14.08.23.07-.31,0,0,0-.05,0h0v0h0c0,.06-.08.14-.09.17a.77.77,0,0,0-.07.28v.11l-.08-.07s-.42-.2-.49-.22a.71.71,0,0,0-.2,0c-.25,0-.37.11-.37.16s0,0,.05.06a.56.56,0,0,0,.25,0s.07,0,.09-.06l.08.06c-.07.12-.29.16-.44.16a.65.65,0,0,1-.37-.09.66.66,0,0,0-.38-.16.37.37,0,0,1,.06.21c0,.14-.19.26-.35.26a.21.21,0,0,1-.18-.07.38.38,0,0,1,0-.34.34.34,0,0,1,.08-.17l-.17.09a.41.41,0,0,0-.09.37.33.33,0,0,0,.25.28h0l.23,0-.22.07h-.23a.48.48,0,0,0-.18.06l-.11.07,0-.13h0a4.07,4.07,0,0,1-2.09-1.2h0a1.64,1.64,0,0,1-.18-1.06l-.25-.24a.73.73,0,0,0-.45-.24.21.21,0,0,1-.06.08.1.1,0,0,1,0,0,2.3,2.3,0,0,1,.35.2l0,0,0,0s-.06.1-.15.1a.24.24,0,0,1-.14-.06l-.11,0-.12,0h0l-.2-.07v.11s0,.1,0,.16a.27.27,0,0,0,.25.13h.06v.06a.51.51,0,0,0,0,.34l.14.1h0a.59.59,0,0,1,.07.44.3.3,0,0,1-.18.17l0,0,0-.05h0s-.12.08-.14.17,0,.11,0,.14l.1-.06.07,0h0l.41-.07.38-.07h0l0,0c.13.13.25.27.37.4h.41l.06,0h.1v0l0,0a.27.27,0,0,1,0,.24.43.43,0,0,1-.33.14A.43.43,0,0,1,15,16a.22.22,0,0,1-.05.08.43.43,0,0,1-.34.14h-.21v0c0,.16-.06.3,0,.42h0a.38.38,0,0,0,.24.05c.15,0,.23,0,.24-.06H15v.11h0l0,0a.51.51,0,0,1,.21-.1h.05v.05a.58.58,0,0,1,0,.26c0,.06,0,.1,0,.12a.36.36,0,0,0,.19,0c0-.2,0-.34,0-.39l0,0a.53.53,0,0,1,.28,0h.19v0h0a.24.24,0,0,1,.16.23,1.15,1.15,0,0,1-.07.52v0h.15a1.11,1.11,0,0,0,.28,0l.13,0-.06.11a.3.3,0,0,1-.09.1h0l-.07,0s-.07,0-.27,0-.33-.19-.34-.37a.31.31,0,0,0-.2.23c-.07.22,0,.47.05.52l.09.06-.1,0a.37.37,0,0,0-.2.19.45.45,0,0,0,0,.19,1.19,1.19,0,0,1,.67-.32h0v0a.19.19,0,0,1,0,.13v0l-.24.1-1.57,1.34v-.12c0-.22-.06-.55-.17-.58a.81.81,0,0,0-.22,0h-.08a.18.18,0,0,1-.16-.09.45.45,0,0,0-.34-.13c-.14,0-.21.06-.21.17v0h-.31c-.05,0-.06,0-.15.25v0h0a.54.54,0,0,0-.36.63c0,.08.19.15.37.15a.26.26,0,0,0,.14,0,.92.92,0,0,1,.19-.13l0,0h0l.07,0h0a.28.28,0,0,1,.15,0h.1V20a.6.6,0,0,0-.23,0h0l-.07.05-.16.09,0,.05c-.07.07-.08.13,0,.2h0c0,.05.1.15.16.16h0v0s0,0,.1,0a2.05,2.05,0,0,0,.48-.09.87.87,0,0,1,.3-.07.21.21,0,0,1,.16.06.32.32,0,0,1,.07.23v.11a.55.55,0,0,0,.28.07l.15,0a1.43,1.43,0,0,1,.07-.52,1,1,0,0,1,.76-.3.4.4,0,0,1,.34.12.64.64,0,0,1,.07.28.65.65,0,0,0,0,.16.3.3,0,0,0,.19.08h.05a.45.45,0,0,1,0-.37.56.56,0,0,1,.44-.13h.51a1,1,0,0,0,.33,0h0l.06,0h0s.05,0,.08-.16,0-.11.07-.2.06-.17.07-.21v0h0l.14-.07.06.08-.05,0v.13a1.53,1.53,0,0,0,0,.54.87.87,0,0,0,.64.56h0l1.89.61.06,0,.41.15.14.06-.16,0c-.15.34-.83.73-1.29,1l-.27.17a1.17,1.17,0,0,0-.69,1.38,1.25,1.25,0,0,1-.1.82c-.19.33-.24.36-.39.39a1.26,1.26,0,0,0-.45.22.53.53,0,0,0-.21.38.59.59,0,0,0,0,.23A.94.94,0,0,1,18,25.8l.06-.05.3-.28-.22.34,0,.05c-.08.09-.32.37-.27.6a.39.39,0,0,0,.19.24c0-.23.16-.67.57-.67h.15v0s0,.07.14.22l0,0,0,0s-.05.05-.08.05h0l-.05.13a1.17,1.17,0,0,1-.15.31v0l-.05.08a2,2,0,0,1-.48.57l-.2.12a1.41,1.41,0,0,1-1.09.34c-.22,0-.34-.16-.46-.31a.64.64,0,0,0-.5-.32l-.14,0c0,.1,0,.12,0,.16a.48.48,0,0,1,.06.14.29.29,0,0,1,0,.27.23.23,0,0,0,0,.17s0,0,0,0,.17.08.17.34v.2a.46.46,0,0,0,.23.07l.18,0,.23-.08a1.41,1.41,0,0,1,.39-.08,1.27,1.27,0,0,1,.51.14,1.49,1.49,0,0,0,.5.11.36.36,0,0,0,.32-.13.3.3,0,0,1,.28-.16h.42c.12,0,.18,0,.19-.23,0,0,0-.06,0-.08a1.38,1.38,0,0,0,0-.29v0l.1,0v0a.15.15,0,0,0,0,.07.33.33,0,0,1,.09.25c.18,0,.21-.11.27-.3a.77.77,0,0,0,0-.28v-.11l.08,0a.54.54,0,0,1,.4.6.5.5,0,0,0,.23-.2,1,1,0,0,0,0-.74l-.07-.15-.2-.37.27.3a.46.46,0,0,1,.1.18h0c0,.07.07.15.11.24a.59.59,0,0,0-.3-.59.51.51,0,0,1-.28-.46V26s0-.07,0-.11,0-.42.38-.53a3.08,3.08,0,0,0,1.88-1.27h0l.06,0,0,0,.06,0c.11.07.25.16.15.36a.74.74,0,0,0-.08.63,1.07,1.07,0,0,0,.74.47h0l.1.13c.36.45.4.51.7.51h.19A1.06,1.06,0,0,1,25.3,27a2.43,2.43,0,0,1,.14,1.49v.07l-.06,0a1.79,1.79,0,0,0-.83-.26.85.85,0,0,0-.64.29.55.55,0,0,0,.48.23h.22l-.1.09c-.31.32-.32.5-.31.57a.11.11,0,0,0,0,.1,1.13,1.13,0,0,0,.74-.17l.21-.12ZM14,13.11l.07,0a.8.8,0,0,1,.37.27l.17.27c0-.14.05-.29.09-.46L14.33,13l-.19-.12-.08.12Zm5.67,14.43-.1,0s0,0,0,0h0l.1,0h0Zm-1.59-8L18,19.44l.05-.07v-.05l.05,0h0l.16,0Zm.31-.26v-.12c0-.06,0-.07.05-.07h0l0,0a.08.08,0,0,1,0,.08Zm0-.16s0,0,0,0h0Z"/><path class="cls-2" d="M25.51,29.56c-.06,0-.12-.07-.21-.18a.47.47,0,0,0-.09-.12l-.2.11a1.17,1.17,0,0,1-.78.17h0a.21.21,0,0,1-.1-.15c0-.09,0-.29.31-.6h-.05a.63.63,0,0,1-.56-.28h0a.92.92,0,0,1,.72-.34,1.77,1.77,0,0,1,.84.25A2.37,2.37,0,0,0,25.24,27a1,1,0,0,0-1.1-.69H24c-.33,0-.4-.09-.75-.53l-.09-.12c-.42-.12-.68-.28-.78-.51a.78.78,0,0,1,.08-.68c.07-.15,0-.2-.13-.28l-.05,0h0a3.17,3.17,0,0,1-1.91,1.29c-.36.09-.35.27-.33.46,0,0,0,.08,0,.11v.34a.44.44,0,0,0,.25.41c.2.14.42.3.28.93h0a1,1,0,0,0-.09-.36,1,1,0,0,1-.07.64.54.54,0,0,1-.34.25h0v0c0-.34,0-.45-.33-.59a1,1,0,0,1,0,.3c-.07.21-.12.35-.39.35h0c0-.18,0-.22-.07-.26v0a1.61,1.61,0,0,1,0,.22.28.28,0,0,0,0,.09c0,.24-.1.29-.26.29h-.33c-.15,0-.22,0-.32.12a.4.4,0,0,1-.37.17,1.66,1.66,0,0,1-.53-.12,1.39,1.39,0,0,0-.48-.14,1,1,0,0,0-.36.09l-.24.07-.2,0a.58.58,0,0,1-.29-.08h0v-.23c0-.23-.07-.26-.13-.28a.09.09,0,0,1-.08-.08.22.22,0,0,1,.05-.21.24.24,0,0,0,0-.22.32.32,0,0,0,0-.13c0-.05-.06-.09,0-.24h0a.55.55,0,0,1,.18,0,.66.66,0,0,1,.55.34.55.55,0,0,0,.41.29,1.41,1.41,0,0,0,1.06-.33l.19-.13a1.86,1.86,0,0,0,.46-.54l.05-.08v0a1.15,1.15,0,0,0,.15-.3,1.2,1.2,0,0,1,.07-.19h0a.1.1,0,0,1,.07,0h0a.8.8,0,0,1-.14-.22h-.1c-.36,0-.47.39-.51.68v0h0a.49.49,0,0,1-.3-.32.69.69,0,0,1,.18-.52.76.76,0,0,0-.23.45v0l0,0a.43.43,0,0,1-.11-.37.57.57,0,0,1,.24-.43,1.22,1.22,0,0,1,.47-.22c.11,0,.15,0,.34-.37a1.17,1.17,0,0,0,.09-.78,1.25,1.25,0,0,1,.72-1.44l.28-.16c.46-.27,1.15-.66,1.26-1h0l-.36-.14-.06,0c-1.22-.38-1.85-.59-1.9-.61a.94.94,0,0,1-.68-.61,1.46,1.46,0,0,1,0-.57v-.13l0,0-.08.22a.9.9,0,0,0-.06.18c0,.16-.09.19-.11.2h0l-.05,0h0a1.08,1.08,0,0,1-.35.05h-.51c-.21,0-.32,0-.38.1a.33.33,0,0,0,0,.32s0,0,0,0,0,0-.11,0a.38.38,0,0,1-.25-.1h0a.48.48,0,0,1,0-.18.49.49,0,0,0-.07-.25c0-.06-.14-.09-.28-.09a1,1,0,0,0-.7.26,1.75,1.75,0,0,0-.07.51h0a.41.41,0,0,1-.21.05.53.53,0,0,1-.34-.1h0v-.14a.19.19,0,0,0-.05-.18.12.12,0,0,0-.11,0,1.09,1.09,0,0,0-.28.06,1.74,1.74,0,0,1-.5.1c-.1,0-.15,0-.17-.07s-.14-.12-.18-.18h0a.21.21,0,0,1,0-.25l-.13,0c-.19,0-.41-.08-.44-.21a.6.6,0,0,1,.4-.7c.08-.24.1-.29.21-.29h.24c0-.14.11-.22.28-.22a.53.53,0,0,1,.4.16c0,.05.06.07.1.07h.32c.18,0,.21.49.21.61L16,18.35l.21-.08a.19.19,0,0,0,0-.08,1,1,0,0,0-.68.39v0a.44.44,0,0,1,0-.35.43.43,0,0,1,.21-.21.63.63,0,0,1-.06-.57c.06-.19.18-.3.33-.3h0v0c0,.25,0,.36.27.36s.21,0,.24,0l.08,0,0,0-.26,0h-.23a.49.49,0,0,1,0-.12,1.16,1.16,0,0,0,.06-.48.2.2,0,0,0-.12-.18l-.06,0h-.14c-.16,0-.23,0-.23,0v0h0c0,.05,0,.28,0,.36v.06h0c-.15,0-.23,0-.27-.06s0-.1,0-.17a.85.85,0,0,0,0-.22.4.4,0,0,0-.16.08l-.07.05,0,.06a.2.2,0,0,0,0,.08h0v-.22a.45.45,0,0,1-.28.06c-.13,0-.27,0-.3-.08a.52.52,0,0,1-.06-.47l0-.18v0l0,0a1,1,0,0,1,.09.18h.16a.38.38,0,0,0,.29-.11.22.22,0,0,0,.05-.17h0v0h0a.4.4,0,0,0,.59,0,.2.2,0,0,0,0-.17s0,0,0-.05H15c-.13-.13-.26-.27-.38-.41l-.38.07-.4.06-.07.05-.13.09h0a.2.2,0,0,1-.12-.23c0-.12.13-.23.21-.23a.09.09,0,0,1,.06,0A.22.22,0,0,0,13.9,15a.58.58,0,0,0-.07-.39l-.15-.11h0a.62.62,0,0,1-.05-.37.36.36,0,0,1-.3-.18h0a1.09,1.09,0,0,0,0-.18c0-.06,0-.12,0-.18v0h0l.25.1.12,0,.13-.05h0a.24.24,0,0,0,.13.06.1.1,0,0,0,.08-.05,1.63,1.63,0,0,0-.37-.21h0l.08-.11a.46.46,0,0,0,.07-.1h0l.1,0-.07,0h0L14,13l.1-.17v0h0l.24.15.39.26h0a2,2,0,0,0,.08,1.54A3.9,3.9,0,0,0,17,15.93H17a.71.71,0,0,1,.21,0,.36.36,0,0,1-.22-.32.45.45,0,0,1,.11-.42.77.77,0,0,1,.45-.14h.13l-.1,0c-.15,0-.24.07-.29.24a.35.35,0,0,0,0,.28.16.16,0,0,0,.13.06c.13,0,.28-.11.28-.2s-.05-.25-.16-.25h0v0h0a.74.74,0,0,1,.58.17.59.59,0,0,0,.33.08l.2,0a.54.54,0,0,1-.21-.05.14.14,0,0,1-.09-.12c0-.11.18-.23.44-.23l.21,0a3.48,3.48,0,0,1,.5.22.77.77,0,0,1,.07-.29l.1-.19h0l0,0,0,0,.05,0h-.05l0,0,.24-.14,0,0a3.21,3.21,0,0,1-.74.18c-.12,0-.2,0-.24,0a.22.22,0,0,1,0-.19c.06-.14.11-.27.16-.41l-.15-.43c0-.12,0-.23,0-.34s0-.21,0-.32a.32.32,0,0,1-.15-.22.4.4,0,0,1,.14-.31h0l.5,0a3.68,3.68,0,0,0,.49,0,1.38,1.38,0,0,1,.65-.32h.12a.15.15,0,0,1,0-.08.44.44,0,0,0,.06-.1c.13-.22.34-.59.23-.77s-.23-.14-.49-.1h0q0-.3.24-.3a1.13,1.13,0,0,1,.35.09l.16,0h.06l.18,0,.22,0q.28,0,.33.36v0h0l-.19,0c-.32,0-.42.23-.47.66l.76.45.15-.2a.39.39,0,0,1-.31-.34.34.34,0,0,1,.61-.21.34.34,0,1,1,.45.41.33.33,0,0,1,.1.24.35.35,0,0,1-.34.34.32.32,0,0,1-.32-.23l-.16.2,1,.87c.28-.1.42-.19.45-.29s-.06-.21-.16-.32h0c.16-.08.29,0,.36.07a.55.55,0,0,1,0,.48l0,0a.85.85,0,0,1,.32-.09.33.33,0,0,1,.22.08.44.44,0,0,1,.13.45.35.35,0,0,1-.34.23h0v0h0c.07,0,.12-.13.11-.24a.19.19,0,0,0-.2-.2.81.81,0,0,0-.38.14l-.9.56v.09h0c.1.22-.1.42-.2.5a.25.25,0,0,0-.07.27.24.24,0,0,0,.08.13h0s.05,0,.13,0,.26-.05.26-.17h0c0,.43-.19.46-.34.48s-.18,0-.18.15l0,0a.42.42,0,0,1,.07.58l-.06.09h.22a.25.25,0,0,1,.15.15.36.36,0,0,1-.06.31v0a.3.3,0,0,0,0,.3.15.15,0,0,0,.14.09l.08,0c.14,0,.21-.29.21-.34v-.07l0,.06a.56.56,0,0,1,0,.36h0c-.06.23-.23.24-.38.24h-.05a.56.56,0,0,1,.17.33.75.75,0,0,1-.11.5.11.11,0,0,1-.09.05h0a.76.76,0,0,1,0-.11v.06s0,.06,0,.07,0,0-.06,0a.61.61,0,0,1-.23-.09l-.08,0h0s0,0-.05.07,0,.41.08.46l.05,0h-.42c-.11,0-.16.17-.15.29a.16.16,0,0,0,.16.16l.15,0h.06c0,.16-.13.24-.26.24a1,1,0,0,1-.28-.06h0l0,0,0,.08a11.66,11.66,0,0,1,3,3.38,1.24,1.24,0,0,0,1,.48,1,1,0,0,0,.84-.4,1.53,1.53,0,0,0,0-1.47c-.12-.22-.28-.44-.43-.66a3.29,3.29,0,0,1-.73-1.54,3.8,3.8,0,0,1,0-.68,3.7,3.7,0,0,0,0-.67.34.34,0,0,0-.31-.2.94.94,0,0,0-.45.17l0,0v0a.5.5,0,0,1,.51-.47.82.82,0,0,1,.52.21,6.36,6.36,0,0,0,.18-2.77c-.07-.09-.18-.08-.33,0a.77.77,0,0,0,0,.25c0,.15.06.3,0,.38a.25.25,0,0,1-.21.07h0v0a.42.42,0,0,0-.07-.31.09.09,0,0,0-.13,0s-.11.17-.08.61a.15.15,0,0,0,.17.15h.27l0,0a.93.93,0,0,1-.38.11c-.37,0-.4-.43-.41-.64v0h0a.37.37,0,0,0-.27.16c-.11.18,0,.45,0,.61s0,.12,0,.13h0a.07.07,0,0,1-.06,0h0a.7.7,0,0,1-.38-.52.46.46,0,0,1,.08-.43l-.05-.07a.82.82,0,0,1-.15-.24v0a1.19,1.19,0,0,1,0-.73.34.34,0,0,0,0-.12s0,0,0,0h0v0a1.24,1.24,0,0,0,.28.79v0c0-.16,0-.48.11-.6a.16.16,0,0,1,.11,0h0a.09.09,0,0,1,.07,0c0,.05,0,.12-.06.21s-.1.21-.06.27.08.06.17.06h0c.1,0,.13-.15.15-.29s.05-.28.15-.28.1,0,.1,0,0,0,0,.05a.21.21,0,0,0-.14.23.23.23,0,0,0,.15.22l0,0h0a1.45,1.45,0,0,0,.21-.16l.13-.1a1.07,1.07,0,0,1,.59-.31c.2,0,.31.2.32.62s0,1,0,1.54c0,.28,0,.56,0,.83l0,.57c.27-.41.53-.62.8-.62a.73.73,0,0,1,.51.25l0,0h0a1.76,1.76,0,0,0-1.35,1A2.68,2.68,0,0,0,27,21a2.29,2.29,0,0,1,.28,2.39,1.39,1.39,0,0,1-1.2.68,1.55,1.55,0,0,1-1.09-.47,1.88,1.88,0,0,1-.48,1.14c-.05.06-.09.13,0,.27l.21.29a3,3,0,0,0,.28.39H25l.49,0,.58,0h.1c.31,0,.64,0,.77.21a.47.47,0,0,1,0,.46l0,.05v-.05c0-.25-.15-.39-.29-.39a.36.36,0,0,0-.31.3.35.35,0,0,0,.28.39.85.85,0,0,0,.26.05,1,1,0,0,0,.54-.21v0a.67.67,0,0,1-.06.55.4.4,0,0,1-.34.13,1.46,1.46,0,0,1-.41-.07.83.83,0,0,0,.43.24l.27.1h0a1.2,1.2,0,0,1-.55.19,1.09,1.09,0,0,1-.33-.07.89.89,0,0,0,.46.21l.14,0h0l0,0a.87.87,0,0,1-.56.3l-.14,0a.78.78,0,0,1,.12.67h0a.64.64,0,0,1-.29-.17.6.6,0,0,0-.26-.15l-.07.06s-.12.08-.13.12.22.58.05.82a.26.26,0,0,1-.23.12Zm-.29-.34h0l.1.13c.08.1.13.17.18.17v0a.27.27,0,0,0,.21-.1c.16-.24-.06-.8-.06-.8h0c0-.05.08-.1.14-.15l.06,0h0a.67.67,0,0,1,.29.16.49.49,0,0,0,.26.15.68.68,0,0,0-.16-.67L26.19,28l.1,0a.6.6,0,0,0,.72-.24l-.12,0a.79.79,0,0,1-.52-.26l0-.05.05,0a.9.9,0,0,0,.38.1,1.13,1.13,0,0,0,.51-.17L27,27.32a.84.84,0,0,1-.47-.28l0,0h0a1.72,1.72,0,0,0,.44.08.39.39,0,0,0,.32-.12.59.59,0,0,0,0-.5,1,1,0,0,1-.53.2.91.91,0,0,1-.27-.05c-.32-.12-.32-.33-.3-.42a.39.39,0,0,1,.34-.33c.09,0,.24.05.31.36a.42.42,0,0,0,0-.38c-.12-.18-.45-.2-.75-.2H26l-.49,0-.57,0h0a3,3,0,0,1-.29-.39L24.45,25c-.12-.16-.06-.25,0-.31a1.85,1.85,0,0,0,.47-1.16v0l0,0A1.53,1.53,0,0,0,26,24a1.34,1.34,0,0,0,1.17-.67A2.24,2.24,0,0,0,26.92,21a2.74,2.74,0,0,1-.53-2.47,1.77,1.77,0,0,1,1.35-1c-.42-.4-.85-.25-1.27.44l0,.05,0-.69c0-.27,0-.55,0-.83,0-.51,0-1,0-1.54s-.11-.59-.29-.59a1.07,1.07,0,0,0-.57.3h0l-.12.1a.79.79,0,0,1-.22.16.07.07,0,0,1,0,0c-.1,0-.17-.13-.18-.24a.23.23,0,0,1,.16-.27,0,0,0,0,0,0,0s0,0-.07,0h0c-.07,0-.09.12-.12.25s-.05.32-.18.32h0c-.1,0-.17,0-.19-.07s0-.2.06-.3.07-.15,0-.18a.06.06,0,0,0,0,0h0a.12.12,0,0,0-.09,0c-.11.11-.1.43-.1.58v.05h0s0,0,0,0h0a1.2,1.2,0,0,1-.31-.72h0a1.06,1.06,0,0,0,0,.71v0a.75.75,0,0,0,.15.24l.05.08h0a.44.44,0,0,0-.08.41.63.63,0,0,0,.37.49h0a.26.26,0,0,0,0-.1.85.85,0,0,1,0-.63.42.42,0,0,1,.3-.18h0v.07c0,.2,0,.61.38.61a.83.83,0,0,0,.31-.08h-.16c-.09,0-.19,0-.2-.17a1,1,0,0,1,.09-.64.11.11,0,0,1,.17,0,.45.45,0,0,1,.08.32.23.23,0,0,0,.18-.06c.06-.07,0-.21,0-.35a.89.89,0,0,1,0-.27h0c.17-.14.3-.14.37,0h0a6.53,6.53,0,0,1-.18,2.81v0l0,0a.78.78,0,0,0-.52-.22.47.47,0,0,0-.48.41.88.88,0,0,1,.44-.16.38.38,0,0,1,.34.21h0a3.8,3.8,0,0,1,0,.68,3.8,3.8,0,0,0,0,.68,3.23,3.23,0,0,0,.73,1.52c.15.22.31.45.43.67a1.56,1.56,0,0,1,0,1.5,1.06,1.06,0,0,1-.87.41,1.28,1.28,0,0,1-1-.49,11.81,11.81,0,0,0-3-3.38h0l0-.1h0s0,0,0,0v0l.06,0a1,1,0,0,0,.27.06c.11,0,.18-.06.23-.19h0l-.16,0a.19.19,0,0,1-.19-.19.28.28,0,0,1,.18-.32h.32a.6.6,0,0,1-.06-.46c0-.07.05-.09.08-.09h0l.09,0a.85.85,0,0,0,.22.08s0,0,0,0,0,0,0,0v0A1,1,0,0,0,23,18a.59.59,0,0,0-.12-.19l0,0,.05,0c.06,0,.1.09.13.2a1.15,1.15,0,0,1,.06.17c0,.05,0,.11.05.18l.06,0a.75.75,0,0,0,.1-.47c0-.07-.09-.31-.17-.32h.08c.14,0,.3,0,.35-.22h0a.64.64,0,0,0,0-.28.44.44,0,0,1-.22.31.2.2,0,0,1-.26-.08.35.35,0,0,1,0-.34h0a.31.31,0,0,0,.06-.29.17.17,0,0,0-.13-.13h-.35l.11,0,.07-.09a.41.41,0,0,0-.07-.55l0-.06c0-.15.1-.17.2-.18s.29,0,.31-.35a.32.32,0,0,1-.25.1c-.06,0-.14,0-.16-.05s-.07-.08-.09-.15a.28.28,0,0,1,.08-.29c.09-.07.28-.27.19-.47v-.06l0-.05h0l.91-.56a.8.8,0,0,1,.4-.15.22.22,0,0,1,.23.23.27.27,0,0,1-.08.24.29.29,0,0,0,.23-.2.37.37,0,0,0-.12-.41.28.28,0,0,0-.2-.08.88.88,0,0,0-.3.08l-.1,0h0l0,0a.52.52,0,0,0,.06-.49q-.09-.15-.3-.06c.12.12.19.22.16.33s-.18.21-.48.31h0l-1.07-.9.22-.26v0a.3.3,0,0,0,.3.23.31.31,0,0,0,.31-.31.3.3,0,0,0-.11-.23l0,0h0a.31.31,0,1,0-.4-.35v0l0,0a.3.3,0,0,0-.26-.15.31.31,0,0,0-.31.31.36.36,0,0,0,.31.31h0l-.2.27-.8-.48h0c0-.36.12-.69.5-.69l.18,0c0-.27-.18-.31-.3-.31l-.21,0-.19,0h-.06l-.17,0a1.3,1.3,0,0,0-.34-.08c-.14,0-.21.08-.21.25.27,0,.44,0,.51.11s-.1.58-.23.8a.41.41,0,0,0-.06.11.1.1,0,0,0,0,.06s0,0,0,0h-.12a1.35,1.35,0,0,0-.64.31h0a3.73,3.73,0,0,1-.5,0l-.49,0a.34.34,0,0,0-.13.28.28.28,0,0,0,.15.21h0c0,.11,0,.22,0,.33s0,.22,0,.33l.15.44h0c-.05.14-.11.27-.16.41a.19.19,0,0,0,0,.16s.11.05.22,0a3,3,0,0,0,.94-.27l0,0-.24.14-.21.12.06,0,.07,0-.13,0,0,0,0,0,0,0h0a1,1,0,0,0-.1.18.88.88,0,0,0-.07.3v0l0,0s-.42-.2-.51-.23l-.2,0c-.24,0-.41.11-.41.2s0,.07.07.1a.85.85,0,0,0,.27,0s.09,0,.12-.08l0,0a.19.19,0,0,1-.08.07h0a.83.83,0,0,1-.32.06.67.67,0,0,1-.35-.08.65.65,0,0,0-.48-.17.32.32,0,0,1,.1.25c0,.12-.18.23-.31.23a.16.16,0,0,1-.15-.07.35.35,0,0,1,0-.31.3.3,0,0,1,.25-.24.68.68,0,0,0-.4.13.4.4,0,0,0-.1.4.35.35,0,0,0,.27.32h.1l-.07,0h-.12a.58.58,0,0,0-.3.08l0,0v0l0,0a4,4,0,0,1-2.12-1.19h0a2,2,0,0,1-.08-1.54c-.12-.09-.25-.17-.38-.25l-.22-.15A.7.7,0,0,1,14,13l-.09.15.1,0a.83.83,0,0,1,.36.25l.06.1-.09-.08a.7.7,0,0,0-.48-.25l-.08.1a.47.47,0,0,0-.06.09,1.63,1.63,0,0,1,.37.21h0s-.06.08-.12.08a.27.27,0,0,1-.14-.06l-.12,0-.12.05h0l-.24-.1c0,.06,0,.11,0,.16a1.09,1.09,0,0,1,0,.18.32.32,0,0,0,.29.16h0v0a.59.59,0,0,0,0,.36l.15.11h0a.58.58,0,0,1,.08.41.34.34,0,0,1-.16.15h0s0,0,0,0-.15.1-.18.2a.17.17,0,0,0,.09.2l.12-.08.08-.05h0l.4-.07.39-.07h0l.39.42h.55l0,0a.22.22,0,0,1,0,.21.38.38,0,0,1-.3.12.39.39,0,0,1-.33-.15.22.22,0,0,1-.06.14.42.42,0,0,1-.31.12h-.18a.86.86,0,0,0-.07-.14.68.68,0,0,1,0,.14.51.51,0,0,0,0,.45s.14.06.28.06.27,0,.28-.09h0v.24l0,0,0-.06h0s0,0,.07,0a.34.34,0,0,1,.19-.09h0v0a.7.7,0,0,1,0,.24c0,.07,0,.12,0,.15a.42.42,0,0,0,.25.05h0v0a.74.74,0,0,1,0-.38h0s.11,0,.26,0H16s0,0,0,0a.2.2,0,0,1,.13.19,1.21,1.21,0,0,1-.06.5.23.23,0,0,0,0,.09h.2l.29,0,0,0,0,0a.16.16,0,0,1-.07.07h0l-.08,0s-.06,0-.25,0-.3-.14-.3-.38c-.17,0-.25.18-.28.27s0,.49.07.56l0,0h0a.33.33,0,0,0-.22.21.43.43,0,0,0-.05.29,1.15,1.15,0,0,1,.7-.37h0a.36.36,0,0,1,0,.11h0l-.23.08-1.52,1.29v0c0-.16,0-.58-.19-.61h-.31c-.06,0-.09,0-.13-.08a.47.47,0,0,0-.37-.15c-.09,0-.25,0-.25.21h-.27c-.08,0-.1,0-.18.28h0a.57.57,0,0,0-.39.66c0,.11.23.19.41.19a.43.43,0,0,0,.17,0A1,1,0,0,1,13.1,20l0,0h0l.08,0h0a.27.27,0,0,1,.13,0h.1v0a.62.62,0,0,0-.24,0h0l-.08.05-.16.1-.05,0a.17.17,0,0,0,0,.25h0c0,.06.11.16.18.18h0s.08.05.14.05a2.16,2.16,0,0,0,.49-.09.82.82,0,0,1,.29-.07.17.17,0,0,1,.14.05.24.24,0,0,1,0,.2v.13a.55.55,0,0,0,.32.09.4.4,0,0,0,.18,0,1.72,1.72,0,0,1,.08-.52,1,1,0,0,1,.72-.28.42.42,0,0,1,.31.1.57.57,0,0,1,.07.27.47.47,0,0,0,0,.17.37.37,0,0,0,.22.09.14.14,0,0,0,.09,0v0a.37.37,0,0,1,0-.34.52.52,0,0,1,.41-.12h.51a1,1,0,0,0,.34-.05h0l.06,0h0s.07,0,.1-.19,0-.1.06-.18.07-.18.08-.22h0l.14-.08,0,0-.07.06v.14a1.6,1.6,0,0,0,0,.55.92.92,0,0,0,.67.59s.31.12,1.9.61l.05,0,.41.16h0l-.07,0c-.12.33-.81.73-1.27,1l-.28.16a1.22,1.22,0,0,0-.71,1.42,1.25,1.25,0,0,1-.09.8c-.2.34-.24.35-.37.38a1.27,1.27,0,0,0-.46.22.52.52,0,0,0-.22.4.44.44,0,0,0,.08.33.86.86,0,0,1,.34-.54l.06,0,.09-.08-.07.09s0,0,0,0-.33.39-.28.64a.45.45,0,0,0,.26.29c0-.2.12-.69.54-.69h.12a.9.9,0,0,0,.15.23h0l-.05,0h0a.09.09,0,0,0-.05,0,1.2,1.2,0,0,0-.06.17,1.17,1.17,0,0,1-.15.31h0l-.05.08a1.65,1.65,0,0,1-.46.55l-.2.13a1.41,1.41,0,0,1-1.07.34c-.2,0-.31-.15-.43-.3a.67.67,0,0,0-.53-.33h-.17c-.05.14,0,.17,0,.22a.26.26,0,0,1,.06.13.28.28,0,0,1,0,.24.29.29,0,0,0,0,.2s0,0,.07.06.14.05.14.3v.23a.63.63,0,0,0,.27.07l.19,0,.24-.07a1,1,0,0,1,.37-.09,1.37,1.37,0,0,1,.49.14,1.6,1.6,0,0,0,.52.12.39.39,0,0,0,.35-.15c.1-.15.19-.15.34-.14h.33c.13,0,.22,0,.23-.27a.25.25,0,0,1,0-.08,1.51,1.51,0,0,0,0-.3h0v0a.16.16,0,0,0,.05.08.36.36,0,0,1,.07.26c.24,0,.28-.12.35-.33a1.43,1.43,0,0,0,0-.3h0v0h0c.34.14.38.26.38.61a.53.53,0,0,0,.3-.23,1,1,0,0,0,0-.77c0-.06-.06-.11-.08-.16l-.06-.11.08.08a.74.74,0,0,1,.09.18c.05.11.05-.26-.14-.4a.48.48,0,0,1-.26-.43V26s0-.07,0-.11,0-.39.35-.49a3.16,3.16,0,0,0,1.9-1.28l0,0h0l.06,0c.11.07.22.14.13.32a.74.74,0,0,0-.07.65,1.07,1.07,0,0,0,.76.49h0l.1.12c.35.45.4.52.72.52h.19a1,1,0,0,1,1.13.71,2.5,2.5,0,0,1,.14,1.46v0h0a1.79,1.79,0,0,0-.84-.26.9.9,0,0,0-.69.32.62.62,0,0,0,.53.27h.13l0,0c-.32.31-.34.51-.33.6a.15.15,0,0,0,.08.12,1.15,1.15,0,0,0,.77-.17l.21-.11ZM17,16h0Zm2.65,11.57h0s0,0,0,0h0v0Zm-1.58-8,0,0a.22.22,0,0,0,0-.08h.1Zm.36-.32v0s0,0,0,0h0s0,0,0,0Z"/><path class="cls-3" d="M17,4.43a.6.6,0,0,0,.62-.58A.6.6,0,0,0,17,3.27a.58.58,0,1,0,0,1.16Z"/><path class="cls-2" d="M17,4.47a.64.64,0,0,1-.66-.62.66.66,0,1,1,.66.62Zm0-1.16a.57.57,0,0,0-.59.54.57.57,0,0,0,.59.54.56.56,0,0,0,.58-.54A.56.56,0,0,0,17,3.31Z"/><path class="cls-2" d="M14.59,5.18V5.1c.6-.09,1-.25,1.11-.49a.63.63,0,0,0,0-.59.75.75,0,0,0-.53-.38A1.67,1.67,0,0,0,14,4.25h0l0,0a1.44,1.44,0,0,0-2-.83l0-.07a1.5,1.5,0,0,1,2,.82,1.66,1.66,0,0,1,1.2-.59.83.83,0,0,1,.59.42h0a.74.74,0,0,1,0,.64A1.62,1.62,0,0,1,14.59,5.18Z"/><path class="cls-2" d="M15.4,6.3a1.93,1.93,0,0,1-1.28-.54l.05,0c1,.84,2,.65,3.23-.56,0,0,0,0,.05,0A2.05,2.05,0,0,0,20.64,5l.05,0a2.1,2.1,0,0,1-3.26.21A3.05,3.05,0,0,1,15.4,6.3Z"/><path class="cls-3" d="M24.26,4.43a.6.6,0,0,0,.62-.58.62.62,0,0,0-1.24,0,.6.6,0,0,0,.62.58Z"/><path class="cls-2" d="M24.26,4.47a.65.65,0,0,1-.66-.62.66.66,0,0,1,1.32,0A.65.65,0,0,1,24.26,4.47Zm0-1.16a.56.56,0,0,0-.58.54.58.58,0,0,0,1.16,0A.56.56,0,0,0,24.26,3.31Z"/><path class="cls-5" d="M20.66,2.92c-.36,0-.65.22-.65.49s.29.49.65.49.65-.22.65-.49S21,2.92,20.66,2.92Zm0,.9c-.32,0-.57-.18-.57-.41s.25-.41.57-.41.57.18.57.41S21,3.82,20.66,3.82Z"/><path class="cls-3" d="M29.9,3.08c-.94-.27-1.7-.48-2.5.61-.69-.53-1.68-.94-2.31.1s.21,1.74,1.33,2l.07,0a1.74,1.74,0,0,1-2.2-1.41L24,4.39c-1,1.31-2.78,1.34-2.89-.19a1.59,1.59,0,0,0,.8.21h0a1.24,1.24,0,0,0,1.36-1.08A1.24,1.24,0,0,0,22,2.26h-.08A.9.9,0,0,0,22,1.81,1.24,1.24,0,0,0,20.68.73h-.07a1.23,1.23,0,0,0-1.35,1.08.89.89,0,0,0,.12.45H19.3A1.23,1.23,0,0,0,18,3.33,1.23,1.23,0,0,0,19.3,4.41h.05a1.58,1.58,0,0,0,.79-.21c-.11,1.53-1.9,1.5-2.88.19L17,4.44a1.73,1.73,0,0,1-2.19,1.41l.06,0c1.12-.3,1.93-.88,1.33-2s-1.61-.63-2.31-.1c-.8-1.09-1.55-.88-2.49-.61a2.24,2.24,0,0,1,1.31,2,1.32,1.32,0,0,1,.82,1.22.91.91,0,0,1,.79,1.12l.51,1.2.45.43a17.14,17.14,0,0,1,5.37-.93A17.07,17.07,0,0,1,26,9.07l.46-.43L27,7.44a.9.9,0,0,1,.78-1.12,1.31,1.31,0,0,1,.83-1.22A2.21,2.21,0,0,1,29.9,3.08ZM16.74,8.39c-.38.09-.74,0-.79-.25s.22-.47.61-.56.74,0,.79.26S17.13,8.31,16.74,8.39Zm3.27-5c0-.27.29-.49.65-.49s.65.22.65.49-.29.49-.65.49S20,3.68,20,3.41Zm.65,4.34c-.37,0-.68-.14-.69-.35a.29.29,0,0,1,.08-.19A.9.9,0,0,1,20.63,7h.06c.34,0,.62.16.63.35S21,7.73,20.66,7.75Zm4.22.36c0,.15-.24.25-.5.25l-.24,0a1,1,0,0,1-.45-.21.35.35,0,0,1-.13-.3c0-.15.24-.25.5-.25l.24,0a.9.9,0,0,1,.54.32A.28.28,0,0,1,24.88,8.11Z"/><path class="cls-2" d="M15.28,9.13l0,0L15,8.9l-.23-.22,0,0-.25-.6-.26-.6v0a.84.84,0,0,0-.74-1s0,0,0,0a1.26,1.26,0,0,0-.79-1.18.05.05,0,0,1,0-.05,2.24,2.24,0,0,0-1.26-2,0,0,0,0,1-.05,0,.07.07,0,0,1,0-.06h0a4.24,4.24,0,0,1,1.11-.21,1.68,1.68,0,0,1,1.4.81,2.3,2.3,0,0,1,1.29-.53,1.2,1.2,0,0,1,1.06.67,1.32,1.32,0,0,1,.12,1.17,2,2,0,0,1-1.32.91l.28,0c.77,0,1.31-.49,1.62-1.44,0,0,0,0,0,0l.14,0,.11,0,.06,0a2.21,2.21,0,0,0,1.68,1,1.06,1.06,0,0,0,1.1-1,1.63,1.63,0,0,1-.73.16H19.3a1.29,1.29,0,0,1-1.41-1.13,1.3,1.3,0,0,1,1.4-1.13.89.89,0,0,1-.09-.39A1.3,1.3,0,0,1,20.61.68h.07a1.3,1.3,0,0,1,1.41,1.13A1.09,1.09,0,0,1,22,2.2,1.29,1.29,0,0,1,23.4,3.33,1.29,1.29,0,0,1,22,4.46h0a1.63,1.63,0,0,1-.73-.16,1,1,0,0,0,1.09,1,2.21,2.21,0,0,0,1.68-1l.06,0,.13,0,.12,0a.05.05,0,0,1,.05,0c.31,1,.84,1.44,1.61,1.44l.29,0a2,2,0,0,1-1.33-.91A1.32,1.32,0,0,1,25,3.76a1.21,1.21,0,0,1,1.06-.67,2.3,2.3,0,0,1,1.29.53,1.68,1.68,0,0,1,1.4-.81A4.31,4.31,0,0,1,29.91,3h0a.05.05,0,0,1,0,.06,0,0,0,0,1-.05,0,2.24,2.24,0,0,0-1.26,2,.05.05,0,0,1,0,.05,1.27,1.27,0,0,0-.79,1.18.07.07,0,0,1,0,0,.83.83,0,0,0-.74,1s0,0,0,0l-.51,1.2v0l-.23.22-.23.21a0,0,0,0,1-.06,0,17.47,17.47,0,0,0-5.35-.93,17.46,17.46,0,0,0-5.34.93S15.29,9.13,15.28,9.13Zm-.41-.52.22.21L15.3,9a17.46,17.46,0,0,1,5.34-.93A17.54,17.54,0,0,1,26,9l.2-.19.22-.21c.17-.39.33-.79.5-1.18a1,1,0,0,1,.79-1.15,1.36,1.36,0,0,1,.82-1.21,2.43,2.43,0,0,1,1.18-2,3.49,3.49,0,0,0-.92-.16,1.61,1.61,0,0,0-1.34.81l0,0h0A2.25,2.25,0,0,0,26.1,3.2a1.12,1.12,0,0,0-1,.61A1.24,1.24,0,0,0,25,4.88a2,2,0,0,0,1.42.9l.06,0s0,0,0,0a0,0,0,0,1,0,.05,1.78,1.78,0,0,1-2.25-1.41l-.1,0-.09,0a2.32,2.32,0,0,1-1.75,1,1.19,1.19,0,0,1-1.22-1.21.05.05,0,0,1,0,0,0,0,0,0,1,.06,0,1.52,1.52,0,0,0,.77.2h0a1.19,1.19,0,0,0,1.3-1,1.19,1.19,0,0,0-1.3-1h-.08s0,0,0,0a.07.07,0,0,1,0,0A.84.84,0,0,0,22,1.81a1.19,1.19,0,0,0-1.3-1h-.07a1.19,1.19,0,0,0-1.3,1,.79.79,0,0,0,.12.42,0,0,0,0,1,0,0,.05.05,0,0,1-.05,0H19.3a1.19,1.19,0,0,0-1.3,1,1.19,1.19,0,0,0,1.3,1h.05a1.51,1.51,0,0,0,.76-.2s.05,0,.06,0a.05.05,0,0,1,0,0A1.18,1.18,0,0,1,19,5.42a2.32,2.32,0,0,1-1.75-1h-.07l-.12,0A1.77,1.77,0,0,1,14.8,5.9a0,0,0,0,1-.05-.05s0,0,0,0l.07,0a2,2,0,0,0,1.41-.9,1.17,1.17,0,0,0-.12-1.07,1.11,1.11,0,0,0-1-.61,2.25,2.25,0,0,0-1.27.54h0l0,0a1.6,1.6,0,0,0-1.34-.81,3.49,3.49,0,0,0-.92.16,2.43,2.43,0,0,1,1.18,2,1.34,1.34,0,0,1,.82,1.21.94.94,0,0,1,.79,1.15c.09.2.17.39.25.59S14.79,8.41,14.87,8.61Z"/><path class="cls-2" d="M26.7,5.18c-.62-.1-1-.27-1.16-.54a.71.71,0,0,1,0-.64h0a.85.85,0,0,1,.59-.42,1.65,1.65,0,0,1,1.2.59,1.5,1.5,0,0,1,2-.82l0,.07c-.82-.34-1.46-.07-2,.83,0,0,0,0,0,0h0a1.67,1.67,0,0,0-1.17-.61.75.75,0,0,0-.53.38.67.67,0,0,0,0,.59,1.55,1.55,0,0,0,1.11.49Z"/><path class="cls-2" d="M25.89,6.3a3,3,0,0,1-2-1.08,2.46,2.46,0,0,1-1.74.67A2.45,2.45,0,0,1,20.6,5l.06,0a2.05,2.05,0,0,0,3.19.19s0,0,0,0c1.21,1.21,2.26,1.4,3.22.56l.05,0A1.91,1.91,0,0,1,25.89,6.3Z"/><path class="cls-2" d="M20.42,15.07a.05.05,0,0,1,0,0,0,0,0,0,1,0,0c0-.09,0-.18.05-.26a1,1,0,0,1-.61,0,.07.07,0,0,1,0-.05.08.08,0,0,1,0,0l-.43.08c-.13,0-.22,0-.27,0a.25.25,0,0,1-.06-.23v0a1.19,1.19,0,0,0,.08-.2,1.07,1.07,0,0,0,.07-.19L19,13.6h0c0-.2-.05-.4-.07-.61v0a.36.36,0,0,1-.16-.24.46.46,0,0,1,.16-.34l0,0,.5,0a3.53,3.53,0,0,0,.48,0,1.24,1.24,0,0,1,.9-.28l0,.11a1.14,1.14,0,0,0-.83.27h0a4,4,0,0,1-.51,0l-.47,0a.33.33,0,0,0-.1.24.2.2,0,0,0,.13.17.08.08,0,0,1,0,0V13c0,.2.05.4.07.6l.15.44v0a1.8,1.8,0,0,0-.08.21l-.08.2a.16.16,0,0,0,0,.13.25.25,0,0,0,.18,0,3.07,3.07,0,0,0,.93-.26.05.05,0,0,1,.08,0,.05.05,0,0,1,0,.07l-.24.14-.13.08a.76.76,0,0,0,.51,0h.06s0,0,0,.06,0,.19-.05.28l.26,0,.29,0c.11-.13.19-.21.27-.29a2,2,0,0,0,.27-.29l.09.07a3,3,0,0,1-.28.3,2.92,2.92,0,0,0-.28.3l0,0-.32,0-.34,0Z"/><path class="cls-2" d="M18.69,20a.21.21,0,0,1-.13-.05,1.06,1.06,0,0,1-.22-.65l-.05,0c-.11.08-.22.11-.3.06a0,0,0,0,1,0,0l0-.06v0s-.07.09-.1.1a.6.6,0,0,1-.52,0,.71.71,0,0,1-.29-.28A.2.2,0,0,1,17,19a.05.05,0,0,1,.05,0,.06.06,0,0,1,.07,0,.22.22,0,0,0,0,.1.41.41,0,0,0,.11.07.31.31,0,0,0,.31,0c.07-.07.07-.2,0-.37a0,0,0,0,1,0-.05s0,0,.06,0,0,0,0,0a.11.11,0,0,0,0-.11.19.19,0,0,0-.15-.05,2.68,2.68,0,0,0-.75.24.16.16,0,0,1-.07.07.08.08,0,0,1-.11,0s0,0,0-.05.05-.07.11-.11,0,0,0,0,0-.21,0-.25a.13.13,0,0,0-.11,0c-.06,0-.46.22-.52.25h0s-.07,0-.08,0a.05.05,0,0,1,0-.08h0a.25.25,0,0,0,.13-.26,1,1,0,0,0-.61.37.09.09,0,0,1-.06,0,.1.1,0,0,1-.05,0,.51.51,0,0,1,0-.38.43.43,0,0,1,.19-.21.76.76,0,0,1,0-.58.4.4,0,0,1,.36-.32.06.06,0,0,1,.06.06c0,.26,0,.32.23.32s.19,0,.21,0a.26.26,0,0,1,.09,0s0,0,.06-.1a.08.08,0,0,1,0,0h0c0-.13,0-.26,0-.39a2.18,2.18,0,0,1,.06-.65.52.52,0,0,1,.43-.33.45.45,0,0,1-.15-.28.48.48,0,0,1,.13-.46.83.83,0,0,1,.55-.15s0,0,0,.05a0,0,0,0,1,0,.06h0c-.14,0-.22.06-.26.21s0,.23,0,.26.11,0,.19,0,.13-.09.13-.13a.29.29,0,0,0-.07-.19l-.05,0h0a.06.06,0,0,1-.06-.05.06.06,0,0,1,.06-.06h0a.78.78,0,0,1,.61.18.51.51,0,0,0,.27.07.18.18,0,0,1-.09-.08.17.17,0,0,1,0-.18A.66.66,0,0,1,19,15c.06,0,.31.13.45.19a.75.75,0,0,1,.07-.23c0-.05.1-.18.11-.2l0,0h0l0,0,0,0,0,0,.07.09,0,0,0,0h0l0,0h0a.8.8,0,0,0-.08.17.67.67,0,0,0-.07.28,0,0,0,0,1,0,.05,0,0,0,0,1-.06,0,4.79,4.79,0,0,0-.49-.21.57.57,0,0,0-.54.09s0,0,0,.06.11.08.29.08h0l.05-.05a.06.06,0,0,1,.08,0,0,0,0,0,1,0,.07.18.18,0,0,1-.09.08h0l-.16.06a.8.8,0,0,1-.55-.08.67.67,0,0,0-.37-.16.43.43,0,0,1,.05.21.28.28,0,0,1-.19.23.33.33,0,0,1-.32,0c-.06,0-.11-.15-.06-.38a1.07,1.07,0,0,1,.07-.15l-.15.08a.42.42,0,0,0-.09.37.33.33,0,0,0,.25.28h0a.07.07,0,0,1,0,0,0,0,0,0,1,0,.06h0c-.11,0-.43,0-.53.26a2.21,2.21,0,0,0-.06.61c0,.14,0,.27,0,.4h0a.08.08,0,0,1,0,.06h0v0a.29.29,0,0,1-.12.17h0a.12.12,0,0,0-.07,0s-.07.05-.27.05-.34-.19-.34-.38a.32.32,0,0,0-.2.23c-.07.22,0,.47,0,.52a.05.05,0,0,1,0,.05.1.1,0,0,1,0,0,.37.37,0,0,0-.2.19.48.48,0,0,0-.05.17,1.24,1.24,0,0,1,.67-.31.05.05,0,0,1,.05,0,.28.28,0,0,1,0,.22l.32-.15a.27.27,0,0,1,.22,0c.08.06.08.19.07.31a3,3,0,0,1,.71-.21.26.26,0,0,1,.24.1.2.2,0,0,1,0,.21.14.14,0,0,1-.09.08c.08.24,0,.36-.05.43a.37.37,0,0,1-.32.08l.07,0a.51.51,0,0,0,.43,0l.08-.12a.05.05,0,0,1,0,0,0,0,0,0,1,.05,0s.07.06.1.14l0,0a.13.13,0,0,0,.11,0,.35.35,0,0,0,.16-.16v0a0,0,0,0,1,.05-.05s.05,0,.06,0a.08.08,0,0,1,0,.07c0,.19,0,.61.19.72a.05.05,0,0,0,.05,0,.28.28,0,0,0,0-.09.41.41,0,0,1,0-.27.31.31,0,0,1,.1,0h.11a.66.66,0,0,1,.42-.5c.13-.06.43-.1.53.06a.45.45,0,0,1,.06.34.14.14,0,0,1-.11.09c-.18,0-.25,0-.29-.08h0c-.05,0-.05.06-.05.08s.08.21.28.21h0a.78.78,0,0,0,.45-.17.26.26,0,0,0,.07-.16.05.05,0,0,1,.05-.05s.05,0,.06,0v0a.57.57,0,0,0,.36.35.61.61,0,0,0,.29.05.39.39,0,0,1-.28-.41.32.32,0,0,1,.26-.29c.13,0,.24,0,.28.1a.21.21,0,0,1,0,.13s0,.06,0,.11a.41.41,0,0,0,.36.09c.09,0,.15-.06.16-.11s0,0,0,0a0,0,0,0,1,0,0h0c.14.05.26.09.34,0a.13.13,0,0,0,.07-.06l-.1,0a.23.23,0,0,1-.23-.23.34.34,0,0,1,.21-.37h.25a.84.84,0,0,1,0-.44c0-.1.09-.11.13-.11l.1,0a.7.7,0,0,0,.2.08h0v-.05a2.33,2.33,0,0,0-.05-.27.59.59,0,0,0-.11-.17,0,0,0,0,1,0-.07.06.06,0,0,1,.07,0A.31.31,0,0,1,23,18a1.27,1.27,0,0,1,.06.18l0,.13h0a.76.76,0,0,0,.09-.44c0-.08-.09-.27-.14-.28h0a0,0,0,0,1,0,0s0,0,0,0,0,0,0,0h.1c.14,0,.26,0,.31-.19v0a.3.3,0,0,1-.14.11.22.22,0,0,1-.28-.07.38.38,0,0,1,0-.42h0a.28.28,0,0,0,.05-.25s-.05-.08-.11-.1h-.25s-.05,0-.05,0a.06.06,0,0,1,0-.07H23a.24.24,0,0,1,.18.17.38.38,0,0,1-.07.35h0a.28.28,0,0,0,0,.29s.08.05.16,0,.18-.25.17-.29a.07.07,0,0,1,0-.06.06.06,0,0,1,.07,0c.07.11,0,.27,0,.38v0a.33.33,0,0,1-.37.27.71.71,0,0,1,.11.29.82.82,0,0,1-.11.52.21.21,0,0,1-.13.07h0c-.07.05-.18,0-.32-.07l-.06,0a.43.43,0,0,0,0,.24c0,.12,0,.2.07.21s0,0,0,.07a.07.07,0,0,1-.06,0,2,2,0,0,0-.34,0c-.08,0-.13.14-.12.25s0,.12.12.12a.38.38,0,0,0,.13,0c.05,0,.07,0,.09,0a.05.05,0,0,1,0,.07.37.37,0,0,1-.16.23.58.58,0,0,1-.43,0,.34.34,0,0,1-.23.13.48.48,0,0,1-.47-.12.21.21,0,0,1-.05-.2.11.11,0,0,0,0-.06c0-.07-.12,0-.15,0s-.18.1-.17.19c0,.24.12.28.22.31s.12,0,.12.12,0,0,0,0a.56.56,0,0,1-.49,0,.68.68,0,0,1-.36-.3l-.06.08a.88.88,0,0,1-.54.2.35.35,0,0,1-.38-.31.18.18,0,0,1,.17-.21h0a.11.11,0,0,1,.08.07s0,0,.15,0,0,0,0,0a.29.29,0,0,0,0-.23c-.06-.09-.28-.08-.39,0a.54.54,0,0,0-.36.45.07.07,0,0,1,0,.05h-.19a.4.4,0,0,0,0,.19.46.46,0,0,1,0,.17s0,0,0,0Zm4.21-3.69-.09-.07c.16-.18.05-.35-.07-.5s0,0,0-.08c0-.19.14-.21.24-.22a.24.24,0,0,0,.26-.21.33.33,0,0,1-.15,0s-.18,0-.24,0a.32.32,0,0,1-.1-.17.31.31,0,0,1,.1-.34c.09-.08.25-.25.17-.42h0v-.05l0-.06a.05.05,0,0,1,0,0l.91-.56c.31-.21.48-.18.57-.12a.34.34,0,0,1,.11.35v0a.27.27,0,0,0,.09-.12.32.32,0,0,0-.11-.37c-.13-.12-.32,0-.46,0l-.1,0a0,0,0,0,1-.06,0,0,0,0,0,1,0-.06.45.45,0,0,0,0-.48.15.15,0,0,0-.17,0,.37.37,0,0,1,.13.32c0,.13-.19.23-.51.34a0,0,0,0,1-.05,0l-1.05-.89s-.12-.17-.14-.18l-.79-.47a.05.05,0,0,1,0-.05c.05-.32.11-.54.27-.65a.56.56,0,0,1,.4-.07.29.29,0,0,0-.1-.18c-.08-.06-.22,0-.35,0a.77.77,0,0,1-.25,0l-.19-.06c-.14,0-.33-.12-.42-.06a.19.19,0,0,0-.07.14c.26,0,.43,0,.53.11s0,.51-.1.76c-.06.1-.17.28-.26.27V12h0a1.06,1.06,0,0,0,.3-.8c-.05-.14-.22-.18-.52-.11h0a.05.05,0,0,1,0,0,.34.34,0,0,1,.12-.3c.15-.09.37,0,.53.05l.15.05h0a.9.9,0,0,0,.22,0,.56.56,0,0,1,.44,0,.44.44,0,0,1,.16.34.08.08,0,0,1,0,0s0,0-.05,0a.49.49,0,0,0-.39,0c-.13.09-.18.28-.22.54l.71.42.24.25,1,.84c.24-.09.38-.18.4-.26s0-.15-.16-.28a.07.07,0,0,1,0-.05s0,0,0,0a.29.29,0,0,1,.37,0,.47.47,0,0,1,0,.48.52.52,0,0,1,.55,0,.46.46,0,0,1,.13.5.39.39,0,0,1-.36.25h0A.06.06,0,0,1,24.3,14a.05.05,0,0,1,.05,0h0a.13.13,0,0,0,.06-.1.23.23,0,0,0-.06-.24c-.09-.06-.25,0-.45.12l-.88.54h0l0,0h0a.48.48,0,0,1-.2.55.2.2,0,0,0-.07.17.22.22,0,0,0,.06.16l0,0a.32.32,0,0,0,.25,0c.06,0,.06-.06.06-.09a.06.06,0,0,1,.12,0c0,.47-.23.5-.38.52s-.13,0-.14.1l0,0A.48.48,0,0,1,22.9,16.34Z"/><path class="cls-2" d="M22.83,12.59a.36.36,0,0,1-.36-.36.25.25,0,0,1,0-.12.35.35,0,0,1-.14,0,.36.36,0,1,1,0-.72.36.36,0,0,1,.26.11.36.36,0,0,1,.34-.22.36.36,0,0,1,.16.68.42.42,0,0,1,.09.24A.37.37,0,0,1,22.83,12.59Zm-.16-.79,0,0,.06.07a0,0,0,0,1,0,0s0,0,0,0a.3.3,0,0,0-.21.28A.29.29,0,1,0,23,12s0,0,0,0l0,0a.28.28,0,0,0,.2-.27.28.28,0,0,0-.28-.29.3.3,0,0,0-.29.24,0,0,0,0,1,0,0l0,0a.27.27,0,0,0-.24-.14.29.29,0,1,0,0,.58.28.28,0,0,0,.28-.24,0,0,0,0,1,0,0Z"/><path class="cls-2" d="M16.07,17.52a.05.05,0,0,1-.06,0s0-.07,0-.13a1.16,1.16,0,0,0,.06-.48.14.14,0,0,0-.1-.14l-.06,0h-.12a.91.91,0,0,0-.2,0l0,0a.78.78,0,0,0,0,.32v0s0,0,0,0a.05.05,0,0,1,0,0h0c-.17,0-.25,0-.3-.07a.28.28,0,0,1,0-.2.48.48,0,0,0,0-.17l-.1.07-.06,0,0,.05a.13.13,0,0,0,0,.07.08.08,0,0,1-.07,0,.06.06,0,0,1,0-.07v-.14a.75.75,0,0,1-.24,0c-.07,0-.28,0-.34-.09a.58.58,0,0,1-.06-.51,1,1,0,0,0,0-.17.08.08,0,0,1,0-.05s0,0,.06,0,.06.11.08.16h.13a.36.36,0,0,0,.26-.1.16.16,0,0,0,0-.13v0a.06.06,0,0,1,0-.06.05.05,0,0,1,.06,0h0v0a.3.3,0,0,0,.28.13.31.31,0,0,0,.24-.09.14.14,0,0,0,0-.14v0H15l0,0-.37-.39-.36.06-.38.06-.05,0-.14.1h-.06a.23.23,0,0,1-.14-.28c0-.12.14-.26.24-.26a.1.1,0,0,1,.08,0,.14.14,0,0,0,.08-.09c0-.09,0-.21-.07-.34l-.14-.1,0,0a.76.76,0,0,1-.06-.36.34.34,0,0,1-.28-.19,0,0,0,0,1,0,0c0-.06,0-.12,0-.18a1.09,1.09,0,0,0,0-.18l0,0h.05l.24.09h0l.2-.07h.06a.17.17,0,0,0,.1.05h0a2.45,2.45,0,0,0-.33-.18,0,0,0,0,1,0,0s0,0,0,0l.09-.11a.86.86,0,0,1,.07-.1s0,0,0,0v0l.11-.17.1-.16,0,0h0l.15.1.47.3s0,0,0,.06a1.9,1.9,0,0,0,.07,1.5,3.83,3.83,0,0,0,2.1,1.17A.06.06,0,0,1,17,16,.09.09,0,0,1,17,16a.19.19,0,0,0,0,.07v.05a1.23,1.23,0,0,0-.07.59,1.29,1.29,0,0,1,0,.54c-.08.22-.3.23-.53.25Zm-.25-.95H16a.1.1,0,0,1,.05,0h0a.24.24,0,0,1,.16.23,1.12,1.12,0,0,1-.07.52v0h.13c.24,0,.38,0,.44-.18a1.52,1.52,0,0,0,0-.5,1.22,1.22,0,0,1,.08-.64h0s0-.05,0-.07a4.14,4.14,0,0,1-2.09-1.19h0a2.09,2.09,0,0,1-.09-1.56L14.2,13l-.1-.07L14,13l-.08.11.08,0a.82.82,0,0,1,.36.26.06.06,0,0,1,0,.08.06.06,0,0,1-.07,0h0a.65.65,0,0,0-.43-.23l-.07.08,0,0a2.18,2.18,0,0,1,.34.2.06.06,0,0,1,0,.07c-.07.12-.17.13-.3,0l-.17.06h-.09l-.19-.07v.11a.92.92,0,0,1,0,.16.29.29,0,0,0,.25.13l0,0a.07.07,0,0,1,0,.05.56.56,0,0,0,0,.33l.14.1,0,0a.6.6,0,0,1,.08.44.31.31,0,0,1-.19.18h0s0,0,0,0h0a.27.27,0,0,0-.13.17c0,.07,0,.11.05.14l.12-.08.05,0h0l.4-.07.39-.07s0,0,0,0,.25.26.37.4h.54l0,0v0a.22.22,0,0,1,0,.24.39.39,0,0,1-.33.14.48.48,0,0,1-.31-.1l-.05.07a.43.43,0,0,1-.34.14h-.19s0,0,0,0h0c0,.16-.06.3,0,.42h0s.1,0,.24,0,.23,0,.24-.05h0a.06.06,0,0,1,.05-.06.06.06,0,0,1,.06.05v.11h0l.05,0a.51.51,0,0,1,.21-.1,0,0,0,0,1,.06,0,.82.82,0,0,1,0,.26c0,.06,0,.1,0,.11s.06,0,.18,0c0-.2,0-.34,0-.39s0,0,0,0S15.64,16.57,15.82,16.57Z"/><path class="cls-5" d="M13.59,15.64c-.18-.19-.2-.29-.09-.46-.23,0-.29-.23-.34-.4a.55.55,0,0,0,.43.86Z"/><path class="cls-2" d="M13.64,15.66h-.05a.62.62,0,0,1-.47-.28.67.67,0,0,1,0-.6l0,0v0c.05.16.12.37.33.38h0l0,0c-.11.16-.09.25.1.44Zm-.49-.84a.63.63,0,0,0,0,.54.52.52,0,0,0,.4.25c-.15-.16-.17-.27-.08-.41C13.27,15.17,13.2,15,13.15,14.82Z"/><path class="cls-5" d="M13.35,13.69c.08,0,.19,0,.26,0s.17-.09.27-.08a1.24,1.24,0,0,0-1.07,0c.33.07.47.24.47.49,0-.12.05-.23.07-.35Z"/><path class="cls-2" d="M13.29,14h0c0-.24-.14-.39-.45-.46h-.05l.05,0a1.36,1.36,0,0,1,.51-.1,1.2,1.2,0,0,1,.57.14l.07,0h-.08a.37.37,0,0,0-.15,0l-.11,0h-.17l-.08,0Zm-.43-.49a.48.48,0,0,1,.42.38l.06-.24h0a.18.18,0,0,1,.11,0h.16l.11,0a.18.18,0,0,1,.1,0,1.15,1.15,0,0,0-.5-.12A1.29,1.29,0,0,0,12.86,13.55Z"/><path class="cls-5" d="M13.1,13.43c.51.1.11-.22.59-.07l.17-.21c-.42-.27-.72,0-.76.28Z"/><path class="cls-2" d="M13.26,13.46a.56.56,0,0,1-.17,0h0a.44.44,0,0,1,.43-.41.71.71,0,0,1,.35.11h0l-.18.23h0a.63.63,0,0,0-.19,0c-.05,0-.07,0-.08.05S13.38,13.46,13.26,13.46Zm-.15,0h.15c.1,0,.11,0,.13-.06a.12.12,0,0,1,.11-.07.58.58,0,0,1,.19,0l.14-.19a.6.6,0,0,0-.32-.1A.41.41,0,0,0,13.11,13.42Z"/><path class="cls-5" d="M13.29,13.08c.57.12.13-.17.66-.05l.18-.23c-.46-.29-.79-.07-.84.28Z"/><path class="cls-2" d="M13.51,13.13l-.22,0h0a.45.45,0,0,1,.45-.43.78.78,0,0,1,.41.14h0L14,13h0l-.2,0a.1.1,0,0,0-.1,0A.13.13,0,0,1,13.51,13.13Zm-.2-.06.2,0a.13.13,0,0,0,.12,0s0-.06.12-.06l.2,0,.16-.21a.67.67,0,0,0-.38-.13A.42.42,0,0,0,13.31,13.07Z"/><path class="cls-2" d="M14.47,21a.55.55,0,0,1-.36-.11l0,0v-.16c0-.08,0-.14-.05-.16s-.2,0-.33,0-.53.16-.68.07l0,0a.47.47,0,0,1-.19-.21.2.2,0,0,1,0-.19v0a.81.81,0,0,1-.22,0c-.18,0-.29-.12-.31-.22a.64.64,0,0,1,.4-.74c.1-.28.12-.31.33-.29h.12a.26.26,0,0,1,.21-.2.57.57,0,0,1,.54.16s.05,0,.13,0a.74.74,0,0,1,.26,0c.19,0,.24.38.25.57l1.61-1.31.07.08-1.7,1.39h-.06a.05.05,0,0,1,0-.05c0-.26-.06-.55-.16-.57a.54.54,0,0,0-.22,0c-.09,0-.18,0-.24-.09a.5.5,0,0,0-.43-.11.14.14,0,0,0-.12.15s0,.05-.06.05H13c-.08,0-.1,0-.12,0a1.91,1.91,0,0,0-.1.24s0,0,0,0a.52.52,0,0,0-.36.62c0,.05.1.1.22.13a.54.54,0,0,0,.29,0A.89.89,0,0,1,13,20l0,0,0,0,.07,0h0s.05,0,.19,0h.06a.06.06,0,0,1,.06.05.06.06,0,0,1-.06.06.66.66,0,0,0-.23,0h0l-.08,0a.91.91,0,0,1-.16.1l-.05,0a.14.14,0,0,0-.05.09.15.15,0,0,0,0,.11c0,.05.1.15.16.17s0,0,0,0,.43,0,.58-.07.33-.11.44,0a.25.25,0,0,1,.09.25v.11a.52.52,0,0,0,.42,0,1.4,1.4,0,0,1,.08-.51,1,1,0,0,1,.72-.3.43.43,0,0,1,.38.12.61.61,0,0,1,.07.28c0,.06,0,.12,0,.16a.3.3,0,0,0,.24.07.43.43,0,0,1,0-.38c.13-.15.4-.13.69-.11a1.53,1.53,0,0,0,.58,0h0s0,0,.06,0h0s.05,0,.08-.15a1.25,1.25,0,0,1,.07-.21c0-.07.06-.16.07-.2s0,0,0,0,.19-.1.2-.17l.11,0a.42.42,0,0,1-.24.23c0,.05,0,.12-.07.19a.93.93,0,0,0-.06.19.33.33,0,0,1-.13.23h0s0,0,0,0h0a1.85,1.85,0,0,1-.63,0c-.25,0-.5,0-.59.08s-.05.14,0,.28a.08.08,0,0,1,0,.1.36.36,0,0,1-.4-.08v0a1,1,0,0,1,0-.2.56.56,0,0,0,0-.23.36.36,0,0,0-.29-.07.9.9,0,0,0-.62.24,1.93,1.93,0,0,0-.07.49s0,0,0,0A.43.43,0,0,1,14.47,21Z"/><path class="cls-5" d="M12.34,20.1l-.09-.33c-.3.32-.37.76.21.76,0-.12,0-.22.24-.32Z"/><path class="cls-2" d="M12.48,20.55h0c-.28,0-.39-.11-.43-.19s0-.38.2-.6l0,0,.11.35.39.12h0c-.22.09-.22.18-.23.29v0Zm-.24-.75a.57.57,0,0,0-.18.54c0,.11.19.17.39.18v0a.29.29,0,0,1,.21-.29l-.33-.1Z"/><path class="cls-5" d="M12.78,20.29a.43.43,0,0,0,.09.71A.2.2,0,0,0,13,21a.44.44,0,0,1,0-.23c0-.14.14-.09,0-.21s-.13-.14-.14-.19a0,0,0,0,1,0,0l-.06-.05s0,0,0,0Z"/><path class="cls-2" d="M13,21l-.07,0h0a.38.38,0,0,1-.25-.36c0-.17.05-.34.15-.38h0a.09.09,0,0,1,.05,0l0,0,0,0h0s0,0,0,0h0l.08.1.07.08c0,.08,0,.1,0,.13a.23.23,0,0,0-.06.09.55.55,0,0,0,0,.2v0h0Zm-.17-.74a.39.39,0,0,0-.13.35.35.35,0,0,0,.23.34h0L13,21h0a.46.46,0,0,1,0-.22.29.29,0,0,1,.07-.1s0,0,0-.09L13,20.51l-.09-.11s0,0,0,0a0,0,0,0,1,0,0l0,0h0A0,0,0,0,0,12.78,20.3Z"/><path class="cls-5" d="M14.12,20.93v0c0,.2.12.07-.08.29s-.24.31.14.26a.63.63,0,0,0,.56-.6s.06,0,0,0-.07.08-.31.08a2.67,2.67,0,0,0-.35-.06Z"/><path class="cls-2" d="M14.06,21.54c-.09,0-.14,0-.16-.06s0-.13.11-.23.12-.13.11-.15a.19.19,0,0,1,0-.13h0a.1.1,0,0,1,0,0v0h0a1.78,1.78,0,0,1,.26,0,.18.18,0,0,0,.09,0,.41.41,0,0,0,.19,0h0l.06,0h.12l0,0h-.06a.61.61,0,0,1-.57.58Zm.07-.6v0h0a.17.17,0,0,0,0,.12s0,.05-.11.18-.12.16-.11.2.1.05.24,0a.6.6,0,0,0,.54-.55h0a.49.49,0,0,1-.23,0h0l-.1,0A1.72,1.72,0,0,0,14.13,20.94Z"/><path class="cls-2" d="M22,22.35c-.09-.26-1.09-.69-1.42-.79-.08,0-1.81-.57-2-.63a1,1,0,0,1-.7-.63,1.51,1.51,0,0,1,0-.58v-.15H18v.15a1.81,1.81,0,0,0,0,.54.87.87,0,0,0,.64.56h0c.08,0,1.7.55,1.95.62s1.37.54,1.48.86Z"/><path class="cls-2" d="M17.82,28.89a1.73,1.73,0,0,1-.54-.12,1.23,1.23,0,0,0-.47-.13,1.13,1.13,0,0,0-.35.08l-.25.07a.54.54,0,0,1-.2,0,.61.61,0,0,1-.3-.09s0,0,0,0v-.23c0-.22-.06-.24-.11-.25s-.09,0-.1-.1a.3.3,0,0,1,0-.23.26.26,0,0,0,0-.21.28.28,0,0,0-.05-.11c0-.06-.06-.11,0-.27l0,0a.62.62,0,0,1,.19,0,.71.71,0,0,1,.57.35c.11.15.21.27.39.28a1.36,1.36,0,0,0,1-.33l.2-.13a1.78,1.78,0,0,0,.46-.55l.05-.08a.88.88,0,0,0,.14-.29,2.05,2.05,0,0,1,.08-.19,0,0,0,0,1,0,0,.2.2,0,0,1,.09.05,1.77,1.77,0,0,1,.33.35.88.88,0,0,0,.3.27.46.46,0,0,1,.16.13h0a.32.32,0,0,1,0,.32.28.28,0,0,0,0,.18.88.88,0,0,1,0,.33h0c-.07.21-.12.37-.41.37a0,0,0,0,1,0,0,.42.42,0,0,0,0-.21v.15s0,.06,0,.09c0,.26-.11.31-.29.31h-.41a.22.22,0,0,0-.21.12A.45.45,0,0,1,17.82,28.89Zm-1-.33a1.41,1.41,0,0,1,.5.14,1.59,1.59,0,0,0,.51.12.37.37,0,0,0,.33-.14.27.27,0,0,1,.27-.15h.41c.13,0,.21,0,.22-.24v-.1a.88.88,0,0,0,0-.28v0s0,0,0,0,0,0,0,0v0a.2.2,0,0,0,0,.08.3.3,0,0,1,.08.25c.2,0,.24-.1.3-.31a.66.66,0,0,0,0-.29.3.3,0,0,1,0-.23.28.28,0,0,0,0-.26h0L19.36,27a1,1,0,0,1-.33-.3,1.78,1.78,0,0,0-.29-.32h0l-.05.15a1,1,0,0,1-.16.31l0,.07a1.82,1.82,0,0,1-.48.58l-.19.13a1.47,1.47,0,0,1-1.1.34.59.59,0,0,1-.44-.31.64.64,0,0,0-.51-.32.39.39,0,0,0-.15,0c0,.11,0,.14,0,.18a.31.31,0,0,1,.06.14.32.32,0,0,1,0,.26.22.22,0,0,0,0,.18s0,0,0,0,.16.07.16.32v.21a.53.53,0,0,0,.25.07l.18,0,.24-.07A1.13,1.13,0,0,1,16.81,28.56Z"/><path class="cls-5" d="M15.43,27.31a.47.47,0,0,0-.32.46v.17a1.87,1.87,0,0,0,.22-.07,1.75,1.75,0,0,0-.12.51c0,.09,0,.08,0,.14h0c0-.11.25-.21.3-.19a.53.53,0,0,1,0,.27s-.08.17-.09.2a.3.3,0,0,0,0,.27c.06,0,.06.11.11,0s.17-.08.25-.13-.06-.17-.08-.2,0-.52-.13-.56-.09-.07-.11-.13.15-.3,0-.46,0-.27-.11-.25,0,0,0,0Z"/><path class="cls-2" d="M15.57,29.12l0,0s0,0,0,0h0v0a.3.3,0,0,1,0-.25s.08-.19.08-.21a.59.59,0,0,0,0-.2s0,0,0,0h0a.42.42,0,0,0-.23.1.09.09,0,0,0,0,.07h0l0,0v0s0,0,0,0a.17.17,0,0,1,0-.1,1,1,0,0,1,.1-.43.14.14,0,0,0,0-.06l0,0a.62.62,0,0,1-.16,0h0v-.18a.51.51,0,0,1,.34-.48h0a.08.08,0,0,1,.07,0s0,.05,0,.08a.24.24,0,0,0,0,.16c.08.09,0,.19,0,.28a.25.25,0,0,0,0,.19s0,.11.11.12.08.17.07.31,0,.24,0,.25h0l0,0s.1.07.1.12a.1.1,0,0,1-.06.07.13.13,0,0,1-.08,0,.34.34,0,0,0-.17.1C15.6,29.09,15.59,29.12,15.57,29.12Zm-.06-.07,0,0,0,0a.73.73,0,0,0,0-.08h0a.34.34,0,0,1,.19-.11.07.07,0,0,0,.06,0s.05,0,.05-.05-.06-.07-.09-.1l0,0c-.08,0-.07-.14-.07-.28s0-.26,0-.27a.24.24,0,0,1-.12-.14.25.25,0,0,1,0-.21c0-.09.07-.17,0-.26a.27.27,0,0,1,0-.17s0-.05,0-.06h-.07a.47.47,0,0,0-.31.45v.15l.14,0,.07,0h0v0a.92.92,0,0,1,0,.09,1,1,0,0,0-.1.42.13.13,0,0,0,0,.08h0l0,0a.46.46,0,0,1,.25-.11h0v.05s0,.05,0,.21a1.89,1.89,0,0,1-.09.21.29.29,0,0,0,0,.23Z"/><path class="cls-5" d="M23.73,28.52h0c-.14.06-.15.41-.11.53a.36.36,0,0,0,.17.24S23.94,29,24,29l.13,0c.08,0,.16,0,.09-.1a1.84,1.84,0,0,0-.28-.15l-.18-.1s0,0,0,0Z"/><path class="cls-2" d="M23.81,29.33h0a.47.47,0,0,1-.19-.25c0-.13,0-.49.12-.55h0s0,0,0,0l0,0,.08,0,.1.06a2,2,0,0,1,.29.15s0,.07,0,.09-.05,0-.1,0h0A.5.5,0,0,0,24,29h0A.17.17,0,0,0,24,29a1,1,0,0,0-.16.29Zm-.08-.79h0c-.12.06-.13.4-.1.52a.46.46,0,0,0,.15.22,1.76,1.76,0,0,1,.14-.27.22.22,0,0,1,.1-.08.63.63,0,0,1,.13,0h0s.07,0,.07,0,0,0,0-.05a1.74,1.74,0,0,0-.27-.14h0l-.1-.05-.08-.05S23.73,28.55,23.73,28.54Z"/><path class="cls-5" d="M24,29.36a.62.62,0,0,0,.5.68l.15,0s0-.16,0-.2a.44.44,0,0,1,.11-.31v0h0c-.14,0-.12,0-.23,0a.66.66,0,0,1-.37,0c-.05,0-.13-.1-.12-.16Z"/><path class="cls-2" d="M24.69,30.07h-.17a.63.63,0,0,1-.51-.7h0c0,.05.08.12.11.14a.26.26,0,0,0,.14,0h.22l.1,0,.13,0h0v0h0v0h0a.42.42,0,0,0-.11.3.56.56,0,0,0,0,.15v0ZM24,29.44a.61.61,0,0,0,.49.59h.14v0a.9.9,0,0,1,0-.16.5.5,0,0,1,.11-.32v0l-.11,0-.11,0h-.22a.28.28,0,0,1-.15,0A.52.52,0,0,1,24,29.44Z"/><path class="cls-5" d="M25.11,29.36s.05.2,0,.24-.13,0-.19.07a.4.4,0,0,0,.53.28h0c.11,0,.14-.2.16-.28a.38.38,0,0,0,0-.1c-.18,0-.18,0-.27-.14s-.16-.13-.22-.1h0v0Z"/><path class="cls-2" d="M25.29,30a.5.5,0,0,1-.21,0c-.06,0-.2-.21-.19-.28H25a.35.35,0,0,0,.14-.06.11.11,0,0,0,0-.05.3.3,0,0,0,0-.17h0v0h.07a.28.28,0,0,1,.19.12c.08.12.09.12.24.12h0v0a.31.31,0,0,1,0,.1v0c0,.09-.05.22-.15.26h0A.41.41,0,0,1,25.29,30Zm-.37-.31a.56.56,0,0,0,.18.23.44.44,0,0,0,.34,0h0c.09,0,.11-.15.13-.24v0a.28.28,0,0,0,0-.09h0c-.16,0-.18,0-.27-.14a.27.27,0,0,0-.16-.1h0v0a.27.27,0,0,1,0,.18.07.07,0,0,1,0,.07c-.09.06-.12.06-.15.06h0Z"/><path class="cls-6" d="M19.88,13.51v.35a5.42,5.42,0,0,0-2.33.39A.81.81,0,0,0,16.7,14c0-.09.11-.17.31-.26,0-.09,0-.21,0-.29s.14.13.24.19a.4.4,0,0,1,.45-.06c-.06,0-.14.17-.21.17s0,.14.11.27a4.84,4.84,0,0,1,2.31-.51Z"/><path class="cls-2" d="M17.55,14.3h0a.75.75,0,0,0-.8-.23s0,0-.05,0a.08.08,0,0,1,0,0c0-.1.12-.2.31-.28a.49.49,0,0,1,0-.12.51.51,0,0,0,0-.13.07.07,0,0,1,0-.06H17l.13.1.08.07a.52.52,0,0,1,.29-.09.31.31,0,0,1,.19.06.07.07,0,0,1,0,.06.07.07,0,0,1-.06,0s0,0-.06.06a.27.27,0,0,1-.11.1s0,.06.05.11l0,0a5.1,5.1,0,0,1,2.29-.49h.05l0,0v.35s0,.05-.06.06a5.35,5.35,0,0,0-2.3.38Zm-.6-.39a.82.82,0,0,1,.61.27,5.6,5.6,0,0,1,2.26-.37v-.24a4.78,4.78,0,0,0-2.21.49,0,0,0,0,1,0,0l0,0L17.46,14a.19.19,0,0,1-.05-.25.05.05,0,0,1,.05,0l.07-.07,0,0a.48.48,0,0,0-.31.09h-.06l-.13-.1h0v0a.53.53,0,0,0,0,.13.05.05,0,0,1,0,.07.7.7,0,0,0-.22.13Z"/><path class="cls-5" d="M20.15,12.72s0-.09,0-.15h.69v.18a1.12,1.12,0,0,0-.82.57.68.68,0,0,1,.29-.52l-.19-.07Z"/><path class="cls-2" d="M20,13.36v0a.71.71,0,0,1,.28-.51l-.17-.07h0s0-.1,0-.17h.71v.22h0a1.09,1.09,0,0,0-.81.56Zm.13-.65.21.08h0a.71.71,0,0,0-.28.45,1.09,1.09,0,0,1,.78-.52v-.16h-.66Q20.12,12.65,20.16,12.71Z"/><path class="cls-5" d="M21.32,12.39a.16.16,0,1,0,0-.32.16.16,0,1,0,0,.32Z"/><path class="cls-2" d="M21.32,12.4a.18.18,0,0,1-.19-.17.19.19,0,0,1,.19-.18.18.18,0,0,1,.18.18A.17.17,0,0,1,21.32,12.4Zm0-.32a.16.16,0,0,0-.16.15.15.15,0,0,0,.16.14.15.15,0,0,0,.15-.14A.15.15,0,0,0,21.32,12.08Z"/><path class="cls-5" d="M22.22,13.1a.17.17,0,0,0,.17-.16.17.17,0,0,0-.34,0,.17.17,0,0,0,.17.16Z"/><path class="cls-2" d="M22.22,13.11a.18.18,0,0,1-.18-.17.18.18,0,1,1,.36,0A.18.18,0,0,1,22.22,13.11Zm0-.32a.15.15,0,0,0-.15.15.15.15,0,0,0,.15.14.14.14,0,0,0,.15-.14A.15.15,0,0,0,22.22,12.79Z"/><path class="cls-5" d="M22.89,13.67a.16.16,0,1,0-.17-.16.17.17,0,0,0,.17.16Z"/><path class="cls-2" d="M22.89,13.69a.18.18,0,0,1-.18-.18.18.18,0,0,1,.36,0A.18.18,0,0,1,22.89,13.69Zm0-.32a.14.14,0,0,0-.15.14.15.15,0,0,0,.15.15.15.15,0,0,0,.15-.15A.15.15,0,0,0,22.89,13.37Z"/><path class="cls-2" d="M23,14.17a13.37,13.37,0,0,0-2.15-1.94l.05-.06a14,14,0,0,1,2.16,2Z"/><path class="cls-2" d="M21.78,13.92a.87.87,0,0,1-.48-.18.08.08,0,0,1,0-.05.05.05,0,0,1,0,0,.51.51,0,0,0,.31-.35.08.08,0,0,1,.07-.05.06.06,0,0,1,0,.07.56.56,0,0,1-.28.38.54.54,0,0,0,.65,0,0,0,0,0,1,.07,0,.05.05,0,0,1,0,.08A.72.72,0,0,1,21.78,13.92Z"/><path class="cls-2" d="M21.8,14.42h0a.47.47,0,0,1-.16,0h0s0,0,0,0l0-.07,0-.07a.11.11,0,0,0,0-.08s0,0,0-.06a0,0,0,1,1,.08,0v0a.19.19,0,0,1,0,.13l0,.07v0h.13c.08,0,.14,0,.19-.15h0s0,0,0,0,0,0,0,0v0h0A.28.28,0,0,1,21.8,14.42Z"/><path class="cls-7" d="M19.56,12.84s.07,0,.07-.05,0,0-.07,0-.08,0-.08,0,0,.05.08.05Z"/><path class="cls-2" d="M19.56,12.85s-.1,0-.1-.06.05-.06.1-.06.09,0,.09.06S19.61,12.85,19.56,12.85Zm0-.09s-.07,0-.07,0,0,0,.07,0,.06,0,.06,0S19.59,12.76,19.56,12.76Z"/><path class="cls-7" d="M19.55,12.93a0,0,0,1,0,0-.1.05.05,0,1,0,0,.1Z"/><path class="cls-2" d="M19.55,12.94s-.07,0-.07-.06a.07.07,0,0,1,.07-.06.06.06,0,0,1,.06.06A.06.06,0,0,1,19.55,12.94Zm0-.09s0,0,0,0a0,0,0,0,0,0,0s0,0,0,0A0,0,0,0,0,19.55,12.85Z"/><path class="cls-7" d="M19.28,12.94a0,0,0,1,0-.05,0,0,0,0,0,0,.05,0Z"/><path class="cls-2" d="M19.28,13a.07.07,0,0,1-.07-.06s0-.06.07-.06.07,0,.07.06A.07.07,0,0,1,19.28,13Zm0-.1a0,0,0,0,0,0,0s0,0,0,0,0,0,0,0A0,0,0,0,0,19.28,12.85Z"/><path class="cls-7" d="M19.31,13a.05.05,0,1,0,0-.05,0,0,0,0,0,0,.05Z"/><path class="cls-2" d="M19.31,13a.07.07,0,0,1-.07-.07.07.07,0,0,1,.07-.06s.07,0,.07.06A.07.07,0,0,1,19.31,13Zm0-.1s0,0,0,0a0,0,0,0,0,.08,0S19.33,12.92,19.31,12.92Z"/><path class="cls-7" d="M19.35,13.26a0,0,0,0,0,0,0,.05.05,0,1,0-.1,0,0,0,0,0,0,.05,0Z"/><path class="cls-2" d="M19.35,13.28s-.06,0-.06-.07a.06.06,0,0,1,.06-.06.07.07,0,0,1,.07.06A.07.07,0,0,1,19.35,13.28Zm0-.1a0,0,0,0,0,0,0s0,0,0,0a0,0,0,0,0,0,0S19.37,13.18,19.35,13.18Z"/><path class="cls-2" d="M18.89,27.67a.05.05,0,0,1-.05,0,.07.07,0,0,1,0-.07h0c.14-.3.15-.31.08-.57h0l-.35.25s0,0,0,0a.08.08,0,0,1-.07,0,0,0,0,0,1,0-.05h0v0h0a.81.81,0,0,1,0-.11,1.24,1.24,0,0,0,0-.36v-.09h.12v.09a1,1,0,0,1,0,.37l.23-.16,0,0s0,0,0,0,0,0,.05,0h0s.05,0,.05,0l0,.07a.6.6,0,0,1,0,.54.51.51,0,0,1,.31-.07.23.23,0,0,1,.15.1l0,0h0s0,0,0,.06h-.12v0l0,0a.12.12,0,0,0-.07-.05.55.55,0,0,0-.36.14h0a.09.09,0,0,1-.05,0Z"/><path class="cls-2" d="M12.71,19.34l0-.08h.09a3.11,3.11,0,0,1,.86,0l0-.05c.12-.19.13-.2.15-.2l0,.07h0a1.86,1.86,0,0,0-.12.18.25.25,0,0,1-.05.07s0,0,0,0a3,3,0,0,0-.85,0Z"/><path class="cls-2" d="M14.58,19.93h-.06c-.08,0-.11-.14-.11-.34h.07c0,.21,0,.26.07.27s.17-.05.25-.11l.1-.07h0l.06,0s0,0,0,0h0l0,0a.28.28,0,0,0-.1.06A.53.53,0,0,1,14.58,19.93Z"/><path class="cls-2" d="M26.43,6.88a19.61,19.61,0,0,0-11.68,0l0-.07a19.66,19.66,0,0,1,11.72,0Z"/><path class="cls-3" d="M20.68,6.54c-.78,0-1.44.31-1.46.77s.6.86,1.39.89,1.44-.31,1.46-.77S21.47,6.57,20.68,6.54Zm-.74.86c0-.23.3-.43.69-.44s.72.15.73.38-.3.43-.69.44S20,7.63,19.94,7.4Z"/><path class="cls-2" d="M20.71,8.24h-.1c-.81,0-1.45-.46-1.43-.93s.69-.84,1.5-.81,1.45.45,1.43.93S21.47,8.24,20.71,8.24Zm-.13-1.66c-.72,0-1.3.32-1.32.73s.59.82,1.35.85S22,7.86,22,7.43s-.59-.82-1.35-.85Z"/><path class="cls-3" d="M26.26,8c.13-.33.41-.54.6-.46s.25.42.11.75-.42.53-.61.45-.24-.42-.1-.74Z"/><path class="cls-2" d="M26.45,8.82l-.11,0a.3.3,0,0,1-.16-.17.85.85,0,0,1,0-.62.71.71,0,0,1,.55-.49l.11,0c.22.09.27.44.12.79A.71.71,0,0,1,26.45,8.82Zm.32-1.23c-.17,0-.37.19-.48.45a.8.8,0,0,0,0,.56.26.26,0,0,0,.12.13l.08,0c.17,0,.37-.19.48-.45s.09-.62-.08-.69Z"/><path class="cls-3" d="M24.4,7.15c-.76-.16-1.47.06-1.57.51s.44.95,1.21,1.11,1.47-.06,1.57-.5S25.17,7.32,24.4,7.15Zm.52,1c-.05.23-.41.34-.79.26s-.66-.33-.61-.56.41-.34.79-.25S25,7.89,24.92,8.11Z"/><path class="cls-2" d="M24.54,8.87A2.22,2.22,0,0,1,24,8.81a2.06,2.06,0,0,1-1-.46.75.75,0,0,1-.29-.7c.08-.35.53-.59,1.11-.59a2.22,2.22,0,0,1,.51.06c.79.17,1.34.69,1.24,1.16S25.13,8.87,24.54,8.87ZM23.9,7.14c-.55,0-1,.21-1,.53a.67.67,0,0,0,.26.62,2,2,0,0,0,.91.45,2.92,2.92,0,0,0,.5,0c.55,0,1-.21,1-.53s-.43-.91-1.17-1.07A2.18,2.18,0,0,0,23.9,7.14Z"/><path class="cls-2" d="M26.43,7.45a19.61,19.61,0,0,0-11.68,0l0-.07a19.82,19.82,0,0,1,11.72,0Z"/><path class="cls-3" d="M14.91,8c-.14-.33-.41-.53-.6-.45s-.25.41-.11.74.41.53.61.45.24-.41.1-.74Z"/><path class="cls-2" d="M14.72,8.8c-.2,0-.43-.21-.55-.5a.78.78,0,0,1,0-.61.3.3,0,0,1,.16-.17.2.2,0,0,1,.11,0c.2,0,.42.2.55.49s.09.7-.12.79ZM14.4,7.57h-.08a.24.24,0,0,0-.12.14.75.75,0,0,0,0,.56c.11.26.31.44.48.44h.08c.17-.07.21-.39.08-.69S14.57,7.57,14.4,7.57Z"/><path class="cls-3" d="M18,7.68c-.1-.44-.8-.67-1.57-.5s-1.31.66-1.21,1.11.81.68,1.57.51S18.14,8.13,18,7.68ZM17.26,8a.81.81,0,0,1-.53.32,1,1,0,0,1-.24,0c-.26,0-.47-.1-.5-.25a.3.3,0,0,1,.13-.29.91.91,0,0,1,.45-.22,1,1,0,0,1,.24,0c.26,0,.47.1.5.25A.24.24,0,0,1,17.26,8Z"/><path class="cls-2" d="M16.33,8.89h0c-.58,0-1-.24-1.11-.59a.75.75,0,0,1,.29-.7,2.06,2.06,0,0,1,1-.46,2.21,2.21,0,0,1,.51,0c.58,0,1,.23,1.11.59s-.45,1-1.24,1.15A2.22,2.22,0,0,1,16.33,8.89ZM17,7.16a2.92,2.92,0,0,0-.5,0,2,2,0,0,0-.91.45.64.64,0,0,0-.26.62c.07.32.48.54,1,.54h0a2.05,2.05,0,0,0,.49-.06c.75-.16,1.28-.64,1.18-1.07S17.52,7.16,17,7.16Z"/><path class="cls-2" d="M24.9,7.87a1,1,0,0,0-.58-.35,1.15,1.15,0,0,0-.26,0c-.31,0-.53.12-.57.31a.38.38,0,0,0,.15.37,1,1,0,0,0,.48.23,1.15,1.15,0,0,0,.26,0c.3,0,.53-.12.57-.31A.33.33,0,0,0,24.9,7.87Zm0,.24c0,.15-.24.25-.5.25l-.24,0a1,1,0,0,1-.45-.21.35.35,0,0,1-.13-.3c0-.15.24-.25.5-.25l.24,0a.9.9,0,0,1,.54.32A.28.28,0,0,1,24.88,8.11Z"/><path class="cls-4" d="M20.69,6.92h-.06a.91.91,0,0,0-.63.24.3.3,0,0,0-.1.24c0,.24.31.42.71.42h.06c.41,0,.74-.23.73-.48S21.08,6.92,20.69,6.92ZM20,7.4a.29.29,0,0,1,.08-.19A.9.9,0,0,1,20.63,7h.06c.34,0,.62.16.63.35s-.28.39-.66.41S20,7.61,20,7.4Z"/><path class="cls-2" d="M17.38,7.83c0-.19-.27-.31-.57-.31a1.15,1.15,0,0,0-.26,0,1,1,0,0,0-.48.23.38.38,0,0,0-.15.37c0,.19.26.31.57.31a1.15,1.15,0,0,0,.26,0,1,1,0,0,0,.58-.35A.33.33,0,0,0,17.38,7.83ZM17.26,8a.81.81,0,0,1-.53.32,1,1,0,0,1-.24,0c-.26,0-.47-.1-.5-.25a.3.3,0,0,1,.13-.29.91.91,0,0,1,.45-.22,1,1,0,0,1,.24,0c.26,0,.47.1.5.25A.24.24,0,0,1,17.26,8Z"/><path class="cls-5" d="M20.65,8.15a17.34,17.34,0,0,0-5.37,1l.29.66H25.66L26,9a20.28,20.28,0,0,0-5.32-.87Z"/><path class="cls-8" d="M25.67,9.79H15.56l-.3-.68h0a17.38,17.38,0,0,1,5.38-1A20.5,20.5,0,0,1,26,9h0Zm-10.09,0H25.65L26,9a20.2,20.2,0,0,0-5.3-.86,17.48,17.48,0,0,0-5.35,1Z"/><path class="cls-2" d="M14.49,5.18l0-.08c.6-.09,1-.25,1.12-.49a.67.67,0,0,0,0-.59.77.77,0,0,0-.53-.38,1.67,1.67,0,0,0-1.17.61h0s0,0,0,0c-.51-.9-1.15-1.17-2-.83l0-.07a1.5,1.5,0,0,1,2,.82,1.65,1.65,0,0,1,1.2-.59.87.87,0,0,1,.59.42h0a.71.71,0,0,1,0,.64C15.49,4.91,15.11,5.08,14.49,5.18Z"/><path class="cls-2" d="M15.37,6.3a1.94,1.94,0,0,1-1.29-.54l.05,0c1,.84,2,.65,3.23-.56,0,0,0,0,.05,0A2.05,2.05,0,0,0,20.6,5l.06,0a2.11,2.11,0,0,1-3.27.21A3,3,0,0,1,15.37,6.3Z"/><path class="cls-5" d="M20.13,13.74c0-.12.16-.13.21-.22a.29.29,0,0,0,0-.08s-.05-.07-.08-.07-.06.06-.12.09a.26.26,0,0,0-.12.18h0l0,.13a.41.41,0,0,0,0,.24h0s.07.09.11.06.05-.15,0-.16-.06-.15-.06-.19Z"/><path class="cls-2" d="M20.15,14.11h0a.12.12,0,0,1-.1-.08h0v0a.32.32,0,0,1,0-.22.54.54,0,0,1,0-.1v0a.22.22,0,0,1,.13-.18l0,0a.08.08,0,0,1,.07-.05h0a.25.25,0,0,1,.09,0,.06.06,0,0,1,0,.06l0,.05,0,0s-.06.06-.1.09-.11.06-.11.12,0,.15.06.17a.08.08,0,0,1,0,.05s0,.13,0,.14Zm.14-.73s0,0-.05,0a.08.08,0,0,1,0,.05.25.25,0,0,0-.11.17v0a.54.54,0,0,0,0,.1.34.34,0,0,0,0,.2l0,0h0a.09.09,0,0,0,.07.06h0a.2.2,0,0,0,0-.12v0c-.07,0-.08-.17-.08-.2s.07-.12.12-.15.08,0,.09-.07l0,0,0-.05v0a.13.13,0,0,0-.07,0Z"/><path class="cls-2" d="M19.22,14v-.07l.69,0v-.45l-.79.09v-.07l.83-.1h0s0,0,0,0v.54s0,0,0,0Z"/></svg>